<?xml version="1.0" encoding="UTF-8" standalone="no"?>
<svg width="18px" height="20px" viewBox="0 0 18 20" version="1.1" xmlns="http://www.w3.org/2000/svg" xmlns:xlink="http://www.w3.org/1999/xlink" xmlns:sketch="http://www.bohemiancoding.com/sketch/ns">
    <!-- Generator: Sketch 3.1 (8751) - http://www.bohemiancoding.com/sketch -->
    <title>Shape</title>
    <desc>Created with Sketch.</desc>
    <defs></defs>
    <g id="Page-1" stroke="none" stroke-width="1" fill="none" fill-rule="evenodd" sketch:type="MSPage">
        <path d="M11,18 C11,19.1046 10.1046,20 9,20 C7.8954,20 7,19.1046 7,18 L11,18 L11,18 Z M9,1e-05 C9.5523,1e-05 10,0.44772 10,1 L10,2.08298 C12.8377,2.55905 15,5.02702 15,8 L15,14 L18,17 L0,17 L3,14 L3.00001,7.99998 C3.00001,5.02698 5.1623,2.55902 8,2.08294 L8,1 C8,0.44772 8.4477,1e-05 9,1e-05 L9,1e-05 Z" id="Shape" fill="#FFFFFF" sketch:type="MSShapeGroup"></path>
    </g>
</svg>