<?xml version="1.0" encoding="UTF-8" standalone="no"?>
<svg width="19px" height="19px" viewBox="0 0 19 19" version="1.1" xmlns="http://www.w3.org/2000/svg" xmlns:xlink="http://www.w3.org/1999/xlink" xmlns:sketch="http://www.bohemiancoding.com/sketch/ns">
    <!-- Generator: Sketch 3.1 (8751) - http://www.bohemiancoding.com/sketch -->
    <title>Shape + Shape</title>
    <desc>Created with Sketch.</desc>
    <defs></defs>
    <g id="Page-1" stroke="none" stroke-width="1" fill="none" fill-rule="evenodd" sketch:type="MSPage">
        <g id="Shape-+-Shape" sketch:type="MSLayerGroup" fill="#FFFFFF">
            <path d="M9.19212963,4.8 C10.7466815,4.8 12.0069444,6.01176677 12.0069444,7.50655834 C12.0069444,9.00132285 10.7466815,10.2131167 9.19212963,10.2131167 C7.63754963,10.2131167 6.37731481,9.00132285 6.37731481,7.50655834 C6.37731481,6.01176677 7.63754963,4.8 9.19212963,4.8 L9.19212963,4.8 Z M9.19212963,11.5663958 C12.3013037,11.5663958 14.8217593,12.7781897 14.8217593,14.2729542 L14.8217593,15.6262334 L3.5625,15.6262334 L3.5625,14.2729542 C3.5625,12.7781897 6.08296963,11.5663958 9.19212963,11.5663958 L9.19212963,11.5663958 Z" id="Shape" sketch:type="MSShapeGroup"></path>
            <path d="M9.5,0 C4.25334,0 0,4.08972197 0,9.1346344 C0,14.1795103 4.25334,18.2692688 9.5,18.2692688 C14.7467075,18.2692688 19,14.1795103 19,9.1346344 C19,4.08972197 14.7467075,0 9.5,0 L9.5,0 Z M9.5,1.82692688 C11.256265,1.82692688 12.873412,2.39974153 14.160358,3.36168248 L3.496095,13.6157206 C2.495745,12.3783431 1.9,10.8233543 1.9,9.1346344 C1.9,5.09870629 5.302615,1.82692688 9.5,1.82692688 L9.5,1.82692688 Z M17.1,9.1346344 C17.1,13.1705899 13.697366,16.4423419 9.5,16.4423419 C7.743735,16.4423419 6.12655,15.869509 4.83968,14.907632 L15.503867,4.65351161 C16.504274,5.89096226 17.1,7.44591454 17.1,9.1346344 L17.1,9.1346344 Z" id="Shape" sketch:type="MSShapeGroup"></path>
        </g>
    </g>
</svg>