<?xml version="1.0" encoding="UTF-8" standalone="no"?>
<svg width="20px" height="20px" viewBox="0 0 20 20" version="1.1" xmlns="http://www.w3.org/2000/svg" xmlns:xlink="http://www.w3.org/1999/xlink" xmlns:sketch="http://www.bohemiancoding.com/sketch/ns">
    <!-- Generator: Sketch 3.1 (8751) - http://www.bohemiancoding.com/sketch -->
    <title>Shape</title>
    <desc>Created with Sketch.</desc>
    <defs></defs>
    <g id="Page-1" stroke="none" stroke-width="1" fill="none" fill-rule="evenodd" sketch:type="MSPage">
        <path d="M10,0 C15.5228,0 20,4.47716 20,10 C20,15.5228 15.5228,20 10,20 C4.47715,20 0,15.5228 0,10 C0,4.47716 4.47715,0 10,0 L10,0 Z M10,2 C8.1513,2 6.44904,2.62708 5.09436,3.68015 L16.3199,14.9056 C17.3729,13.551 18,11.8487 18,10 C18,5.58173 14.4183,2 10,2 L10,2 Z M2,10 C2,14.4183 5.58172,18 10,18 C11.8487,18 13.551,17.3729 14.9056,16.3199 L3.68014,5.09436 C2.62708,6.44904 2,8.1513 2,10 L2,10 Z" id="Shape" fill="#FFFFFF" sketch:type="MSShapeGroup" transform="translate(10.000000, 10.000000) scale(-1, 1) translate(-10.000000, -10.000000) "></path>
    </g>
</svg>