<?xml version="1.0" encoding="utf-8"?>
<!-- Generator: Adobe Illustrator 14.0.0, SVG Export Plug-In . SVG Version: 6.00 Build 43363)  -->
<!DOCTYPE svg PUBLIC "-//W3C//DTD SVG 1.1//EN" "http://www.w3.org/Graphics/SVG/1.1/DTD/svg11.dtd">
<svg version="1.1" id="Layer_1" xmlns="http://www.w3.org/2000/svg" xmlns:xlink="http://www.w3.org/1999/xlink" x="0px" y="0px"
	 width="2600px" height="1578px" viewBox="0 0 2600 1578" enable-background="new 0 0 2600 1578" xml:space="preserve">
<rect fill-rule="evenodd" clip-rule="evenodd" fill="#FFF465" width="2600" height="1578"/>
<g>
	
		<ellipse transform="matrix(-0.3433 0.9392 -0.9392 -0.3433 2304.0825 940.3281)" fill="#F47F51" cx="823.293" cy="1275.695" rx="5.613" ry="5.484"/>
	<path fill="#F47F51" d="M1006.143,1021.644c-11.508-8.271-21.853-8.602-21.853-8.602c-19.603-7.762-58.699-19.885-128.765,2.58
		c-70.066,22.464-74.404,109.718-74.404,109.718l-44.063,4.778c7.795,27.617,28.077,53.015,28.077,53.015
		s-28.023,32.532-45.898,67.491c0,0,7.295,13.416,28.621,35.115c-1.053,1.735-2.973,6.05-0.603,11.754c0,0-9.24,1.466-16.581,5.229
		c0,0-15.75-5.918-30.518,7.102c-14.766,13.017-20.835,28.119,7.363,63.995c0,0-13.348,25.01-20.413,41.712
		c0,0-55.33-8.344-58.862,0.007c0,0-4.351-1.042-9.348-1.933c0,0,1.389-5.797,2.127-11.445l-12.986,3.021l-0.909-5.732
		c30.755-11.881,42.781-23.176,42.781-23.176c-5.472-41.166-20.168-71.97-20.168-71.97l1.97-1.826
		c44.076-25.314,42.723-41.428,42.723-41.428l-37.814-21.317c37.607-203.142-160.182-182.444-165.875-180.436
		c-5.693,2.008-103.088,54.104-112.652,124.777c-13.834,102.195,58.97,141.653,58.97,141.653l4.685,20.13
		c9.498,2.582,43.928,3.467,43.928,3.467c10.754,5.026,39.221,24.414,50.487,37.535s25.539,30.336,25.539,30.336
		c18.38-3.336,34.012-7.293,47.204-11.414l0.197,0.384l1.706,4.394l-10.283,5.816c0,0,11.704,6.175,17.308,9.662
		c0,0-6.567,15.902-1.356,23.587c5.212,7.687,19.557,10.509,25.25,8.5c0,0,15.706,8.666,40.742,10.368
		c25.038,1.704,37.376-1.166,37.376-1.166s19.797,5.659,31.229-1.107c8.775-5.194,19.855-17.623,23.236-26.624
		c3.382-9.001,18.312-41.907,14.641-54.743c0,0,6.978-11.206,5.466-17.7c-1.511-6.493-9.201-30.711-21.614-42.882
		c0,0,1.54-5.149,3.381-9.001c0,0,10.512,2.015,18.978-4.63c18.868,15.184,29.62,19.331,29.62,19.331
		c9.785-5.015,18.119-10.376,34.291-20.301c16.172-9.923,54.18-20.135,54.18-20.135c11.295,1.479,49.033,7.756,49.033,7.756
		l12.305-20.66c0,0,58.227-10.95,87.487-59.371C1097.424,1125.663,1017.65,1029.919,1006.143,1021.644z M490.42,1299.76
		c0,0-47.736-8.059-72.854-54.233c-25.119-46.176-12.141-108.061,44.14-128.002c0,0,6.492-1.51,13.285-4.098
		c6.792-2.587,11.132-5.689,11.132-5.689c91.962-16.606,123.352,71.231,111.852,121.821
		C586.475,1280.149,490.42,1299.76,490.42,1299.76z M615.967,1424.552c0,0-8.425,10.861-1.763,18.894l-2.945,2.054
		c0,0-7.702-3.684-6.464-10.132C606.032,1428.92,609.671,1423.964,615.967,1424.552z M682.186,1429.681
		c0,0-5.026,10.753,2.646,26.08c0,0-20.432,3.384-51.026-4.556c0,0,11.476-9.515,7.003-22.849
		C640.809,1428.356,638.453,1424.113,682.186,1429.681z M697.517,1451.438c0,0-8.412-9.68-3.385-20.43
		C694.132,1431.009,707.435,1438.179,697.517,1451.438z M716.687,1386.743c16.282,22.906,38.146,10.976,38.146,10.976
		c0.41,4.695-6.942,28.995-14.807,45.198c-7.866,16.203-27.756,16.041-27.756,16.041c13.151-22.909-11.466-40.455-11.466-40.455
		L716.687,1386.743z M727.166,1378.829c0,0,16.928-6.676,21.443,3.909C748.609,1382.738,736.076,1387.708,727.166,1378.829z
		 M760.975,1368.225c0,0-13.471-16.715-44.578-3.317c0,0-29.587-30.074-7.676-44.757c0,0,8.984-5.513,13.635-3.173
		c0,0-4.921,14.149,5.681,18.528c10.602,4.378,17.985-2.133,17.985-2.133S761.652,1356.431,760.975,1368.225z M850.012,1253.733
		c-6.515,4.921-10.734,11.015-14.012,16.267c0.855,6.04-0.968,16.044-6.667,18.692c-7.013,3.258-15.4,0.08-18.735-7.099
		c-3.336-7.181-0.356-15.642,6.658-18.897c1.979-0.922,5.042-1.538,7.099-1.485c5.099-8.321,12.247-18.045,12.247-18.045
		C845.601,1246.548,850.012,1253.733,850.012,1253.733z M1017.015,1147.796c-3.285,62.367-48.084,102.224-144.823,74.767
		c0,0-41.94-36.103-48.906-74.862c-6.966-38.764,32.773-85.657,62.884-97.455c30.108-11.798,57.397-9.248,76.003,0.112
		c0,0,2.613,8.288,12.566,12.818C984.688,1067.704,1020.301,1085.428,1017.015,1147.796z"/>
</g>
<path fill="#F47F51" d="M963.49,900.602c80.144-8.679,263.368,163.294,263.368,163.294c14.871,1.793,17.805,11.921,19.644,15.996
	c1.839,4.076,10.857,8.841,21.498,6.329c10.64-2.512,14.657-9.555,23.965-1.979c5.196,4.23,4.675,13.263,4.083,21.38
	c-0.591,8.115,8.427,12.879,8.427,12.879s344.547,167.068,355.114,173.095c10.57,6.026,6.301,5.989,6.301,5.989
	s-2.519,4.277-5.734,9.847l62.94,21.26c10.931,0.302,16.903,7.747,16.903,7.747l-3.25,14.55c-8.859,1.38-14.356-1.373-14.356-1.373
	l-6.624-4.535l-63.962-22.922c-2.134,3.869-3.905,7.219-4.741,9.104c-3.08,6.948-4.211,5.17-4.211,5.17l-331.822-181.64
	c-2.562,7.371-7.807,11.695-7.807,11.695l284.316,245.265l-4.439,7.565c0,0-12.723,14.567-19.037,22.323
	c-6.314,7.753-11.846,9.267-11.846,9.267c-20.027-19.745-287.463-273.093-292.881-278.028c-8.887-8.097-16.162-6.044-19.011-5.163
	c-6.89,2.127-11.253,1.15-15.392-2.216c-4.133-3.368-4.904-10.87-2.819-22.93c2.083-12.061-9.001-18.506-9.001-18.506
	C990.325,952.111,963.49,900.602,963.49,900.602z M1518.129,1395.639c3.197,3.463,10.146,6.543,15.716,0.761
	c5.567-5.783,2.599-11.635-1.02-14.587c-3.619-2.944-8.922-3.825-14.167,0.506
	C1513.418,1386.645,1514.93,1392.176,1518.129,1395.639z M1478.932,1357.726c3.247,3.401,10.053,6.662,15.034,1.6
	c4.981-5.065,1.818-10.68-1.802-13.628c-3.617-2.946-8.727-4.066-13.479-0.336
	C1473.928,1349.089,1475.686,1354.321,1478.932,1357.726z M1453.541,1315.886c-2.362-3.22-7.628-6.839-12.086-3.463
	c-4.46,3.374-2.34,8.37,0.361,11.275c2.703,2.904,6.764,4.548,10.93,2.219C1456.911,1323.592,1455.907,1319.108,1453.541,1315.886z
	 M1406.162,1290.756c2.855,2.943,8.726,5.872,12.805,1.782c4.08-4.089,1.229-8.882-1.928-11.452
	c-3.159-2.57-7.527-3.656-11.452-0.68C1401.658,1283.385,1403.305,1287.813,1406.162,1290.756z M1381.212,1249.433
	c-2.321-2.423-7.159-4.771-10.657-1.229c-3.492,3.537-1.215,7.52,1.367,9.626c2.582,2.101,6.206,2.923,9.549,0.326
	C1384.814,1255.554,1383.533,1251.854,1381.212,1249.433z M1347.672,1219.96c-1.891-2.012-5.922-3.871-9.016-0.688
	c-3.096,3.18-1.299,6.543,0.822,8.27c2.123,1.729,5.176,2.315,8.108-0.05C1350.518,1225.128,1349.561,1221.972,1347.672,1219.96z
	 M1313.909,1193.847c-1.391-1.86-4.41-4.011-6.819-2.222c-2.41,1.791-1.113,4.645,0.459,6.336c1.575,1.689,3.877,2.705,6.146,1.494
	C1315.965,1198.245,1315.301,1195.709,1313.909,1193.847z M1609.924,1279.674c-2.771-3.811-9.317-7.68-15.52-2.58
	c-6.202,5.096-3.938,11.258-0.681,14.604c3.25,3.346,8.417,4.835,14.126,1.145
	C1613.56,1289.154,1612.698,1283.483,1609.924,1279.674z M1560.428,1257.08c-2.555-3.48-8.513-7.06-14.043-2.537
	c-5.531,4.524-3.402,10.118-0.422,13.186c2.979,3.067,7.662,4.479,12.767,1.221
	C1563.834,1265.691,1562.984,1260.559,1560.428,1257.08z M1513.696,1232.844c-2.407-3.262-7.976-6.649-13.058-2.512
	c-5.083,4.141-3.049,9.358-0.249,12.241c2.798,2.879,7.159,4.245,11.86,1.272C1516.951,1240.877,1516.106,1236.1,1513.696,1232.844z
	 M1460.098,1221.45c3.209,1.798,9.105,2.427,11.828-3.156c2.723-5.582-0.896-9.197-4.291-10.516
	c-3.395-1.318-7.537-0.711-10.373,3.722C1454.43,1215.931,1456.89,1219.652,1460.098,1221.45z M1376.352,1175.821
	c1.48,2.46,5.256,5.142,9.325,2.343c4.069-2.8,3.033-6.665,1.235-8.868c-1.794-2.2-4.861-3.362-8.553-1.396
	C1374.666,1169.863,1374.873,1173.361,1376.352,1175.821z M1417.119,1198.68c2.322,2.421,7.163,4.766,10.657,1.224
	c3.498-3.538,1.219-7.521-1.363-9.624c-2.581-2.102-6.208-2.927-9.55-0.324C1413.52,1192.554,1414.797,1196.255,1417.119,1198.68z
	 M1340.732,1156.714c1.879,1.37,5.458,2.412,7.373-0.35c1.926-2.759-0.127-5.182-2.145-6.308c-2.016-1.125-4.576-1.279-6.513,0.831
	C1337.512,1153.001,1338.849,1155.345,1340.732,1156.714z"/>
<path fill="#F47F51" d="M1544.568,142.954c0.623-28.783-22.946-52.639-52.649-53.281c-6.862-0.15-13.443,0.966-19.524,3.108h-0.002
	c-6.847,1.925-8.568-5.086-8.568-5.086l0,0c-5.274-23.74-26.204-41.816-51.571-42.457c-14.306-0.362-27.396,4.896-37.198,13.748
	c-0.012,0.008-0.023,0.016-0.033,0.024c-6.052,4.721-10.155-1.16-10.304-1.377c-0.002-0.002-0.002-0.002-0.002-0.002
	c-0.002-0.004-0.006-0.01-0.006-0.01l0,0c-7.174-10.59-18.08-18.702-31.396-22.102c-24.363-6.216-48.952,5.33-60.273,26.514
	c-0.011,0.016-0.021,0.028-0.031,0.044c-3.521,5.157-7.132,5.576-9.705,4.882c-1.176-0.694-2.371-1.364-3.608-1.974l-0.002-0.002
	l0,0c-3.45-1.703-7.137-3.073-11.029-4.052c-28.812-7.24-57.855,9.527-64.873,37.448c-7.015,27.92,10.651,56.426,39.464,63.667
	c13.135,3.3,26.313,1.598,37.436-3.865c6.902,0.891,9.106,4.415,10.347,7.477c1.516,3.735-2.908,22.576-12.578,18.486
	c-10.504-4.443-14.133-7.455-17.449,2.189c-2.115,6.146,15.379,13.171,15.379,13.171c100.13,35.69,165.465,26.332,193.721,22.569
	c28.254-3.76,18.793-19.667,7.921-17.6c-10.873,2.067-13.475-4.843-13.426-16.438c0.031-7.062,5.769-7.927,10.256-7.526
	c9.245,8.072,21.394,13.104,34.801,13.396C1519.361,194.548,1543.943,171.736,1544.568,142.954z M1266.806,91.507
	c5.306,6.55,5.387,19.832,5.387,19.832c-0.091,2.305-0.418,4.634-1.002,6.956c-4.702,18.715-24.17,29.953-43.481,25.101
	c-19.311-4.853-31.152-23.958-26.45-42.673c4.704-18.715,24.17-29.953,43.482-25.103
	C1254.289,78.021,1262.008,83.909,1266.806,91.507z M1303.452,137.184c0.753,0.228,4.477,0.852,5.245,1.048
	c12.233,3.123,24.52,1.76,35.159-3.045l0.002,0.002c0.008-0.006,0.018-0.01,0.026-0.015c1.45-0.656,2.87-1.37,4.253-2.15
	c11.991-5.12,21.596-1.066,27.11,2.692c9.443,9.146,22.201,14.922,36.334,15.28c2.168,0.054,4.308-0.028,6.412-0.225
	c8.764,6.101,7.242,14.688,5.513,25.342c-2.964,18.267-18.386,35.362-69.824,31.457c-51.439-3.903-61.297-29.458-60.831-46.539
	C1293.14,150.487,1299.115,140.39,1303.452,137.184z M1358.628,87.408c0.313,5.024-1.092,8.242-1.092,8.242
	c-4.888,18.96-24.66,30.319-44.277,25.389c-11.768-2.957-20.811-11.105-25.163-21.255c-0.546-2.163-1.229-4.282-2.046-6.352
	c-1.123-5.11-1.113-10.522,0.238-15.905c4.796-19.082,24.645-30.542,44.335-25.595C1347.543,56.185,1358.826,71.167,1358.628,87.408
	z M1409.359,132.971c-20.205-0.439-36.254-16.596-35.979-36.145l0.67-6.317c3.334-16.717,18.688-29.164,36.851-28.77
	c20.295,0.442,36.405,16.747,35.981,36.414C1446.455,117.822,1429.656,133.411,1409.359,132.971z M1490.435,173.749
	c-19.906-0.432-35.705-16.42-35.286-35.714c0.073-3.499,0.685-6.863,1.742-10.028c1.165-4.521,4.528-8.925,4.528-8.925
	c6.642-9.403,17.89-15.473,30.531-15.199c19.905,0.431,35.705,16.422,35.287,35.714S1510.342,174.18,1490.435,173.749z"/>
<path fill="#F47F51" d="M1035.316,384.541l6.416-24.198l-12.902-28.086c0,0-14.979-3.971-35.144-9.317
	c-20.164-5.347-25.439,9.904-25.439,9.904c-9.219-2.443-16.001,6.857-16.001,6.857l-3.208,12.099l-16.709-4.43l0.611-2.306
	l-21.891-5.804c2.138-8.065-12.42-11.309-12.42-11.309S721.14,280.895,635.917,258.3c-22.848-14.998-20.98-39.478-20.98-39.478
	s-2.254-4.297-5.711-5.214c-3.457-0.916-6.389,2.006-6.389,2.006l-8.4,31.688c-1.453-0.385-2.436-0.646-2.88-0.764
	c-10.371-2.75-16.66,2.366-16.66,2.366l-27.654-7.332l-4.658-8.018l2.138-8.067l-14.477-29.119c0,0-4.033-1.069-16.131-4.277
	c-14.402-3.819-16.389,3.67-16.389,3.67l-9.623,36.296l-4.609-1.222l-11.914,44.938l-5.186-1.375l-1.222,4.609l-27.077-7.18
	c0,0-3.418,1.321-8.842,15.846l-5.968-1.582l1.3-4.896l-4.968-1.317l-1.298,4.897l-1.947-0.517l1.299-4.897l-4.967-1.316
	l-1.299,4.896l-1.946-0.516l1.299-4.897l-4.967-1.317l-1.299,4.897l-1.946-0.517l1.298-4.896l-4.967-1.317l-1.298,4.897
	l-54.73-14.511c0,0-5.644,0.353-10.837,19.941c-5.193,19.589,0.22,20.1,0.22,20.1l54.731,14.511l-1.223,4.608l4.968,1.317
	l1.222-4.609l1.946,0.516l-1.222,4.608l4.968,1.317l1.221-4.608l1.947,0.516l-1.223,4.609l4.967,1.316l1.223-4.608l1.947,0.517
	l-1.223,4.608l4.967,1.317l1.221-4.609l5.894,1.563c-2.653,15.842-0.173,18.452-0.173,18.452l27.078,7.18l-0.764,2.879
	l66.831,17.718l18.743,36.289l-16.072,60.612c-9.623,36.295,18.748,41.506,18.748,41.506l70.864,18.788l52.361-12.015
	L606.423,706.78l-9.753,7.781c0,0,4.873,10.041,28.638,16.342c0.945,0.25,1.912,0.508,2.881,0.764l-63.542,239.664
	c-0.506,1.912,0.633,3.869,2.541,4.375l74.896,19.855c1.91,0.508,3.867-0.629,4.374-2.539l63.541-239.664
	c14.775,3.916,27.387,7.26,35.145,9.316c33.417,8.859,38.678-15.645,44.039-26.555c5.36-10.913,5.307-180.497,7.89-199.546
	c2.582-19.047,57.782-27.227,66.188-28.697c8.405-1.473,11.427-10.537,11.427-10.537l82.638-16.32l39.904,9.963l17.577-5.822
	l26.272-99.094L1035.316,384.541z M658.013,512.194l-52.477,12.447l-70.432-18.674c0,0-19.516-8.368-14.809-26.124l14.511-54.732
	l88.831,23.552c4.914,30.16-24.436,56.263-24.436,56.263l3.889,1.031c27.115-8.75,37.028-38.587,40.188-52.087l28.214,7.481
	L658.013,512.194z"/>
<g>
	<path fill="#F47F51" d="M316.238,1004.297c-1.409-5.186-140.959-518.663-143.138-528.787c-2.057-9.553-10.592-11.104-14.818-10.589
		l-75.375,9.182c-4.226,0.515-12.139,4.069-11.843,13.837c0.315,10.351-11.88,542.313-12.004,547.773
		c0.026,1.191,0.764,29.438,12.545,54.979c11.237,24.362,78.861,160.419,83.954,170.664l-36.433,195.831
		c-0.032,0.175-2.927,17.453,19.511,25.933c29.023,10.969,66.876,14.346,106.584,9.508c39.71-4.838,75.649-17.202,101.197-34.819
		c19.746-13.618,12.787-29.696,12.713-29.862l-82.38-181.354c2.485-11.168,35.467-159.48,40.527-185.828
		C322.586,1033.143,316.521,1005.545,316.238,1004.297z M274.562,1059.511c2.698-15.097-1.579-34.713-26.557-55.735
		c-54.562-45.922-51.589-61.428-35.018-86.469c20.769-31.381-16.413-81.533-57.468-52.049
		c-41.056,29.486-52.827,51.083-41.027,77.01c12.868,28.273,58.37,41.155,20.53,97.595c-11.012,16.426-15.882,29.188-17.321,39.225
		c-15.492,0.477-31.164,0.553-44.546-0.05c-7.679-21.871-8.246-43.413-8.25-43.544c0.053-2.281,4.262-228.992,7.779-388.964
		c6.246-0.081,15.781-0.67,24.183-1.248c-14.543,13.784-18.927,39.697-2.175,51.678c25.138,17.98,25.829,28.987,25.123,46.627
		c-0.995,24.868,36.688,34.961,69.255-44.133c14.762-35.852-14.196-33.196-1.798-65.265c7.711-1.374,16.603-3.001,22.33-4.339
		c41.819,154.45,100.333,373.519,100.91,375.633c0.048,0.215,4.671,21.265,2.467,44.34
		C301.503,1053.214,287.917,1056.542,274.562,1059.511z"/>
	<path fill="#F47F51" d="M223.464,758.207c-16.727-9.921-45.785-11.026-54.099,14.703c-5.249,16.242-9.085,52.113,14.613,67.12
		c29.446,18.647,31.974,4.403,45.165-27.145C242.335,781.34,232.225,763.404,223.464,758.207z"/>
</g>
<path fill="#F47F51" d="M826.838,745.535c0.107-0.379,0.42-0.664,0.807-0.738c3.869-0.74,7.992-1.287,11.979-1.814
	c3.055-0.402,6.211-0.82,9.221-1.322c3.947-3.018,7.509-6.578,10.955-10.023c2.941-2.941,5.981-5.98,9.276-8.703
	c3.208-6.125,8.832-9.807,14.271-13.367c3.68-2.41,7.485-4.904,10.39-8.096c0.106-0.119,0.238-0.209,0.386-0.27
	c3.071-1.227,5.976-2.773,8.786-4.273c5.967-3.184,12.136-6.473,19.774-6.473c1.484,0,3.009,0.123,4.532,0.369
	c0.081,0.014,0.163,0.035,0.239,0.068c1.592,0.676,3.369,1.59,5.25,2.559c4.461,2.293,17.226,7.914,19.469,8.393
	c0.666-0.439,1.491-0.605,2.236-0.756c1.089-0.217,1.527-0.369,1.686-0.645c-14.602-6.688-20.521-22.104-26.25-37.02
	c-1.85-4.812-3.76-9.785-5.929-14.367c-7.424-2.473-13.624-6.256-19.622-9.916c-6.594-4.025-13.408-8.186-21.799-10.516
	c-4.471,0.309-8.971,2.385-13.326,4.396c-5.234,2.414-10.66,4.902-16.043,4.318c-6.08-0.668-10.53-5.115-14.833-9.418
	c-1.884-1.883-3.663-3.662-5.526-5.074c-0.392-0.297-0.521-0.826-0.316-1.271c0.207-0.445,0.697-0.686,1.174-0.582
	c5.297,1.176,8.271,3.676,10.895,5.881c2.578,2.168,4.807,4.039,8.818,4.418c3.833,0.367,8.536-1.473,13.072-3.229
	c1.355-0.527,2.682-1.041,3.947-1.48c2.132-0.742,4.326-1.861,6.448-2.947c3.483-1.779,6.776-3.461,9.78-3.461
	c5.757,0.07,9.017,3.135,12.168,6.096c3.188,2.992,16.739,8.992,18.434,10.605c13.223,1.207,18.811,12.088,24.217,22.615
	c2.12,4.125,4.297,8.361,6.922,11.947c0.058-4.684,3.066-8.734,4.868-11.158c0.111-0.152,0.265-0.271,0.44-0.344
	c3.087-1.27,6.008-1.914,8.68-1.914c10.23,0,15.468,9.232,19.678,16.65c0.291,0.514,0.58,1.023,0.867,1.523
	c1.555-10.82-1.309-19.82-4.084-28.547c-2.261-7.104-4.598-14.451-4.359-22.492c0.248-8.326,1.152-15.87,2.026-23.164
	c0.882-7.364,1.716-14.32,1.944-22.073c0.014-0.471,0.342-0.874,0.8-0.985c5.554-1.33,9.494-4.18,13.663-7.199
	c1.32-0.953,2.681-1.939,4.088-2.861c1.344-2.035,1.77-5.238,2.184-8.337c0.635-4.767,1.291-9.697,5.236-11.679
	c0.314-0.158,0.686-0.146,0.99,0.027c0.303,0.175,0.5,0.49,0.521,0.842c0.383,6.12-0.916,10.598-2.172,14.926
	c-0.689,2.379-1.402,4.836-1.806,7.517c-0.042,0.276-0.193,0.523-0.417,0.688c-1.546,1.131-3.205,2.162-4.807,3.162
	c-3.863,2.408-7.518,4.686-9.88,8.262l-0.296,2.596c-1.641,14.313-3.062,26.688-2.07,43.502
	c8.967,12.598,11.541,35.463,12.666,51.928c0.217,0.109,0.388,0.24,0.523,0.352c5.505-4.383,7.555-11.758,9.723-19.551
	c1.233-4.441,2.511-9.035,4.494-12.99c4.31-8.6,10.16-14.893,16.963-18.266c-0.383-1.393,5.639-7.289,6.004-7.08
	c0.005,0.004,0.014,0.008,0.02,0.012c0.014-0.033,0.029-0.064,0.045-0.096c4.419-8.107,12.133-12.941,19.595-17.617
	c5.54-3.471,11.269-7.061,15.407-11.873c1.205-1.609,2.269-3.837,3.393-6.196c2.22-4.651,4.515-9.462,8.391-10.083
	c0.352-0.057,0.705,0.07,0.941,0.334c0.238,0.265,0.324,0.632,0.23,0.975c-5.248,19.152-19.615,29.141-32.744,36.971
	c-2.356,4.752-5.831,8.398-9.193,11.928c-3.451,3.621-6.709,7.041-8.925,11.6c-0.062,0.127-0.149,0.242-0.259,0.336
	c-0.911,0.781-1.953,1.387-2.963,1.971c-1.54,0.896-2.998,1.742-3.83,3.102c-0.605,9.65-4.08,18.988-7.442,28.021
	c-2.098,5.633-4.261,11.441-5.722,17.309c1.082,0.008,1.894,0.285,2.611,0.529c0.602,0.205,1.129,0.385,1.793,0.414
	c5.857-9.15,22.451-16.787,36.684-16.787c7.827,0,14.428,2.244,19.115,6.5c8.02,0.797,14.75,2.969,21.266,5.072
	c4.041,1.303,8.221,2.652,12.639,3.643c0.237,0.055,0.449,0.188,0.596,0.379c5.527,7.117,12.619,12.959,19.479,18.607
	c3.486,2.869,7.088,5.836,10.462,8.947c1.448,0.744,3.116,1.271,4.878,1.826c3.989,1.26,8.111,2.564,9.769,6.574
	c0.147,0.355,0.087,0.762-0.157,1.061c-0.242,0.297-0.629,0.441-1.008,0.365c-17.021-3.279-27.52-13.277-37.672-22.947
	c-2.525-2.406-5.135-4.893-7.804-7.23c-5.085-0.535-10.255-2.389-15.255-4.178c-4.025-1.445-8.186-2.936-12.288-3.738l-0.677-0.135
	c-8.195-1.605-14.698-2.879-21.441-6.127c-8.305,2.369-13.789,6.029-19.586,9.898c-1.658,1.105-3.369,2.248-5.159,3.365
	c-1.513,0.945-3.044,1.73-4.524,2.492c-2.443,1.258-4.772,2.455-6.867,4.25c1.379,0.402,2.982,0.129,4.68-0.23
	c1.448-0.309,2.971-0.625,4.649-0.504c10.003,0.734,18.915,6.424,27.534,11.926c4.367,2.785,8.492,5.418,12.498,7.211
	c0.301,0.135,0.521,0.408,0.592,0.73c0.15,0.682,0.542,1.168,0.995,1.734c0.774,0.963,1.722,2.146,1.485,4.402
	c3.885,3.117,8.232,5.859,12.443,8.516c7.453,4.701,15.161,9.562,20.6,16.682c2.133,2.791,3.496,6.154,4.813,9.408
	c1.188,2.934,2.313,5.705,3.95,8.094c2.057,3.004,4.357,5.725,6.585,8.354c3.503,4.139,6.815,8.051,9.243,12.963
	c1.099,0.75,2.266,1.471,3.398,2.17c5.074,3.135,10.319,6.379,11.884,13.387c0.091,0.41-0.073,0.838-0.419,1.084
	c-0.347,0.238-0.805,0.25-1.162,0.023c-19.494-12.383-33.994-29.238-43.098-50.104c-5.678-2.719-10.508-6.873-15.182-10.895
	c-5.502-4.734-10.699-9.205-16.864-11.105c-0.201-0.062-0.378-0.184-0.511-0.35c-3.366-4.23-7.41-8.281-12.35-12.379
	c-3.721-0.809-7.105-1.988-10.381-3.133c-6.014-2.1-11.695-4.08-19.52-4.08c-0.758,0-1.531,0.02-2.311,0.057
	c0.314,0.824,0.656,1.631,1.014,2.463c1.172,2.744-0.479,5-0.234,9.221c0.018,0.285-0.084,0.568-0.281,0.775
	c-1.219,1.295-0.492,1.189-2.47,1.135c-0.618-0.02-1.237-0.039-1.812-0.014c-0.313,0.041-0.605-0.109-0.812-0.334
	c-1.661-1.805-0.662-4.654-1.043-7.406c-0.627-4.531-2.587-7.322-6.125-7.365c-0.045,0.619,0.037,1.637,0.098,2.377
	c0.186,2.305,0.397,4.916-0.818,6.715c-0.096,0.143-0.227,0.26-0.381,0.34c-1.815,0.955-3.523,1.381-5.54,1.381
	c-1.116,0-2.28-0.131-3.478-0.303c-0.369,2.666-2.361,3.76-4.002,4.66c-0.828,0.455-1.617,0.887-2.166,1.475
	c0.967,3.119,0.414,6.484-1.557,9.322c-2.096,3.023-5.508,4.973-8.689,4.973c-2.941,0-5.401-1.592-6.93-4.482
	c-0.112-0.215-0.148-0.461-0.099-0.697c0.495-2.432,2.94,0.078,4.903-0.141c1.629-0.184,4.127-1.752,4.42-2.449
	c0.216-2.678-0.608-6.996-1.561-8.768c-0.42-0.775-2.24-0.176-2.58-1.084c-2.84,1.635-6.422,2.367-9.631,3.021
	c-1.381,0.283-2.699,0.553-3.793,0.869c0.062,2.693,0.44,5.51,0.839,8.475c0.861,6.418,1.754,13.053-0.771,18.607
	c3.566,10.957,7.732,26.945,3.939,41.164c1.185,3.518,5.539,17.664,1.385,24.393c-0.227,0.367-0.652,0.551-1.078,0.48
	c-0.422-0.078-0.756-0.408-0.838-0.83c-5.18-26.639-10.41-62.805-13.385-92.521c-16.146,4.621-17.564,18.652-19.199,34.838
	c-0.864,8.537-1.756,17.367-5.033,25.168c-0.33,13.609-3.113,31.809-5.578,42.086c-0.46,1.91-0.635,4.039-0.803,6.1
	c-0.405,4.957-0.824,10.086-5.221,12.799c-0.168,0.104-0.358,0.154-0.549,0.154c-0.159,0-0.32-0.037-0.467-0.111
	c-0.324-0.16-0.541-0.479-0.574-0.84c-0.582-6.428,0.568-12.551,1.682-18.479c1.18-6.283,2.4-12.785,1.496-19.572
	c-0.016-0.133-0.008-0.273,0.027-0.402c2.43-9.189,3.129-18.348,3.807-27.203c0.823-10.744,1.674-21.854,5.641-32.912
	c-3.069-13.439,4.672-26.883,22.414-38.951c-3.141-2.549-7.973-3.855-12.66-5.119c-1.948-0.529-3.965-1.072-5.825-1.701
	c-3.883-1.307-7.665-3.031-11.324-4.699c-3.634-1.654-7.388-3.365-11.256-4.678c-21.536,11.816-43.723,25.531-60.411,45.564
	c-0.209,0.25-0.521,0.402-0.849,0.375c-2.972-0.131-6.468,0.695-9.854,1.502c-3.242,0.77-6.596,1.566-9.627,1.566
	c-3.102,0-5.512-0.836-7.371-2.553C826.843,746.324,826.729,745.916,826.838,745.535z"/>
<path fill="#F47F51" d="M151.764,630.825c-2.283,13.185-4.987,28.8-20.393,21.057c-8.143-4.092-18.346-20.377-19.021-33.74
	c-1.107-21.905,10.284-28.589,26.71-22.832C151.095,599.529,154.047,617.64,151.764,630.825z"/>
<polygon fill="#F47F51" points="2521.203,675.215 2549.699,742.63 2477.048,735.102 2487.591,720.803 2432.804,680.407 
	2442.966,747.608 2460.778,744.914 2433.258,812.736 2387.209,756.04 2404.775,753.384 2394.598,686.08 2354.265,740.784 
	2368.766,751.476 2301.348,779.973 2308.878,707.319 2323.178,717.864 2363.57,663.076 2296.37,673.238 2299.063,691.05 
	2231.241,663.529 2287.938,617.48 2290.596,635.049 2357.898,624.872 2303.194,584.538 2292.504,599.038 2264.005,531.623 
	2336.658,539.15 2326.114,553.449 2380.902,593.846 2370.74,526.643 2352.928,529.337 2380.447,461.516 2426.498,518.211 
	2408.929,520.867 2419.106,588.172 2459.442,533.467 2444.94,522.775 2512.357,494.279 2504.828,566.932 2490.529,556.388 
	2450.134,611.176 2517.337,601.013 2514.643,583.2 2582.464,610.72 2525.769,656.769 2523.111,639.202 2455.806,649.379 
	2510.51,689.713 "/>
<path fill="#F47F51" d="M1190.811,833.766c17.777-1.334,36.836,0,36.836,0c3.811-5.082,73.668-7.621,82.559-8.891
	c8.893-1.268,55.887-10.162,67.318-12.701c11.43-2.539,15.24-16.512,25.404-25.402c10.16-8.893,35.562-55.889,40.643-71.129
	c5.082-15.242,13.973-29.213,13.973-29.213c-15.242-15.242-31.754-20.324-38.105-21.592c-6.352-1.271-21.592,1.268-21.592,1.268
	s-13.971,3.811-26.674,5.082c-12.701,1.271-24.133-22.863-24.133-22.863c-5.082-1.27-17.088-15.85-15.242-19.053
	c1.846-3.201,16.514-29.213,22.863-39.375s13.449-27.236,19.053-33.657c12.443-14.263,29.215-27.31,29.215-27.31
	s-3.811-8.89-11.432-22.863c-7.621-13.973-10.162-30.483-10.162-30.483l26.672,12.702c0,0,13.973,2.54,29.215,13.971
	c15.242,11.432,25.402,16.513,25.402,16.513s29.213,7.621,45.727,33.023c16.512,25.403,55.885,69.86,82.559,86.372
	c26.672,16.51,46.996,40.645,71.129,36.834c24.131-3.811,40.645,5.08,50.805,10.16s48.268,2.541,48.268,2.541
	c83.83,7.621,214.654,82.561,234.977,96.531s21.592,7.621,21.592,7.621c85.1-69.859,72.398-232.438,73.67-256.57
	c1.27-24.133,34.293-96.532,59.695-116.855s34.295,0,34.295,0c-38.105,40.644-46.994,80.02-44.455,160.038
	c2.539,80.02-25.402,170.201-36.834,195.605c-11.432,25.402-31.754,67.316-36.836,80.018c-5.08,12.703-6.35,29.213-6.35,29.213
	c13.078,34.957,11.174,56.867,11.174,56.867c5.08,3.811-1.014,37.125-1.014,37.125c6.729,14.316-6.984,60.65-6.984,60.65
	l5.08,36.832c8.256,19.369,8.258,39.693,17.146,49.855c8.891,10.16,11.432,20.322,11.432,20.322
	c-6.352,6.352-10.16,22.863-15.242,55.887c-5.08,33.023-20.32,55.885-20.32,69.857c0,13.975-8.893,33.023-12.703,45.727
	c-3.811,12.701-15.242,15.242-15.242,15.242c-11.43,11.43-22.861,12.699-27.943,7.619c-5.08-5.078-8.889-6.352-11.432-10.162
	c-2.541-3.811,0-19.051,0-19.051c-5.08-6.354,1.271-15.242,10.164-25.402c8.891-10.162,8.889-24.135,16.51-34.295
	s16.512-55.887,15.242-72.398c-1.271-16.512-22.863-41.914-24.133-48.266c-1.268-6.35-29.213-43.186-29.213-43.186
	c-1.271,7.621,0,35.564,3.809,43.186c3.811,7.621,11.432,20.322,6.354,29.213c-5.08,8.893-38.105,85.102-41.916,101.611
	c-3.811,16.512-11.432,57.156-34.293,64.777c-22.863,7.621-43.186-10.16-44.457-16.51s10.162-24.133,27.943-26.674
	c17.781-2.539,12.703-17.783,15.242-29.215s12.703-55.885,13.971-63.506c1.27-7.621,2.543-29.213,2.543-29.213
	c-5.08-6.35-7.621-6.352-16.514-33.025c-8.891-26.674-46.996-129.555-44.455-153.688c2.543-24.131-8.891-33.023-8.891-33.023
	c-13.971-1.271-49.537-24.133-66.049-29.213c-36.289-11.17-136.129-23.484-148.607-25.402c-33.025-5.08-73.668-7.621-73.668-7.621
	c-19.051,22.861-41.914,26.672-48.266,33.023c-6.354,6.35-43.186,26.672-46.994,31.754c-3.811,5.08-40.646,24.131-48.268,27.941
	s-25.402,13.973-30.484,17.783c-5.08,3.811-12.324,7.646-12.324,7.646l-5.457-1.297c-7.621,6.352-29.213,12.703-35.564,12.703
	s-53.346-29.215-57.156-35.564c-3.811-6.352-5.08-22.863,11.432-25.402c16.51-2.541,29.215,16.51,29.215,16.51l10.16,5.082
	c12.701-5.082,39.375-12.703,39.375-12.703s11.432-6.35,13.971-10.16s39.375-35.564,54.617-49.535s12.699-27.945,12.699-27.945
	c-59.697,22.863-185.439,13.975-196.871,12.703s-27.945,2.539-33.023,3.811c-5.082,1.271-21.594-3.811-29.215-3.811
	s-27.941,1.271-36.834,2.539c-8.891,1.27-22.863-1.268-27.943-5.078c-5.082-3.811-21.592-11.432-27.941-21.594
	c-6.354-10.164,5.078-24.133,20.32-26.674c0,0,19.111,1.615,25.779,3.52C1162.293,835.381,1186.941,834.057,1190.811,833.766z"/>
<path fill="#F47F51" d="M1185.586,1239.758c-68.404-5.777-128.758,45.178-134.535,113.582
	c-5.776,68.406,45.178,128.758,113.582,134.535c68.407,5.777,128.758-45.176,134.535-113.582
	C1304.945,1305.889,1253.993,1245.535,1185.586,1239.758z M1153.939,1460.016c-17.195-3.77-32.579-11.992-45.015-23.309
	l50.59-42.711L1153.939,1460.016z M1185.422,1396.184l42.711,50.59c-14.154,9.072-30.7,14.598-48.285,15.432L1185.422,1396.184z
	 M1076.959,1355.527c4.199-49.73,44.857-87.795,93.413-90.1l-7.763,91.928l-70.457,59.484
	C1080.871,1399.232,1075.067,1377.928,1076.959,1355.527z M1248,1430l-59.483-70.455l7.763-91.93
	c47.484,10.416,81.181,54.76,76.98,104.49C1271.369,1394.506,1262.076,1414.535,1248,1430z"/>
<path fill="#F47F51" d="M912.908,1401.926c-5.361-9.149-15.285-14.833-25.901-14.833c-5.301,0-10.534,1.424-15.133,4.118
	c-11.284,6.61-17.027,20.04-14.038,32.741c-0.034,0.197-0.032,0.433,0.036,0.711c0.224,0.899-0.23,1.575-0.34,1.723l-71.206,41.716
	c-0.128,0.075-0.237,0.178-0.321,0.3c-0.106,0.156-2.581,3.872-0.232,7.882c1.865,3.185,5.003,3.438,6.217,3.465l4.194,7.159
	c0.134,0.229,0.354,0.395,0.61,0.462c0.083,0.021,0.168,0.032,0.253,0.032c0.176,0,0.351-0.047,0.505-0.137l12.569-7.364
	c0.477-0.279,0.637-0.893,0.357-1.369l-3.919-6.69c-0.028-0.114-0.001-0.181,0.213-0.306l57.545-33.715
	c0.33-0.019,1.026,0.025,1.566,0.533c5.568,5.544,13.288,8.724,21.179,8.724c0.001,0,0.001,0,0.001,0
	c5.299,0,10.53-1.424,15.128-4.117C916.459,1434.601,921.266,1416.193,912.908,1401.926z M870.563,1412.784
	c1.149-4.399,3.943-8.088,7.866-10.386c2.611-1.53,5.58-2.338,8.587-2.338c6.026,0,11.661,3.226,14.705,8.42
	c4.745,8.099,2.016,18.547-6.082,23.291c-2.611,1.53-5.581,2.338-8.588,2.338c-6.027,0-11.662-3.226-14.706-8.42
	C870.047,1421.767,869.414,1417.184,870.563,1412.784z"/>
<path fill="#F47F51" d="M1219.863,400.494l-54.496,151.562c-4.783-5.686-11.443-10.426-19.463-13.307
	c-20.293-7.293-41.5,0.031-47.375,16.369c-5.875,16.332,5.811,35.484,26.1,42.789c20.287,7.293,41.496-0.035,47.371-16.369
	c0.373-1.049,0.68-2.109,0.916-3.176l0.107,0.314l36.383-101.135l57.094,53.932l-28.082,78.098
	c-4.771-5.68-11.443-10.414-19.461-13.301c-20.281-7.293-41.492,0.031-47.367,16.363c-5.877,16.338,5.812,35.49,26.1,42.783
	c19.031,6.85,38.877,0.818,46.109-13.436l0.236-0.066l59.006-164.1L1219.863,400.494z M1218.199,453.062l5.953-16.551l57.104,53.938
	l-6.057,16.85L1218.199,453.062z"/>
<path fill="#F47F51" d="M2026.971,374.538c-5.943-7.412-13.567-24.789-16.029-30.568l0.108-0.971l-0.555-0.093
	c-0.232-0.55-0.357-0.866-0.357-0.866l-0.404,0.747L1995,340.369l-17.038,154.198c-5.973-4.418-13.568-7.472-22.041-8.414
	c-21.453-2.369-40.391,9.711-42.298,26.98c-1.905,17.273,13.935,33.197,35.384,35.569c21.449,2.37,40.383-9.706,42.292-26.987
	c0.124-1.105,0.177-2.205,0.147-3.299l0.189,0.273l11.812-106.934l1.51-13.662c62.004,36.682,26.004,97.377,26.004,97.377
	C2099.528,447.902,2034.148,383.497,2026.971,374.538z"/>
<path fill="#F47F51" d="M1852.26,149.082l0.225,0.097l-33.535-69.223l-8.116-16.749l-5.482-11.329l-7.97-16.434l-10.715,4.514
	l48.353,99.822c-5.29-0.403-11.052,0.634-16.538,3.293c-13.885,6.724-20.752,21.24-15.333,32.425
	c5.409,11.176,21.06,14.789,34.944,8.062c13.881-6.725,20.752-21.244,15.336-32.422
	C1853.079,150.418,1852.688,149.738,1852.26,149.082z"/>
<path fill="#F47F51" d="M472.475,921.595c47.627-13.616,58.615-60.62,55.828-83.448c-2.789-22.84-28.613-52.604-65.124-53.524
	l-2.405-35.422c12.158-10.137,47.998-42.112,58.76-75.169c13.031-40.02-1.381-68.252-9.598-82.197c0,0-47.393,1.92-66.688,65.868
	c-9.775,32.404-4.052,70.437-4.052,70.437s-69.108,42.21-77.161,94.24c-7.744,50.033,34.983,105.564,90.562,102.587
	c2.384,17.638,4.829,48.017-5.294,54.987c-10.137,6.982-18.49,1.111-18.49,1.111c5.701-3.059,10.969-11.023,10.023-23.729
	c-0.943-12.704-13.646-20.867-26.947-21.508c-15.071-0.725-23.066,12.177-25.361,23.881c-3.533,18.043,15.426,53.38,53.377,44.764
	c40.858-9.271,34.688-51.635,34.688-51.635L472.475,921.595z M501.123,849.057c2.492,14.444-5.041,44.248-30.127,50.777
	l-5.26-77.477C489.086,824.386,498.671,834.807,501.123,849.057z M496.131,624.931c19.539,55.576-35.441,85.808-35.441,85.808
	C452.913,641.51,496.131,624.931,496.131,624.931z M388.888,850.543c-3.871-34.49,28.963-71.176,52.878-84.141l1.27,20.998
	c-34.324,11.732-49.119,58.82-16.408,77.396c0,0-1.121-31.995,18.623-40.647l4.616,76.474
	C420.776,897.587,392.318,881.068,388.888,850.543z"/>
<g>
	<path fill="#F47F51" d="M735.866,229.504l10.796,24.715c10.088-4.602,15.869-13.633,12.929-20.362
		C756.652,227.125,746.099,225.229,735.866,229.504z"/>
	<path fill="#F47F51" d="M743.034,200.051c-2.939-6.731-13.493-8.628-23.726-4.352l10.795,24.714
		C740.194,215.812,745.974,206.781,743.034,200.051z"/>
	<path fill="#F47F51" d="M726.477,166.245c-2.941-6.73-13.493-8.628-23.726-4.351l10.795,24.712
		C723.635,182.005,729.417,172.976,726.477,166.245z"/>
	<path fill="#F47F51" d="M709.92,132.438c-2.941-6.73-13.495-8.626-23.728-4.351l10.797,24.713
		C707.078,148.199,712.857,139.169,709.92,132.438z"/>
	<path fill="#F47F51" d="M693.361,98.633c-2.939-6.732-13.491-8.627-23.723-4.351l10.792,24.712
		C690.521,114.394,696.302,105.363,693.361,98.633z"/>
	<path fill="#F47F51" d="M676.805,64.826c-2.94-6.732-13.495-8.627-23.726-4.352l10.795,24.715
		C673.963,80.587,679.743,71.558,676.805,64.826z"/>
	<path fill="#F47F51" d="M681.041,58.804l-5.205,2.858l2.406,4.381l4.988-2.738l14.284,29.348l-5.121,2.814l2.407,4.384l4.906-2.693
		l14.284,29.348l-5.041,2.768l2.407,4.384l4.823-2.651l14.283,29.351l-4.956,2.723l2.405,4.381l4.742-2.603l14.286,29.349
		l-4.879,2.678l2.409,4.383l4.66-2.56l14.282,29.351l-4.793,2.631l2.408,4.384l4.578-2.513l14.263,29.308
		c0,0,2.59,7.99,10.296,9.844c7.704,1.853,12.805-5.937,12.805-5.937c20.576-36.241,50.452-39.174,56.054-39.402l0.047-0.195
		l0.969-0.178l1.622,0.403l0,0l3.678,0.917l0.626,0.157l0,0l45.692,11.389l0.442,0.109l0,0l78.425,19.547l0.252,0.062l0,0
		l33.997,8.473l0,0l1.897,0.473l97.177,24.219l0,0l2.663,0.664l26.477,6.598l0,0l1.932,0.483l52.665,13.125l1.734,0.433l0,0
		l44.682,11.136l0,0l0.49,0.123l61.674,15.371l0,0l2.723,0.678l16.888,4.207l1.753,0.44l0,0l14.574,3.63l0,0l2.366,0.591
		l30.627,7.633l1.973,0.492l0,0l11.21,2.794l2.386,0.593l0,0l5.364,1.337l-0.071,0.294c0,0,25.046,7.048,21.494,43.22
		l517.71,306.477c0,0,12.629,8.451,21.074,3.279c8.445-5.173,5.685-20.477,5.685-20.477L1788.534,451.61
		c0,0-17.16-18.854-13.184-35.398c3.976-16.543,27.672-25.488,27.672-25.488l274.312-134.392c0,0,7.713-13.832,3.651-20.465
		c-4.062-6.633-19.905-6.043-19.905-6.043l-600.441,37.699c-13.272,33.836-38.788,28.731-38.788,28.731l-0.071,0.293l-6.253-1.45
		l-2.054-0.476l0,0l-11.744-2.718l-1.909-0.444l0,0l-31.227-7.229l-0.956-0.22l0,0l-15.561-3.604l-1.993-0.462v0.001l-17.348-4.018
		l-1.181-0.274l0,0l-15.608-3.612l0,0l-2.921-0.677l0,0l-40.962-9.486l0,0l-0.088-0.02l-24.75-5.731l-1.489-0.344l0,0l-21.923-5.077
		l-2.458-0.569l0,0l-23.781-5.505l-1.573-0.366l-0.001,0.002l-25.358-5.874l0,0l-1.708-0.395l-27.548-6.381l0,0l-2.354-0.543
		l-29.83-6.907l0,0l-0.303-0.071l-32.69-7.57l-2.108-0.488l0,0l-32.187-7.453l0,0l-2.704-0.625l-34.713-8.037l-2.563-0.595l0,0
		l-35.11-8.13l0,0l-0.986-0.228l-39.973-9.255l0,0l-2.923-0.677l0,0l-43.398-10.047l0,0l-5.949-1.38c0,0-0.296-0.143-0.82-0.44
		l-0.044,0.195L684.866,24.856c0,0-9.904-8.04-15.33-4.721c-5.422,3.322-0.347,14.322-0.347,14.322L681.041,58.804z"/>
</g>
<g>
	<path fill="#F47F51" d="M1823.979,1429.802c0,0,4.021,26.795,5.135,35.46c1.114,8.664,1.33,19.112,0.277,31.314
		c0,0-6.116,14.745-5.791,19.617c0.324,4.869-3.627,7.508-5.733,10.307c-2.105,2.797-10.794,12.851-10.776,16.951
		c0.021,4.1,9.358,3.787,13.427,4.139c4.067,0.352,13.986,1.951,16.396-0.074c2.41-2.027-0.133-7.09,2.551-7.975
		c2.685-0.887,2.721,7.311,9.116,2.276c6.395-5.036,14.959-13.61,14.959-13.61s5.558-3.99-1.548-7.955
		c-7.11-3.967-6.662-9.145-7.274-10.687c-0.612-1.544-3.237-9.964-1.119-17.231c2.116-7.269,2.494-20.275,15.284-30.345
		c0,0,30.288,2.987,42.471-0.06c0,0,3.634,1.059,7.063,8.805c3.429,7.746,8.324,20.091,5.722,24.336
		c-2.601,4.245-3.609,11.608-3.609,11.608l-26.441,30.127c0,0-4.336,7.075,2.498,9.901c6.834,2.824,19.068,3.507,21.267-0.4
		c2.201-3.908,11.18-17.287,14.73-19.59c3.551-2.3,4.979-5.902,5.892-12.156s1.602-9.92,13.027-17.129
		c11.425-7.209,7.447-17.238,6.224-20.324c-1.224-3.084-1.229-11.652,2.666-4.984c3.895,6.67,5.105,14.224,6.265,18.049
		c1.16,3.825-0.403,21.943-0.659,24.901c-0.255,2.958-0.446,5.177-1.378,7.331c-0.931,2.154-4.751,11.883-4.395,16.385
		c0,0-3.099,5.693-6.587,7.254c-3.487,1.562-10.251,6.564-8.32,10.084c1.932,3.521,9.568,5.67,13.636,6.021
		s11.366,2.098,18.272-8.854c6.905-10.952,8.416-11.193,8.123-16.433c-0.292-5.241,3.02-23.363,4.39-24.954
		c5.382-6.239,2.646-9.085,0.628-24.531c-2.02-15.448-3.103-24.481-0.418-25.366c2.684-0.887,4.984,2.664,6.304,4.641
		c1.32,1.977,5.808,6.09,5.552,9.047c-0.254,2.959-0.848,5.516,0.473,7.492c1.318,1.977,3.587,5.896,3.429,7.746
		c-0.16,1.848,1.209,7.555,3.007,3.986c1.799-3.572,8.881-16.008,1.145-21.881c-6.643-5.044-12.966-13.785-14.68-28.462
		L1823.979,1429.802z"/>
	<path fill="#F47F51" d="M1823.509,1422.311c-9.159-19.043-19.099-24.744-19.099-24.744c-13.655,11.486-21.74,14.514-35.473,9.604
		c-13.731-4.91-7.231-24.092-3.763-29.754c3.469-5.66,4.253-10.436,5.904-16.625c1.652-6.19,1.825-12.508,6.403-18.073
		c4.577-5.565,0.058-9.308-1.969-11.718c-2.027-2.41-4.251-11.17-3.453-20.414c0.799-9.244,9.507-15.197,9.507-15.197
		c4.087,4.449,6.891,15.123,8.356,19.719c1.465,4.598,4.506,8.213,6.418,7.633c1.913-0.58,1.799-3.57,1.041-7.732
		c-0.759-4.164,13.104-22.338,13.104-22.338c4.327,5.961,10.722,22.531,7.8,30.475c-2.921,7.942,3.237,9.965,3.237,9.965
		s22.605,5.676,34.946,22.387c20.353,27.561,40.959,21.789,78.248,12.715s51.684,1.108,63.477,15.537
		c11.792,14.428-0.868,53.195-0.868,53.195L1823.509,1422.311z M1842.278,1395.91l-12.844-1.109l9.738,8.445l-5.022,11.873
		l11.04-6.652l9.74,8.445l-2.915-12.557l11.043-6.652l-12.843-1.108l-2.916-12.557L1842.278,1395.91z M1885.171,1399.611
		l-12.844-1.107l9.738,8.445l-5.023,11.872l11.042-6.652l9.737,8.446l-2.914-12.558l11.042-6.651l-12.842-1.109l-2.915-12.557
		L1885.171,1399.611z M1928.062,1403.314l-12.844-1.108l9.739,8.446l-5.022,11.871l11.04-6.652l9.74,8.446l-2.914-12.558
		l11.041-6.651L1936,1404l-2.917-12.557L1928.062,1403.314z M1970.954,1407.018l-12.844-1.109l9.739,8.445l-5.023,11.873
		l11.041-6.652l9.738,8.445l-2.914-12.557l11.044-6.652l-12.845-1.108l-2.915-12.556L1970.954,1407.018z"/>
</g>
<g>
	<path fill="#F47F51" d="M1508.779,1064.808c7.116,31.641,11.756,52.272,14.104,62.715l1.875,8.338l8.156,36.267
		c0.698,3.105,3.559,5.107,6.39,4.47l40.299-9.062c2.831-0.637,4.56-3.671,3.861-6.776l-8.156-36.266l0.078-0.018
		c-0.124-2.505,1.563-4.809,4.094-5.377l55.146-12.402c2.528-0.568,5.041,0.79,6.002,3.105l0.077-0.017l8.156,36.267
		c0.698,3.105,3.56,5.106,6.391,4.471l40.299-9.063c2.83-0.637,4.559-3.671,3.86-6.776l-8.156-36.266l-1.875-8.338
		c-0.38-1.689-0.819-3.643-1.317-5.857c0.195-1.342,0.899-2.557,2.678-2.957c4.596-1.033,11.398,16.004,13.219,20.793
		c1.82,4.793,13.419,38.206,40.992,32.005c27.572-6.2,26.479-34.181,22.822-50.44l-22.978,5.168c0,0,7.237,17.312-1.954,19.38
		c-4.95,1.113-7.299-10.987-7.299-10.987l-17.654-79.326L1508.779,1064.808z"/>
	<path fill="#F47F51" d="M1767.32,1082.424c-0.55-2.44-2.974-3.974-5.413-3.425l-13.787,3.101c-2.44,0.549-3.975,2.973-3.425,5.412
		l0,0c0.548,2.439,2.972,3.973,5.412,3.424l13.787-3.101C1766.334,1087.286,1767.868,1084.863,1767.32,1082.424L1767.32,1082.424z"
		/>
	<path fill="#F47F51" d="M1716.499,1010.851l-209.27,47.064c-1.554-6.904-3.27-14.537-5.168-22.978
		c-15.9-70.699,89.528-90.696,89.528-90.696s103.841-27.067,119.741,43.632C1713.229,996.313,1714.945,1003.946,1716.499,1010.851z
		 M1549.678,1012.691l19.867-4.468l-18.699-8.064l1.89-20.274l-13.445,15.293l-18.7-8.064l10.39,17.514l-13.447,15.294l19.867-4.468
		l10.389,17.514L1549.678,1012.691z M1610.125,999.098l19.867-4.469l-18.699-8.064l1.89-20.274l-13.446,15.293l-18.699-8.063
		l10.39,17.514l-13.447,15.293l19.866-4.468l10.389,17.514L1610.125,999.098z M1670.572,985.503l19.868-4.469l-18.699-8.063
		l1.89-20.275l-13.446,15.293l-18.7-8.063l10.389,17.514l-13.446,15.294l19.867-4.469l10.389,17.514L1670.572,985.503z"/>
</g>
<path fill="#F47F51" d="M438.805,555.406c-0.752-24.026-29.103-63.89-86.488-57.944l-5.502-50.489
	c17.182,4.069,27.678,15.877,27.678,15.877l25.314-19.947c0,0-16.224-25.732-55.504-32.061c-0.482-0.078-0.965-0.141-1.448-0.205
	l-5.784-53.091l-32.617,7l5.971,52.531c-25.465,13.185-45.84,43.18-49.373,69.94c-3.579,27.115,20.064,43.93,62.469,45.269
	l7.171,63.081c-29.546-7.421-44.171-28.675-53.571-46.491l-36.778,16.01c0,0,19.825,58.042,94.369,65.841l5.645,49.665l31.417-4.37
	l-4.912-45.092C431.476,624.83,439.521,578.285,438.805,555.406z M297.072,479.791c0.492-10.381,8.351-19.112,17.627-25.115
	l5.55,48.831C308.146,503.669,296.16,499.06,297.072,479.791z M363.242,597.742l-7.283-66.844
	c50.207-2.669,44.993,20.222,45.486,30.145C402.18,575.812,397.09,594.924,363.242,597.742z"/>
<path fill="#F47F51" d="M827.104,937.412c-0.952,0.402-1.969,0.743-3.036,1.021l-11.379-71.545
	c13.455,2.1,24.226,10.717,24.226,10.717l8.013-17.859c-5.152-5.558-17.985-14.391-35.883-15.763l-5.049-31.749l-18.374,3.757
	l5.165,29.457c-22.566,6.969-37.756,40.941-29.591,73.147c6.484,25.575,26.277,39.325,49.517,40.457l4.686,26.716l15.82-2.38
	l-4.066-25.563c2.735-0.529,5.484-1.217,8.234-2.072c32.808-10.2,26.218-44.242,26.218-44.242l-19.003,0.444
	C842.668,921.004,839.434,932.191,827.104,937.412z M785.637,919.318c-5.789-16.948-6.595-42.705,9.264-50.41l12.123,69.12
	C797.838,935.543,789.096,929.442,785.637,919.318z"/>
<path fill-rule="evenodd" clip-rule="evenodd" fill="#F47F51" d="M2236.885,96.864c-3.604-12.742-2.463-24.837-0.57-36.181
	c5.14-12.445,18.507-8.991,29.361-5.035c3.012,9.446,0.993,26.716,8.977,32.883c-8.945,5.584,3.414,23.297-1.461,31.693
	c-4.45-2.119-4.82-7.075-10.467-5.976c-5.507,1.071-6.692,7.366-2.802,13.416c8.383-0.94,15.118,8.521,13.789,19.169
	c-0.692,5.551-6.259,7.429-5.108,11.706c0.451,1.679,6.846,4.786,7.887,7.042c0.495,1.075-0.176,3.45,0.223,6.126
	c0.753,5.051,3.653,13.067,3.249,17.309c-0.357,3.757-3.523,5.894-4.066,9.498c-1.446,9.577,5.228,23.738,12.944,22.716
	c5.426-0.717,5.496-9.639,13.641-9.547c1.839-5.391,4.532-10.146,6.621-15.352c-4.536-11.732-1.847-27.288,7.488-32.585
	c4.942-0.481,7.601-1.188,8.308-3.969c1.862-7.323-7.333-5.796-10.119-12.871c-2.231-5.67,0.712-8.388-1.512-14.829
	c2.145-3.468,3.774-7.69,3.57-12.846c-0.293-7.403-1.136-17.318-3.101-25.543c-0.727-3.041-2.873-5.845-2.729-9.176
	c0.112-2.555,3.223-8.542,4.44-11.605c2.779-6.996,7.494-14.069,18.599-13.02c8.237,0.779,9.9,8.598,10.713,16.889
	c0.741,7.573,4.737,18.819,4.44,25.344c-0.145,3.142-3.441,6.773-3.968,10.168c-0.422,2.714,0.854,5.338,0.521,8.134
	c-0.495,4.144-3.165,7.308-3.1,11.408c0.054,3.333,1.874,6.888,1.488,10.043c-0.402,3.281-3.851,6.047-4.737,9.597
	c-1.419,5.679-0.438,9.257,0.175,15.027c-3.679,6.71,0.378,12.995-0.942,21.353c-0.723,4.575-5.027,11.913-6.225,18.029
	c-0.976,4.983-4.893,10.486-4.042,14.284c0.929,4.144,5.438,4.927,6.646,7.911c2,4.935,2.43,14.69,3.175,21.427
	c0.283,2.57,0.94,7.778,0.719,9.474c-0.216,1.666-3.937,12.204-4.81,13.713c-2.648,4.577-7.174,4.803-8.953,8.854
	c-3.595,8.184,3.063,17.69,13.467,12.375c2.31-2.854,1.096-8.324,3.099-11.407c8.915,1.908,17.179,4.693,21.129,13.292
	c16.925,0.624,20.163,21.665,42.854,12.125c5.259-6.626,10.043-13.607,20.881-16.094c2.561-7.041,9.003-11.199,7.066-21.575
	c2.061-6.305,9.73-9.484,11.978-16.145c1.948-5.773-0.793-12.806,3.447-18.301c8.331-3.215,14.487-11.354,24.451-10.466
	c10.023,0.893,11.425,11.648,11.037,23.683c-2.029,3.23-5.384,3.632-7.242,6.547c-3.013,4.726-2.946,12.117-4.984,17.161
	c-1.247,3.089-6.777,10.304-10.365,13.168c-1.638,1.308-4.636,1.607-6.397,3.001c-5.86,4.633-6.822,11.397-16.79,11.382
	c-0.74,9.185-8.941,12.834-8.976,22.542c-1.936,1.942-4.935,3.093-7.539,4.539c-0.125,6.264-5.645,8.527-9.126,12.3
	c-0.579,10.298-10.217,13.876-9.25,25.32c-5.831,7.229-12.553,14.251-16.541,22.294c-2.641,5.324-2.757,10.288-7.589,13.442
	c-1.93,1.26-5.007,1.102-7.836,2.53c-2.797,1.411-4.581,5.175-7.24,6.546c-7.339,3.785-15.709,0.481-20.781-1.71
	c-2.904-1.255-5.36-4.981-9.599-4.737c-6.418,0.371-11.37,6.981-13.812,12.995c1.529,3.564,3.649,6.327,4.364,10.986
	c-1.049,4.464-6.655,5.78-10.39,8.382c-2.695,1.878-3.756,4.373-6.771,5.109c-6.216,1.52-11.043-2.965-16.863-2.976
	c-5.482-0.009-12.395,3.369-16.74,2.48c-3.563-0.729-5.217-4.743-9.322-7.514c-1.793-1.208-4.527-1.412-5.854-2.554
	c-5.604-4.82-6.177-11.453-12.895-13.144c-2.878-0.724-6.349,1.06-8.334-0.818c0.597-10.247-8.369-21.261-8.951-28.097
	c-0.309-3.601,3.282-7.332,1.76-11.209c-1.583-4.032-6.425-3.583-10.168-3.968c-9.087-4.352-11.229-15.362-16.021-24.997
	c-3.348-6.733-10.576-12.054-14.459-19.07c-3.443-6.225-5.668-15.569-8.158-22.74c-1.277-3.68-2.134-9.071-3.894-12.425
	c-1.352-2.574-4.708-3.708-6.349-5.902c-2.256-3.016-4.707-8.057-7.242-11.928c-3.022-4.617-6.116-9.324-6.67-12.697
	c-0.677-4.107,1.581-6.905-0.15-10.242c-3.6-6.94-17.791-6.048-15.227-19.641c-3.342-2.734-12.207-8.146-5.332-12.896
	c2.58-2.446,6.64,3.608,10.242-0.148c2.169-12.629-14.602-1.273-18.897-7.464c-5.734-19.606-8.137-44.92,16.342-42.11
	c0.782,6.066,6.232,8.125,8.11,13.168c1.331,3.578,0.143,7.735,1.785,12.052c2.302,6.043,11.391,11.336,14.459,19.071
	c1.65,4.158,0.303,8.109,3.224,12.523c-2.903,5.031-4.789,13.208-1.712,20.782c5.283,4.988,15.23-0.55,18.451-4.787
	c-0.517,7.368,4.61,10.677,6.87,14.036c2.354,3.5,2.347,6.445,3.868,7.639c10.215,8.01,12.638-7.572,21.204-9.3
	c5.557-14.754-4.698-25.832-13.666-32.189c-5.219-14.096-0.86-28.306-4.613-40.373c-1.939-6.238-5.188-11.704-2.009-18.178
	c2.496-2.041,5.834,0.062,7.836-2.53c3.859-9.123-4.361-10.96-7.736-15.275c-8.522-10.896-11.269-26.922-15.725-41.464
	c2.573-4.846,4.457-10.203,8.159-14.21c7.287-0.449,16.814-3.919,22.295-1.935c4.446,13.229,3.272,30.327,6.548,44.192
	c-4.142,4.72-6.169,13.797-1.687,25.567c0.947,2.485,4.313,4.299,5.978,8.01c4.921,10.98,3.057,27.803,5.828,34.718
	c1.553,3.876,6.42,5.775,6.845,9.25c0.421,3.446-2.96,5.137-3.397,9.399c-0.426,4.142,0.871,11.615,6.473,11.358
	c4.105-0.189,8.899-7.314,10.564-11.829c1.528-4.15,1.152-16.312-0.497-21.824c-0.9-3.008-4.213-5.014-5.307-8.109
	c-5.886-16.66-2.442-28.896,8.158-32.686c-3.896-5.083-7.499-6.915-9.351-12.3c-2.107-6.133,1.97-12.548,0.771-17.905
	c-0.822-3.664-5.438-5.187-6.077-8.679C2247.068,111.218,2238.885,103.939,2236.885,96.864z M2277.385,300.934
	c-1.6,5.805-16.128,16.172-15.102,22.766c1.277,8.206,14.286,3.565,15.103,14.184c3.476,0.155,7.472,1.999,10.911-0.247
	c1.908-8.986-6.659-10.117-10.316-14.21c0.75-6.199,6.095-8.986,11.233-11.928C2290.57,303.765,2285.574,298.405,2277.385,300.934z"
	/>
<path fill="#F47F51" d="M2496.5,980.93c-0.042-0.48-1.104-11.879-8.165-23.916c-6.49-11.066-15.292-18.695-16.946-20.076
	c-0.544-2.03-3.776-12.385-15.038-21.475c-21.999-17.754-39.159-20.609-41.493-20.926c-1.965-1.34-3.779-3.785-6.058-6.856
	c-4.467-6.021-10.585-14.267-23.385-22.228c-14.542-9.043-36.781-10.679-41.151-10.918c-1.016-3.147-6.245-15.617-28.481-30.041
	c-14.735-9.56-27.604-14.407-38.246-14.407c-6.967,0-10.99,2.136-12.641,3.274c-0.577-0.783-1.164-1.631-1.777-2.516
	c-5.745-8.296-14.427-20.833-43.958-20.833c-2.053,0-4.205,0.061-6.4,0.18c-39.413,2.15-42.923,45.183-43.23,52.313
	c-24.166,0.322-29.089,12.887-31.457,49.68c-1.041,16.179-2.593,31.38-8.185,69.566c-4.216,28.779,0.79,40.549,13.605,56.043
	c2.203,2.662,3.272,10.693,4.306,18.461c0.558,4.19,1.135,8.523,1.9,12.055c0.591,2.72,1.04,4.076,1.436,5.271
	c1.085,3.277,1.868,5.646,4.694,34.053c2.039,20.508,53.421,51.4,57.644,53.904c1.521,2.355,16.94,27.282,8.153,55.98
	c-9.335,30.484-16.602,176.91-16.967,184.382c-6.277,26.831-4.165,93.639-4.143,94.312l0.018,0.554l0.479,0.278
	c4.492,2.604,6.809,3.389,8.853,4.08c2.124,0.72,3.959,1.341,7.908,3.967c2.405,1.598,5.194,3.117,7.892,4.586
	c3.081,1.68,5.991,3.264,7.681,4.633c6.142,5.184,20.169,10.365,31.44,14.528c5.487,2.026,10.227,3.776,12.965,5.125
	c7.603,3.739,17.911,5.637,30.64,5.638c0.005,0,0.004,0,0.009,0c37.901,0,87.324-16.637,101.568-21.736l0.264-0.094
	c5.792-1.197,26.626-12.011,47.701-27.066c3.831-2.735,4.201-3.564,4.355-4.604c0.051-0.341,0.135-0.912,3.762-3.571l0.456-0.336
	l-13.396-143.474c-1.681-55.261-3.056-97.774-5.498-163.819c26.414-14.656,34.271-89.66,36.43-121.4
	c0.038-0.568,0.069-1.021,0.093-1.352C2486.099,1029.91,2498.206,1014.658,2496.5,980.93z M2184.909,978.197
	c-0.164-1.21,0.717-5.554,18.906-10.77c1.446-1.193,12.021-10.656,6.413-27.479c-3.643-1.521-27.693-12.656-20.548-38.48
	l1.945,0.076c0.222,1.138,5.703,27.848,30.541,27.848c4.145,0,8.657-0.763,13.414-2.266c12.803-4.047,20.665-5.753,25.868-6.883
	c10.128-2.197,10.523-2.283,19.759-13.651c7.887-9.707,11.095-19.29,8.372-25.009c-1.855-3.896-6.454-5.645-13.061-4.962
	c-1.88,0.194-4.016,0.293-6.347,0.293c-18.682,0-46.044-6.327-46.317-6.39l0.124-1.969l22.895-2.369
	c-0.303-3.848-1.039-17.701,3.164-26.283l1.288-2.629l0.59,2.868c0.044,0.214,4.263,20.648,7.046,26.961
	c2.454-0.669,9.957-2.513,18.009-2.513c9.992,0,16.969,2.811,20.738,8.354c8.025,11.808-0.608,25.815-6.912,36.042
	c-1.421,2.305-2.763,4.482-3.687,6.295c-7.257,14.242-30.841,18.383-48.061,21.406c-7.943,1.395-14.803,2.6-16.93,4.359
	c-1.459,1.206-6.831,13.756-3.81,22.15c1.766,4.904,6.133,7.391,12.979,7.39c4.214,0,9.384-0.948,15.368-2.818l1.306-0.407
	l-0.008,1.367c-0.001,0.1,0.004,9.914,4.914,15.617c3.483,4.045,6.058,5.213,9.039,6.566c1.344,0.609,2.733,1.239,4.281,2.168
	c2.294,1.377,5.353,2.074,9.09,2.074c4.95,0,10.124-1.213,13.806-2.316c0.037-7.031,0.186-17.289,0.316-26.377
	c0.114-7.949,0.223-15.457,0.246-19.926c0.046-8.523,3.854-16.174,7.538-23.572c1.962-3.938,3.814-7.66,5.016-11.346
	c0.816-2.505,1.598-5.229,2.426-8.112c2.758-9.613,5.61-19.555,10.551-24.619c1.556-1.595,2.793-2.339,3.894-2.339
	c0.884,0,1.6,0.482,2.016,1.356c1.014,2.13,0.076,6.895-1.355,8.792c-1.109,2.412-20.561,44.853-21.383,58.065
	c-0.126,2.019-0.284,4.659-0.465,7.679c-0.472,7.878-1.117,18.667-1.732,27.403c-0.216,3.075-0.433,5.89-0.63,8.339
	c-0.11,1.375-0.215,2.634-0.311,3.76l0.005,0.185c0.002,0.234,0.479,23.556,22.345,32.323c0.867,0.348,1.692,0.699,2.487,1.037
	c2.888,1.228,5.383,2.288,7.92,2.288c5.396-0.001,11.583-5.188,21.355-17.903c6.662-8.668,9.021-9.779,10.33-9.779
	c0.636,0,1.185,0.287,1.546,0.809c1.659,2.397-1.377,11.248-2.586,14.511c1.303,2.63,10.105,18.878,28.686,18.878
	c7.006,0,14.671-2.291,22.784-6.807l1.74-0.969l-0.263,1.975c-0.021,0.152-2.234,15.179-20.754,15.179
	c-8.706,0-19.672-3.326-32.599-9.888c-2.689,1.694-13.331,8.279-18.396,9.68c1.627,5.135,8.479,28.497,12.792,70.178l0.02,0.191
	l-0.053,0.186c-0.261,0.914-1.033,3.04-2.561,3.04c-1.548,0-2.546-2.004-3.444-6.916c-8.539-46.69-26.604-81.728-90.181-112.084
	l-0.176-0.107c-0.29-0.221-29.24-22.087-54.818-22.087c-5.576,0-10.646,1.045-15.068,3.107l-1.23,0.574L2184.909,978.197z
	 M2423.446,1018.014c-7.163-24.646,2.146-42.756,2.546-43.516l0.249-0.473l0.533-0.055c27.234-2.817,30.619-9.688,30.995-11.814
	l0.006-0.211c0.005-0.205,0.011-0.41,0.012-0.629l1.979-0.203c0.018,0.084,0.092,0.526,0.001,1.195
	c-0.215,9.982-2.649,12.798-12.998,15.045c-6.447,1.398-7.45,5.76-8.721,11.282c-0.579,2.517-1.177,5.118-2.337,7.745
	c-3.689,8.354-10.344,21.668-10.41,21.801l-1.143,2.283L2423.446,1018.014z M2356.561,982.391
	c-3.775-14.435-5.079-36.844,27.049-64.672l1.394,1.43c-0.285,0.312-28.436,31.656-21.057,59.877l0.045,0.17l-0.018,0.177
	c-0.601,6.347-1.823,9.563-3.632,9.563c-0.001,0-0.001,0-0.001,0C2358.852,988.936,2357.792,987.101,2356.561,982.391z"/>
<g>
	<path fill-rule="evenodd" clip-rule="evenodd" fill="#F47F51" d="M227.276,90.687c3.271-4.271-1.039-8.533,4.257-12.804
		c5.333,1.119,10.675,10.931,16.01,11.723c2.508-4.979-3.421-9.953-8.544-14.93c2.958-6.464,18.241-0.545,21.329-12.814
		c6.114,4.618,5.629,9.241,11.745,13.86c-7.821,6.249-15.639,16.391-23.462,14.951c-22.569,25.616-44.247,51.236-42.626,76.838
		c-5.403,3.912-4.189,7.824-9.593,11.738c-6.76-5.592-13.517-4.905-20.277-11.722c3.469-9.604,4.293-19.204,9.584-28.81
		c7.109,0.126,14.229,8.363,21.341,6.388c-1.472-8.708-12.062-5.383-17.077-12.789C207.025,112.849,205.51,97.013,227.276,90.687z
		 M219.822,113.095c5.92-4.523-5.142-9.453-8.54-6.397C214.131,108.858,216.976,109.011,219.822,113.095z"/>
	<path fill-rule="evenodd" clip-rule="evenodd" fill="#F47F51" d="M105.758,250.785c7.203,6.038,7.772,12.084,13.88,18.126
		c-7.107,7.116-14.217,14.232-21.325,21.349c-5.656-2.22-15.917-12.469-18.144-18.125C88.696,263.811,97.226,256.29,105.758,250.785
		z"/>
	<path fill-rule="evenodd" clip-rule="evenodd" fill="#F47F51" d="M75.905,280.671c3.33,6.638,8.926,10.479,14.947,14.928
		c-2.536,7.113-13.211,14.23-19.191,21.346c-6.402-2.812-12.805-6.188-19.209-10.655C57.585,298.284,66.265,285.192,75.905,280.671z
		"/>
	<path fill-rule="evenodd" clip-rule="evenodd" fill="#F47F51" d="M111.088,245.445c3.555-3.559,7.107-7.117,10.662-10.675
		c6.285,7.464,7.573,14.932,11.748,22.396c-2.844,2.825-5.685,6.501-8.531,6.407C120.154,261.352,115.045,251.101,111.088,245.445z"
		/>
	<path fill-rule="evenodd" clip-rule="evenodd" fill="#F47F51" d="M48.188,314.827c6.404,3.337,12.806,4.667,19.21,10.657
		c-3.302,4.268-1.33,8.534-4.26,12.804c-8.178,0.692-16.355,1.176-24.541-3.186C46.453,328.34,42.277,321.588,48.188,314.827z"/>
	<path fill-rule="evenodd" clip-rule="evenodd" fill="#F47F51" d="M35.407,346.84c10.308-4.632,20.628,3.641,30.935-3.22
		c1.493-24.933,25.557-12.539,35.189-24.559c-5.336-4.765-10.669-2.421-16.004-3.19c3.576-8.536,16.328-17.08,23.456-25.618
		c9.244-1.75,18.493,4.859,27.736-0.018c1.764-10.983-12.041-4.633-17.076-10.656c6.04-6.408,12.086-8.376,18.125-16.013
		c5.468,8.884,13.976,17.771,20.288,26.656c-7.075,10.105-22.048,13.603-17.055,23.481c7.993,0.15,16.123-12.446,21.324-17.083
		c8.184,4.299,16.369,14.138,24.55,18.12c-2.855,7.47-13.947,14.943-20.258,22.416c-10.591,1.071-22.726-5.642-22.413-18.124
		c-3.41,6.762-6.66,13.518-3.188,20.273c4.983,5.936,9.959,1.718,14.94,6.391c-5.545,6.659-18.779,20.583-27.723,23.489
		c-8.896-4.296-14.509-7.321-21.344-12.788c-9.146,9.136,5.321,17.996,12.814,17.06c-7.832,10.399-24.881,8.675-36.273,0.022
		c1.913-6.582,26.92-18.11,19.184-27.749c-8.888-0.693-17.767,17.606-26.659,20.285c-6.753-4.11-4.62-12.021-10.674-12.796
		c-2.86,28.261,39.173,43.956,58.692,28.769c3.825,4.621,6.255,9.241,7.477,13.863c-6.041,7.314-12.088,5.149-18.131,7.48
		c-5.405-3.911-1.67-7.823-5.342-11.733c-5.486,3.914-0.913,7.825-3.193,11.737c-11.721,6.118-37.647-4.081-51.217-17.036
		C41.161,374.454,39.703,358.973,35.407,346.84z M106.881,345.729c9.54-4.141,32.713-20.142,31.986-32.025
		C129.289,315.148,102.984,335.518,106.881,345.729z"/>
	<path fill-rule="evenodd" clip-rule="evenodd" fill="#F47F51" d="M294.514,138.649c6.256,6.043,6.24,12.087,9.613,18.132
		c6.403,4.756,12.804,3.256,19.205,6.389c-2.673,11.2-7.236,26.292-17.048,34.148c-6.047-3.488-12.092-2.964-18.138-5.323
		c-6.749-6.948-4.123-22.176-16.017-22.392C279.006,159.285,285.332,148.97,294.514,138.649z"/>
	<path fill-rule="evenodd" clip-rule="evenodd" fill="#F47F51" d="M129.306,378.785c7.821-4.823,15.639-12.893,23.458-17.083
		c4.43,1.896,6.556,7.937,12.812,12.795c-9.243,7.863-18.483,13.267-27.727,19.218C133.902,388.74,131.987,383.764,129.306,378.785z
		"/>
	<path fill-rule="evenodd" clip-rule="evenodd" fill="#F47F51" d="M180.485,333.948c4.406,1.041,12.832,9.454,13.878,13.861
		c-9.98,5.997-16.016,12.393-22.387,22.415c-4.12-4.974-12.032-9.948-12.813-14.925C162.343,350.091,173.84,341.944,180.485,333.948
		z"/>
	<path fill-rule="evenodd" clip-rule="evenodd" fill="#F47F51" d="M186.882,327.544c2.488-2.491,4.975-4.982,7.463-7.474
		c4.624,2.207,9.247,4.901,13.875,9.594c-0.44,3.555-7.025,7.114-6.394,10.671C197.117,339.249,188.206,329.485,186.882,327.544z"/>
	<path fill-rule="evenodd" clip-rule="evenodd" fill="#F47F51" d="M345.702,106.614c-9.542-2.433-4.53-10.412-11.745-15.994
		c-5.012,9.604,7.081,19.197-3.183,28.806c-8.931-1.409-5.594-12.71-11.745-13.861c-6.602,4.983-0.064,9.958,0.011,14.937
		c4.269,3.795,8.535,1.82,12.803,4.258c2.487,11.379-0.196,22.759-8.513,34.145c-14.68-3.225-16.975-16.213-23.488-27.722
		c6.034-16.007,27.022-32.022,26.64-48.024c-26.674,19.199-38.479,55.845-60.759,77.915c-5.455-2.546-16.951-8.964-25.609-10.652
		c-5.18-18.133-12.947-36.266,13.834-54.417c7.36,7.463,4.074,14.935,7.482,22.399c8.538,5.759,17.075,9.404,25.607,8.518
		c-2.227-7.918-12.48-6.542-18.141-11.724c-0.087-8.178-3.924-16.354-5.35-24.532c6.04-6.733,12.084-6.978,18.129-11.746
		c-5.376-5.776-9.413-9.332-12.813-19.197c6.395-4.33,12.8-2.175,19.196-8.545c5.191,4.977,5.987,9.953,8.544,14.93
		c-4.265,6.111-8.534,2.433-12.797,8.543c2.645,9.706,5.693,31.258,21.351,25.591c-7.542-5.637-10.591-12.963-12.814-23.461
		c0.122-5.402,6.267-1.669,9.599-5.34c1.069-7.114-7.366-14.22-2.147-21.338C320.479,54.73,362.616,86.788,345.702,106.614
		c14.478,4.075,14.334,30.518,0.021,34.14c7.043,10.133,4.065,31.862-8.517,32.008c7.753,10.674,1.371,27.013-12.78,34.148
		c3.484,9.954-2.512,19.913-14.916,29.878c-4.27-3.125-8.542-11.698-12.806-8.526c-1.686,4.624,6.207,9.243,7.475,13.865
		c-7.023,9.221-17.604,13.77-21.323,21.348c-3.911,0.456-7.828-7.915-11.74-7.46c-1.192,3.912-0.857,7.824,3.21,11.734
		c-4.978,4.982-9.953,9.963-14.927,14.943c-3.203-2.944-6.407-7.562-9.607-7.463c-4.737,15.989-27.64,26.09-36.242,44.83
		c-6.056-5.332-2.096-10.669-5.345-16.001c-28.496-20.051-60.362-45.608-77.924-73.562c13.214-17.357,30.878-36.588,43.706-56.567
		c6.404,3.003,12.805,4.99,19.208,8.523c4.764,3.908-1.253,7.825,1.074,11.732c10.55,3.748,6.753-19.632,17.06-12.81
		c2.689-4.271-2.12-8.536-4.273-12.802c10.495-8.861,8.615-26.083,19.179-38.415c-0.638,22.186,17.613,31.996,37.361,35.182
		c-5.381,9.248-14.177,18.5-19.187,27.747c-10.314-4.414-20.628-7.04-30.941-5.313c0.596,12.356,18.071,4.669,25.611,10.651
		c-2.941,6.76-12.033,13.521-11.722,20.278c10.297,2.636,19.158-12.6,25.589-21.353c6.071-8.261,9.821-18.824,17.054-25.613
		c4.383,14.815,14.657,34.112,32.021,29.851c-2.646,25.05-30.479,29.568-45.864,11.762c-3.991,13.176,13.24,15.005,21.347,19.191
		c-7.602,10.309-24.061,22.868-35.192,18.157c-1.112,4.268-0.279,8.533,2.141,12.8c38.395-13.846,71.627-59.54,86.354-92.866
		c1.848-10.315,1.536-20.626,9.583-30.942C340.032,128.668,337.284,117.644,345.702,106.614z M234.838,243.235
		c7.381-2.673,3.016-11.216-0.011-17.07C228.397,228.085,229.998,237.901,234.838,243.235z"/>
</g>
</svg>
