<?xml version="1.0" encoding="utf-8"?>
<!-- Generator: Adobe Illustrator 15.0.2, SVG Export Plug-In . SVG Version: 6.00 Build 0)  -->
<!DOCTYPE svg PUBLIC "-//W3C//DTD SVG 1.1//EN" "http://www.w3.org/Graphics/SVG/1.1/DTD/svg11.dtd">
<svg version="1.1" id="Layer_3" xmlns="http://www.w3.org/2000/svg" xmlns:xlink="http://www.w3.org/1999/xlink" x="0px" y="0px"
	 width="450.449px" height="450px" viewBox="0 0 450.449 450" enable-background="new 0 0 450.449 450" xml:space="preserve">
<g>
	<rect fill="#E1DB2F" width="225" height="225"/>
	<g>
		<polygon fill="#CABA29" points="27.127,159.965 41.511,184.837 29.177,210.787 57.276,204.792 78.145,224.541 81.127,195.965 
			106.358,182.221 80.102,170.555 74.828,142.311 55.618,163.677 		"/>
		<polygon fill="#CABA29" points="190.706,46.352 184.689,31.533 193.485,18.177 177.533,19.32 167.548,6.827 163.706,22.352 
			148.739,27.987 162.316,36.439 163.051,52.415 175.285,42.113 		"/>
		<polygon fill="#CABA29" points="182.03,132.92 174.907,159.026 149.363,167.959 171.99,182.801 172.592,209.854 193.699,192.92 
			219.614,200.709 210.032,175.401 225.448,153.161 198.418,154.453 		"/>
		<polygon fill="#CABA29" points="138.861,103.756 122.872,112.896 106.277,104.907 110.029,122.938 97.303,136.253 
			115.611,138.256 124.341,154.475 131.903,137.681 150.025,134.39 136.391,122.008 		"/>
		<polygon fill="#CABA29" points="11.509,106.295 0,123.861 0,65.155 4.03,67.945 29.54,58.271 21.701,84.403 38.784,105.675 		"/>
		<polygon fill="#CABA29" points="72.502,3.229 62.854,32.532 33.245,41.196 58.132,59.428 57.223,90.265 82.252,72.229 
			111.299,82.624 101.88,53.246 120.742,28.833 89.892,28.712 		"/>
		<polygon fill="#CABA29" points="225,65.155 225,123.861 221.558,129.115 212.54,103.367 186.216,96.199 207.917,79.665 
			206.6,52.415 		"/>
	</g>
	<g>
		<polygon fill="#BEA10E" points="198.321,67.807 183.937,42.935 196.271,16.985 168.172,22.979 147.304,3.23 144.321,31.807 
			119.09,45.551 145.346,57.217 150.621,85.461 169.83,64.095 		"/>
		<polygon fill="#BEA10E" points="34.742,181.42 40.759,196.238 31.963,209.595 47.915,208.451 57.9,220.944 61.742,205.42 
			76.709,199.784 63.132,191.332 62.397,175.356 50.163,185.658 		"/>
		<polygon fill="#BEA10E" points="43.418,94.851 50.541,68.745 76.085,59.813 53.458,44.971 52.856,17.918 31.749,34.851 
			5.834,27.063 15.416,52.37 0,74.61 27.03,73.318 		"/>
		<polygon fill="#BEA10E" points="86.587,124.016 102.577,114.875 119.171,122.864 115.419,104.833 128.146,91.519 109.837,89.516 
			101.107,73.297 93.545,90.091 75.423,93.382 89.058,105.764 		"/>
		<polygon fill="#BEA10E" points="213.939,121.477 225.448,103.91 225.448,162.616 221.418,159.826 195.909,169.5 203.747,143.368 
			186.664,122.097 		"/>
		<polygon fill="#BEA10E" points="152.946,224.542 162.595,195.239 192.204,186.575 167.316,168.344 168.226,137.507 
			143.196,155.542 114.149,145.147 123.568,174.525 104.706,198.938 135.557,199.06 		"/>
		<polygon fill="#BEA10E" points="0,162.616 0,103.91 3.442,98.657 12.461,124.404 38.784,131.572 17.083,148.106 18.4,175.356 		
			"/>
	</g>
</g>
<g>
	<rect y="225" fill="#E1DB2F" width="225" height="225"/>
	<g>
		<polygon fill="#CABA29" points="27.127,384.965 41.511,409.837 29.177,435.787 57.276,429.792 78.145,449.541 81.127,420.965 
			106.358,407.221 80.102,395.555 74.828,367.311 55.618,388.677 		"/>
		<polygon fill="#CABA29" points="190.706,271.352 184.689,256.533 193.485,243.177 177.533,244.32 167.548,231.827 
			163.706,247.352 148.739,252.987 162.316,261.439 163.051,277.415 175.285,267.113 		"/>
		<polygon fill="#CABA29" points="182.03,357.92 174.907,384.025 149.363,392.959 171.99,407.801 172.592,434.854 193.699,417.92 
			219.614,425.709 210.032,400.4 225.448,378.161 198.418,379.453 		"/>
		<polygon fill="#CABA29" points="138.861,328.756 122.872,337.896 106.277,329.907 110.029,347.938 97.303,361.253 
			115.611,363.256 124.341,379.475 131.903,362.682 150.025,359.391 136.391,347.008 		"/>
		<polygon fill="#CABA29" points="11.509,331.295 0,348.861 0,290.155 4.03,292.945 29.54,283.271 21.701,309.402 38.784,330.675 		
			"/>
		<polygon fill="#CABA29" points="72.502,228.229 62.854,257.532 33.245,266.196 58.132,284.428 57.223,315.266 82.252,297.229 
			111.299,307.624 101.88,278.246 120.742,253.833 89.892,253.712 		"/>
		<polygon fill="#CABA29" points="225,290.155 225,348.861 221.558,354.115 212.54,328.367 186.216,321.199 207.917,304.665 
			206.6,277.415 		"/>
	</g>
	<g>
		<polygon fill="#BEA10E" points="198.321,292.807 183.937,267.936 196.271,241.984 168.172,247.979 147.304,228.23 
			144.321,256.807 119.09,270.551 145.346,282.217 150.621,310.461 169.83,289.095 		"/>
		<polygon fill="#BEA10E" points="34.742,406.42 40.759,421.238 31.963,434.595 47.915,433.451 57.9,445.943 61.742,430.42 
			76.709,424.784 63.132,416.332 62.397,400.355 50.163,410.658 		"/>
		<polygon fill="#BEA10E" points="43.418,319.852 50.541,293.745 76.085,284.813 53.458,269.971 52.856,242.918 31.749,259.852 
			5.834,252.063 15.416,277.37 0,299.609 27.03,298.318 		"/>
		<polygon fill="#BEA10E" points="86.587,349.016 102.577,339.875 119.171,347.864 115.419,329.833 128.146,316.52 109.837,314.516 
			101.107,298.297 93.545,315.091 75.423,318.382 89.058,330.764 		"/>
		<polygon fill="#BEA10E" points="213.939,346.477 225.448,328.91 225.448,387.616 221.418,384.826 195.909,394.5 203.747,368.368 
			186.664,347.098 		"/>
		<polygon fill="#BEA10E" points="152.946,449.542 162.595,420.239 192.204,411.575 167.316,393.344 168.226,362.507 
			143.196,380.542 114.149,370.146 123.568,399.525 104.706,423.938 135.557,424.061 		"/>
		<polygon fill="#BEA10E" points="0,387.616 0,328.91 3.442,323.657 12.461,349.404 38.784,356.572 17.083,373.105 18.4,400.355 		
			"/>
	</g>
</g>
<g>
	<rect x="225" fill="#E1DB2F" width="225" height="225"/>
	<g>
		<polygon fill="#CABA29" points="252.126,159.965 266.511,184.837 254.177,210.787 282.276,204.792 303.145,224.541 
			306.126,195.965 331.358,182.221 305.102,170.555 299.828,142.311 280.619,163.677 		"/>
		<polygon fill="#CABA29" points="415.707,46.352 409.689,31.533 418.485,18.177 402.533,19.32 392.548,6.827 388.707,22.352 
			373.74,27.987 387.316,36.439 388.05,52.415 400.285,42.113 		"/>
		<polygon fill="#CABA29" points="407.031,132.92 399.908,159.026 374.363,167.959 396.99,182.801 397.591,209.854 418.699,192.92 
			444.615,200.709 435.033,175.401 450.449,153.161 423.417,154.453 		"/>
		<polygon fill="#CABA29" points="363.861,103.756 347.873,112.896 331.277,104.907 335.029,122.938 322.303,136.253 
			340.611,138.256 349.341,154.475 356.903,137.681 375.025,134.39 361.391,122.008 		"/>
		<polygon fill="#CABA29" points="236.509,106.295 225,123.861 225,65.155 229.03,67.945 254.541,58.271 246.701,84.403 
			263.785,105.675 		"/>
		<polygon fill="#CABA29" points="297.501,3.229 287.854,32.532 258.246,41.196 283.132,59.428 282.223,90.265 307.251,72.229 
			336.298,82.624 326.88,53.246 345.742,28.833 314.892,28.712 		"/>
		<polygon fill="#CABA29" points="450,65.155 450,123.861 446.558,129.115 437.541,103.367 411.216,96.199 432.917,79.665 
			431.6,52.415 		"/>
	</g>
	<g>
		<polygon fill="#BEA10E" points="423.321,67.807 408.937,42.935 421.271,16.985 393.171,22.979 372.304,3.23 369.321,31.807 
			344.089,45.551 370.346,57.217 375.621,85.461 394.83,64.095 		"/>
		<polygon fill="#BEA10E" points="259.742,181.42 265.759,196.238 256.962,209.595 272.916,208.451 282.9,220.944 286.742,205.42 
			301.708,199.784 288.132,191.332 287.397,175.356 275.164,185.658 		"/>
		<polygon fill="#BEA10E" points="268.417,94.851 275.541,68.745 301.085,59.813 278.458,44.971 277.856,17.918 256.75,34.851 
			230.833,27.063 240.416,52.37 225,74.61 252.03,73.318 		"/>
		<polygon fill="#BEA10E" points="311.587,124.016 327.578,114.875 344.171,122.864 340.419,104.833 353.146,91.519 334.837,89.516 
			326.107,73.297 318.544,90.091 300.423,93.382 314.058,105.764 		"/>
		<polygon fill="#BEA10E" points="438.939,121.477 450.449,103.91 450.449,162.616 446.417,159.826 420.91,169.5 428.748,143.368 
			411.664,122.097 		"/>
		<polygon fill="#BEA10E" points="377.946,224.542 387.595,195.239 417.205,186.575 392.316,168.344 393.226,137.507 
			368.196,155.542 339.149,145.147 348.568,174.525 329.707,198.938 360.557,199.06 		"/>
		<polygon fill="#BEA10E" points="225,162.616 225,103.91 228.442,98.657 237.46,124.404 263.784,131.572 242.083,148.106 
			243.4,175.356 		"/>
	</g>
</g>
<g>
	<rect x="225" y="225" fill="#E1DB2F" width="225" height="225"/>
	<g>
		<polygon fill="#CABA29" points="252.126,384.965 266.511,409.837 254.177,435.787 282.276,429.792 303.145,449.541 
			306.126,420.965 331.358,407.221 305.102,395.555 299.828,367.311 280.619,388.677 		"/>
		<polygon fill="#CABA29" points="415.707,271.352 409.689,256.533 418.485,243.177 402.533,244.32 392.548,231.827 
			388.707,247.352 373.74,252.987 387.316,261.439 388.05,277.415 400.285,267.113 		"/>
		<polygon fill="#CABA29" points="407.031,357.92 399.908,384.025 374.363,392.959 396.99,407.801 397.591,434.854 418.699,417.92 
			444.615,425.709 435.033,400.4 450.449,378.161 423.417,379.453 		"/>
		<polygon fill="#CABA29" points="363.861,328.756 347.873,337.896 331.277,329.907 335.029,347.938 322.303,361.253 
			340.611,363.256 349.341,379.475 356.903,362.682 375.025,359.391 361.391,347.008 		"/>
		<polygon fill="#CABA29" points="236.509,331.295 225,348.861 225,290.155 229.03,292.945 254.541,283.271 246.701,309.402 
			263.785,330.675 		"/>
		<polygon fill="#CABA29" points="297.501,228.229 287.854,257.532 258.246,266.196 283.132,284.428 282.223,315.266 
			307.251,297.229 336.298,307.624 326.88,278.246 345.742,253.833 314.892,253.712 		"/>
		<polygon fill="#CABA29" points="450,290.155 450,348.861 446.558,354.115 437.541,328.367 411.216,321.199 432.917,304.665 
			431.6,277.415 		"/>
	</g>
	<g>
		<polygon fill="#BEA10E" points="423.321,292.807 408.937,267.936 421.271,241.984 393.171,247.979 372.304,228.23 
			369.321,256.807 344.089,270.551 370.346,282.217 375.621,310.461 394.83,289.095 		"/>
		<polygon fill="#BEA10E" points="259.742,406.42 265.759,421.238 256.962,434.595 272.916,433.451 282.9,445.943 286.742,430.42 
			301.708,424.784 288.132,416.332 287.397,400.355 275.164,410.658 		"/>
		<polygon fill="#BEA10E" points="268.417,319.852 275.541,293.745 301.085,284.813 278.458,269.971 277.856,242.918 
			256.75,259.852 230.833,252.063 240.416,277.37 225,299.609 252.03,298.318 		"/>
		<polygon fill="#BEA10E" points="311.587,349.016 327.578,339.875 344.171,347.864 340.419,329.833 353.146,316.52 
			334.837,314.516 326.107,298.297 318.544,315.091 300.423,318.382 314.058,330.764 		"/>
		<polygon fill="#BEA10E" points="438.939,346.477 450.449,328.91 450.449,387.616 446.417,384.826 420.91,394.5 428.748,368.368 
			411.664,347.098 		"/>
		<polygon fill="#BEA10E" points="377.946,449.542 387.595,420.239 417.205,411.575 392.316,393.344 393.226,362.507 
			368.196,380.542 339.149,370.146 348.568,399.525 329.707,423.938 360.557,424.061 		"/>
		<polygon fill="#BEA10E" points="225,387.616 225,328.91 228.442,323.657 237.46,349.404 263.784,356.572 242.083,373.105 
			243.4,400.355 		"/>
	</g>
</g>
</svg>
