<?xml version="1.0" encoding="utf-8"?>
<!-- Generator: Adobe Illustrator 13.0.0, SVG Export Plug-In . SVG Version: 6.00 Build 14576)  -->
<!DOCTYPE svg PUBLIC "-//W3C//DTD SVG 1.0//EN" "http://www.w3.org/TR/2001/REC-SVG-20010904/DTD/svg10.dtd">
<svg version="1.0" id="Pattern" xmlns="http://www.w3.org/2000/svg" xmlns:xlink="http://www.w3.org/1999/xlink" x="0px" y="0px"
	 width="447.056px" height="446.132px" viewBox="0 0 447.056 446.132" enable-background="new 0 0 447.056 446.132"
	 xml:space="preserve">
<path fill="#B3B3B3" d="M445.354,349.842v-20.537c-3.258-0.016-5.895-2.658-5.895-5.92s2.637-5.906,5.895-5.922v-20.535
	c-3.258-0.016-5.895-2.66-5.895-5.92c0-3.264,2.637-5.906,5.895-5.922v-20.537c-3.258-0.018-5.895-2.658-5.895-5.922
	c0-3.262,2.637-5.904,5.895-5.92v-20.539c-3.258-0.016-5.895-2.658-5.895-5.92s2.637-5.904,5.895-5.921V199.79
	c-3.258-0.016-5.895-2.659-5.895-5.92c0-3.262,2.637-5.905,5.895-5.921v-20.538c-3.258-0.016-5.895-2.659-5.895-5.92
	c0-3.261,2.637-5.905,5.895-5.92v-20.539c-3.258-0.015-5.895-2.658-5.895-5.92s2.637-5.905,5.895-5.92v-20.144
	c-3.258-0.015-5.895-2.659-5.895-5.92c0-3.261,2.637-5.905,5.895-5.92V70.67c-3.258-0.016-5.895-2.659-5.895-5.92
	s2.637-5.904,5.895-5.92V38.292c-3.258-0.016-5.895-2.659-5.895-5.92c0-3.261,2.637-5.904,5.895-5.92V5.914
	c-3.256-0.015-5.891-2.655-5.893-5.914h-5.973c-0.004,3.268-2.652,5.917-5.922,5.917S421.648,3.268,421.645,0h-5.971
	c-0.002,3.268-2.652,5.917-5.92,5.917c-3.27,0-5.92-2.648-5.922-5.917h-5.973c-0.004,3.268-2.652,5.917-5.922,5.917
	S386.02,3.268,386.016,0h-5.969c-0.004,3.268-2.654,5.917-5.922,5.917c-3.27,0-5.92-2.648-5.922-5.917h-5.971
	c-0.004,3.268-2.652,5.917-5.922,5.917S350.393,3.268,350.389,0h-5.971c-0.004,3.268-2.654,5.917-5.922,5.917
	c-3.27,0-5.918-2.648-5.922-5.917h-5.971c-0.004,3.268-2.652,5.917-5.922,5.917S314.764,3.268,314.76,0h-5.971
	c-0.004,3.268-2.652,5.917-5.922,5.917c-3.268,0-5.918-2.648-5.922-5.917h-5.971c-0.004,3.268-2.652,5.917-5.922,5.917
	S279.135,3.268,279.131,0h-5.971c-0.002,3.268-2.652,5.917-5.922,5.917c-3.268,0-5.918-2.648-5.922-5.917h-5.969
	c-0.004,3.268-2.654,5.917-5.924,5.917c-3.268,0-5.918-2.648-5.922-5.917h-5.969c-0.004,3.268-2.654,5.917-5.924,5.917
	c-3.268,0-5.918-2.648-5.922-5.917h-5.969c-0.003,3.268-2.654,5.917-5.922,5.917S207.877,3.268,207.874,0h-5.97
	c-0.003,3.268-2.654,5.917-5.922,5.917S190.062,3.268,190.059,0h-5.969c-0.003,3.268-2.654,5.917-5.922,5.917
	S172.249,3.268,172.245,0h-5.97c-0.003,3.268-2.654,5.917-5.922,5.917S154.435,3.268,154.431,0h-5.97
	c-0.003,3.268-2.653,5.917-5.922,5.917c-3.269,0-5.919-2.648-5.922-5.917h-5.97c-0.004,3.268-2.654,5.917-5.922,5.917
	S118.806,3.268,118.802,0h-5.969c-0.003,3.268-2.654,5.917-5.922,5.917S100.992,3.268,100.988,0h-5.97
	c-0.003,3.268-2.654,5.917-5.922,5.917S83.177,3.268,83.174,0h-5.97c-0.003,3.268-2.654,5.917-5.922,5.917S65.363,3.268,65.359,0
	h-5.97c-0.003,3.268-2.654,5.917-5.922,5.917S47.549,3.268,47.545,0h-5.969c-0.004,3.268-2.654,5.917-5.922,5.917
	S29.735,3.268,29.731,0h-5.97c-0.003,3.268-2.654,5.917-5.922,5.917S11.92,3.268,11.917,0h-5.97
	C5.944,3.268,3.293,5.917,0.025,5.917C0.016,5.917,0.009,5.914,0,5.914v20.538c0.009,0,0.016-0.002,0.025-0.002
	c3.271,0,5.923,2.652,5.923,5.923c0,3.271-2.652,5.923-5.923,5.923c-0.009,0-0.016-0.002-0.025-0.002V58.83
	c0.009,0,0.016-0.002,0.025-0.002c3.271,0,5.923,2.652,5.923,5.923s-2.652,5.923-5.923,5.923c-0.009,0-0.016-0.002-0.025-0.002
	v20.538c0.009,0,0.016-0.002,0.025-0.002c3.271,0,5.923,2.652,5.923,5.923c0,3.271-2.652,5.923-5.923,5.923
	c-0.009,0-0.016-0.002-0.025-0.002v20.143c0.009,0,0.016-0.002,0.025-0.002c3.271,0,5.923,2.652,5.923,5.923
	s-2.652,5.923-5.923,5.923c-0.009,0-0.016-0.002-0.025-0.002v20.538c0.009,0,0.016-0.002,0.025-0.002
	c3.271,0,5.923,2.652,5.923,5.923s-2.652,5.923-5.923,5.923c-0.009,0-0.016-0.002-0.025-0.002v20.537
	c0.009,0,0.016-0.002,0.025-0.002c3.271,0,5.923,2.651,5.923,5.923c0,3.271-2.652,5.923-5.923,5.923
	c-0.009,0-0.016-0.003-0.025-0.003v20.537c0.009,0,0.016-0.002,0.025-0.002c3.271,0,5.923,2.652,5.923,5.923
	c0,3.271-2.652,5.924-5.923,5.924c-0.009,0-0.016-0.004-0.025-0.004v20.539c0.009,0,0.016-0.002,0.025-0.002
	c3.271,0,5.923,2.65,5.923,5.922s-2.652,5.924-5.923,5.924c-0.009,0-0.016-0.002-0.025-0.002v20.537
	c0.009,0,0.016-0.002,0.025-0.002c3.271,0,5.923,2.652,5.923,5.924c0,3.27-2.652,5.922-5.923,5.922
	c-0.009,0-0.016-0.002-0.025-0.002v20.535c0.009,0,0.016-0.002,0.025-0.002c3.271,0,5.923,2.652,5.923,5.924
	s-2.652,5.922-5.923,5.922c-0.009,0-0.016-0.002-0.025-0.002v20.537c0.009,0,0.016-0.002,0.025-0.002
	c3.271,0,5.923,2.652,5.923,5.924h5.969c0-3.271,2.652-5.924,5.923-5.924s5.923,2.652,5.923,5.924h5.969
	c0-3.271,2.652-5.924,5.923-5.924c3.271,0,5.923,2.652,5.923,5.924h5.968c0-3.271,2.652-5.924,5.923-5.924
	c3.271,0,5.923,2.652,5.923,5.924h5.969c0-3.271,2.652-5.924,5.923-5.924s5.923,2.652,5.923,5.924h5.969
	c0-3.271,2.652-5.924,5.923-5.924s5.923,2.652,5.923,5.924h5.969c0-3.271,2.652-5.924,5.923-5.924s5.923,2.652,5.923,5.924h5.968
	c0-3.271,2.652-5.924,5.923-5.924s5.923,2.652,5.923,5.924h5.968c0-3.271,2.652-5.924,5.923-5.924c3.271,0,5.923,2.652,5.923,5.924
	h5.968c0-3.271,2.652-5.924,5.923-5.924c3.271,0,5.923,2.652,5.923,5.924h5.968c0-3.271,2.652-5.924,5.923-5.924
	c3.271,0,5.923,2.652,5.923,5.924h5.968c0-3.271,2.652-5.924,5.923-5.924s5.923,2.652,5.923,5.924h5.969
	c0-3.271,2.652-5.924,5.923-5.924s5.923,2.652,5.923,5.924h5.969c0-3.271,2.652-5.924,5.922-5.924c3.271,0,5.924,2.652,5.924,5.924
	h5.969c0-3.271,2.652-5.924,5.922-5.924c3.271,0,5.924,2.652,5.924,5.924h5.969c0-3.271,2.652-5.924,5.922-5.924
	c3.271,0,5.924,2.652,5.924,5.924h5.969c0-3.271,2.65-5.924,5.922-5.924s5.924,2.652,5.924,5.924h5.969
	c0-3.271,2.65-5.924,5.922-5.924s5.924,2.652,5.924,5.924h5.967c0-3.271,2.652-5.924,5.924-5.924s5.924,2.652,5.924,5.924h5.967
	c0-3.271,2.652-5.924,5.924-5.924s5.922,2.652,5.922,5.924h5.969c0-3.271,2.652-5.924,5.924-5.924s5.922,2.652,5.922,5.924h5.969
	c0-3.271,2.652-5.924,5.924-5.924s5.922,2.652,5.922,5.924h5.969c0-3.271,2.65-5.924,5.922-5.924s5.924,2.652,5.924,5.924h5.969
	c0-3.271,2.652-5.924,5.924-5.924s5.922,2.652,5.922,5.924h5.969c0-3.271,2.65-5.924,5.922-5.924s5.924,2.652,5.924,5.924h5.969
	C439.459,352.5,442.096,349.859,445.354,349.842z M442.557,307.195c0,3.271-2.652,5.924-5.924,5.924s-5.924-2.652-5.924-5.924
	s2.652-5.924,5.924-5.924S442.557,303.924,442.557,307.195z M395.082,145.303c0-3.271,2.652-5.923,5.924-5.923
	s5.922,2.652,5.922,5.923c0,3.271-2.65,5.923-5.922,5.923S395.082,148.573,395.082,145.303z M406.928,177.681
	c0,3.271-2.65,5.923-5.922,5.923s-5.924-2.652-5.924-5.923s2.652-5.923,5.924-5.923S406.928,174.41,406.928,177.681z
	 M397.861,161.492c0,3.271-2.652,5.923-5.924,5.923s-5.922-2.652-5.922-5.923s2.65-5.923,5.922-5.923
	S397.861,158.221,397.861,161.492z M389.113,177.681c0,3.271-2.652,5.923-5.924,5.923s-5.922-2.652-5.922-5.923
	s2.65-5.923,5.922-5.923S389.113,174.41,389.113,177.681z M383.189,151.226c-3.271,0-5.922-2.652-5.922-5.923
	c0-3.271,2.65-5.923,5.922-5.923s5.924,2.652,5.924,5.923C389.113,148.573,386.461,151.226,383.189,151.226z M380.047,161.492
	c0,3.271-2.65,5.923-5.922,5.923s-5.924-2.652-5.924-5.923s2.652-5.923,5.924-5.923S380.047,158.221,380.047,161.492z
	 M371.301,177.681c0,3.271-2.652,5.923-5.924,5.923s-5.922-2.652-5.922-5.923s2.65-5.923,5.922-5.923
	S371.301,174.41,371.301,177.681z M365.377,151.226c-3.271,0-5.922-2.652-5.922-5.923c0-3.271,2.65-5.923,5.922-5.923
	s5.924,2.652,5.924,5.923C371.301,148.573,368.648,151.226,365.377,151.226z M362.232,161.492c0,3.271-2.65,5.923-5.922,5.923
	s-5.924-2.652-5.924-5.923s2.652-5.923,5.924-5.923S362.232,158.221,362.232,161.492z M353.486,177.681
	c0,3.271-2.652,5.923-5.924,5.923s-5.922-2.652-5.922-5.923s2.65-5.923,5.922-5.923S353.486,174.41,353.486,177.681z
	 M347.562,151.226c-3.271,0-5.922-2.652-5.922-5.923c0-3.271,2.65-5.923,5.922-5.923s5.924,2.652,5.924,5.923
	C353.486,148.573,350.834,151.226,347.562,151.226z M344.418,161.492c0,3.271-2.65,5.923-5.922,5.923s-5.924-2.652-5.924-5.923
	s2.652-5.923,5.924-5.923S344.418,158.221,344.418,161.492z M335.67,177.681c0,3.271-2.65,5.923-5.922,5.923
	s-5.924-2.652-5.924-5.923s2.652-5.923,5.924-5.923S335.67,174.41,335.67,177.681z M329.748,151.226
	c-3.271,0-5.924-2.652-5.924-5.923c0-3.271,2.652-5.923,5.924-5.923s5.922,2.652,5.922,5.923
	C335.67,148.573,333.02,151.226,329.748,151.226z M326.605,161.492c0,3.271-2.652,5.923-5.924,5.923s-5.924-2.652-5.924-5.923
	s2.652-5.923,5.924-5.923S326.605,158.221,326.605,161.492z M317.857,177.681c0,3.271-2.65,5.923-5.922,5.923
	s-5.924-2.652-5.924-5.923s2.652-5.923,5.924-5.923S317.857,174.41,317.857,177.681z M311.936,151.226
	c-3.271,0-5.924-2.652-5.924-5.923c0-3.271,2.652-5.923,5.924-5.923s5.922,2.652,5.922,5.923
	C317.857,148.573,315.207,151.226,311.936,151.226z M308.791,161.492c0,3.271-2.652,5.923-5.924,5.923s-5.922-2.652-5.922-5.923
	s2.65-5.923,5.922-5.923S308.791,158.221,308.791,161.492z M300.043,177.681c0,3.271-2.652,5.923-5.924,5.923
	s-5.922-2.652-5.922-5.923s2.65-5.923,5.922-5.923S300.043,174.41,300.043,177.681z M294.119,151.226
	c-3.271,0-5.922-2.652-5.922-5.923c0-3.271,2.65-5.923,5.922-5.923s5.924,2.652,5.924,5.923
	C300.043,148.573,297.391,151.226,294.119,151.226z M290.977,161.492c0,3.271-2.652,5.923-5.924,5.923s-5.922-2.652-5.922-5.923
	s2.65-5.923,5.922-5.923S290.977,158.221,290.977,161.492z M282.229,177.681c0,3.271-2.652,5.923-5.924,5.923
	c-3.27,0-5.922-2.652-5.922-5.923s2.652-5.923,5.922-5.923C279.576,171.758,282.229,174.41,282.229,177.681z M276.305,151.226
	c-3.27,0-5.922-2.652-5.922-5.923c0-3.271,2.652-5.923,5.922-5.923c3.271,0,5.924,2.652,5.924,5.923
	C282.229,148.573,279.576,151.226,276.305,151.226z M273.162,161.492c0,3.271-2.652,5.923-5.924,5.923
	c-3.27,0-5.922-2.652-5.922-5.923s2.652-5.923,5.922-5.923C270.51,155.569,273.162,158.221,273.162,161.492z M264.414,177.681
	c0,3.271-2.652,5.923-5.924,5.923c-3.27,0-5.922-2.652-5.922-5.923s2.652-5.923,5.922-5.923
	C261.762,171.758,264.414,174.41,264.414,177.681z M258.49,151.226c-3.27,0-5.922-2.652-5.922-5.923
	c0-3.271,2.652-5.923,5.922-5.923c3.271,0,5.924,2.652,5.924,5.923C264.414,148.573,261.762,151.226,258.49,151.226z
	 M255.348,161.492c0,3.271-2.652,5.923-5.924,5.923c-3.27,0-5.922-2.652-5.922-5.923s2.652-5.923,5.922-5.923
	C252.695,155.569,255.348,158.221,255.348,161.492z M246.6,177.681c0,3.271-2.652,5.923-5.922,5.923
	c-3.271,0-5.924-2.652-5.924-5.923s2.652-5.923,5.924-5.923C243.947,171.758,246.6,174.41,246.6,177.681z M240.678,151.226
	c-3.271,0-5.924-2.652-5.924-5.923c0-3.271,2.652-5.923,5.924-5.923c3.27,0,5.922,2.652,5.922,5.923
	C246.6,148.573,243.947,151.226,240.678,151.226z M237.533,161.492c0,3.271-2.652,5.923-5.924,5.923
	c-3.27,0-5.922-2.652-5.922-5.923s2.652-5.923,5.922-5.923C234.881,155.569,237.533,158.221,237.533,161.492z M228.785,177.681
	c0,3.271-2.652,5.923-5.923,5.923c-3.271,0-5.923-2.652-5.923-5.923s2.652-5.923,5.923-5.923
	C226.133,171.758,228.785,174.41,228.785,177.681z M222.862,151.226c-3.271,0-5.923-2.652-5.923-5.923
	c0-3.271,2.652-5.923,5.923-5.923c3.271,0,5.923,2.652,5.923,5.923C228.785,148.573,226.133,151.226,222.862,151.226z
	 M219.719,161.492c0,3.271-2.652,5.923-5.923,5.923s-5.923-2.652-5.923-5.923s2.652-5.923,5.923-5.923
	S219.719,158.221,219.719,161.492z M210.971,177.681c0,3.271-2.652,5.923-5.923,5.923s-5.923-2.652-5.923-5.923
	s2.652-5.923,5.923-5.923S210.971,174.41,210.971,177.681z M205.048,151.226c-3.271,0-5.923-2.652-5.923-5.923
	c0-3.271,2.652-5.923,5.923-5.923s5.923,2.652,5.923,5.923C210.971,148.573,208.319,151.226,205.048,151.226z M201.904,161.492
	c0,3.271-2.652,5.923-5.923,5.923s-5.923-2.652-5.923-5.923s2.652-5.923,5.923-5.923S201.904,158.221,201.904,161.492z
	 M193.157,177.681c0,3.271-2.652,5.923-5.923,5.923c-3.271,0-5.923-2.652-5.923-5.923s2.652-5.923,5.923-5.923
	C190.505,171.758,193.157,174.41,193.157,177.681z M187.234,151.226c-3.271,0-5.923-2.652-5.923-5.923
	c0-3.271,2.652-5.923,5.923-5.923c3.271,0,5.923,2.652,5.923,5.923C193.157,148.573,190.505,151.226,187.234,151.226z
	 M184.09,161.492c0,3.271-2.652,5.923-5.923,5.923c-3.271,0-5.923-2.652-5.923-5.923s2.652-5.923,5.923-5.923
	C181.438,155.569,184.09,158.221,184.09,161.492z M175.343,177.681c0,3.271-2.652,5.923-5.923,5.923s-5.923-2.652-5.923-5.923
	s2.652-5.923,5.923-5.923S175.343,174.41,175.343,177.681z M169.42,151.226c-3.271,0-5.923-2.652-5.923-5.923
	c0-3.271,2.652-5.923,5.923-5.923s5.923,2.652,5.923,5.923C175.343,148.573,172.691,151.226,169.42,151.226z M166.276,161.492
	c0,3.271-2.652,5.923-5.923,5.923c-3.271,0-5.923-2.652-5.923-5.923s2.652-5.923,5.923-5.923
	C163.624,155.569,166.276,158.221,166.276,161.492z M157.528,177.681c0,3.271-2.652,5.923-5.923,5.923s-5.923-2.652-5.923-5.923
	s2.652-5.923,5.923-5.923S157.528,174.41,157.528,177.681z M151.605,151.226c-3.271,0-5.923-2.652-5.923-5.923
	c0-3.271,2.652-5.923,5.923-5.923s5.923,2.652,5.923,5.923C157.528,148.573,154.876,151.226,151.605,151.226z M148.462,161.492
	c0,3.271-2.652,5.923-5.923,5.923c-3.271,0-5.923-2.652-5.923-5.923s2.652-5.923,5.923-5.923
	C145.81,155.569,148.462,158.221,148.462,161.492z M139.714,177.681c0,3.271-2.652,5.923-5.923,5.923s-5.923-2.652-5.923-5.923
	s2.652-5.923,5.923-5.923S139.714,174.41,139.714,177.681z M133.791,151.226c-3.271,0-5.923-2.652-5.923-5.923
	c0-3.271,2.652-5.923,5.923-5.923s5.923,2.652,5.923,5.923C139.714,148.573,137.062,151.226,133.791,151.226z M130.647,161.492
	c0,3.271-2.652,5.923-5.923,5.923s-5.923-2.652-5.923-5.923s2.652-5.923,5.923-5.923S130.647,158.221,130.647,161.492z
	 M121.9,177.681c0,3.271-2.652,5.923-5.923,5.923c-3.271,0-5.923-2.652-5.923-5.923s2.652-5.923,5.923-5.923
	C119.248,171.758,121.9,174.41,121.9,177.681z M115.977,151.226c-3.271,0-5.923-2.652-5.923-5.923c0-3.271,2.652-5.923,5.923-5.923
	c3.271,0,5.923,2.652,5.923,5.923C121.9,148.573,119.248,151.226,115.977,151.226z M112.833,161.492
	c0,3.271-2.652,5.923-5.923,5.923s-5.923-2.652-5.923-5.923s2.652-5.923,5.923-5.923S112.833,158.221,112.833,161.492z
	 M104.086,177.681c0,3.271-2.652,5.923-5.923,5.923c-3.271,0-5.923-2.652-5.923-5.923s2.652-5.923,5.923-5.923
	C101.434,171.758,104.086,174.41,104.086,177.681z M98.163,151.226c-3.271,0-5.923-2.652-5.923-5.923
	c0-3.271,2.652-5.923,5.923-5.923c3.271,0,5.923,2.652,5.923,5.923C104.086,148.573,101.434,151.226,98.163,151.226z
	 M95.019,161.492c0,3.271-2.652,5.923-5.923,5.923s-5.923-2.652-5.923-5.923s2.652-5.923,5.923-5.923S95.019,158.221,95.019,161.492
	z M86.271,177.681c0,3.271-2.652,5.923-5.923,5.923c-3.271,0-5.923-2.652-5.923-5.923s2.652-5.923,5.923-5.923
	C83.619,171.758,86.271,174.41,86.271,177.681z M80.349,151.226c-3.271,0-5.923-2.652-5.923-5.923c0-3.271,2.652-5.923,5.923-5.923
	c3.271,0,5.923,2.652,5.923,5.923C86.271,148.573,83.619,151.226,80.349,151.226z M77.205,161.492c0,3.271-2.652,5.923-5.923,5.923
	s-5.923-2.652-5.923-5.923s2.652-5.923,5.923-5.923S77.205,158.221,77.205,161.492z M68.457,177.681
	c0,3.271-2.652,5.923-5.923,5.923c-3.271,0-5.923-2.652-5.923-5.923s2.652-5.923,5.923-5.923
	C65.805,171.758,68.457,174.41,68.457,177.681z M62.534,151.226c-3.271,0-5.923-2.652-5.923-5.923c0-3.271,2.652-5.923,5.923-5.923
	c3.271,0,5.923,2.652,5.923,5.923C68.457,148.573,65.805,151.226,62.534,151.226z M59.39,161.492c0,3.271-2.652,5.923-5.923,5.923
	c-3.271,0-5.923-2.652-5.923-5.923s2.652-5.923,5.923-5.923C56.738,155.569,59.39,158.221,59.39,161.492z M44.72,151.226
	c-3.271,0-5.923-2.652-5.923-5.923c0-3.271,2.652-5.923,5.923-5.923s5.923,2.652,5.923,5.923
	C50.643,148.573,47.991,151.226,44.72,151.226z M50.643,177.681c0,3.271-2.652,5.923-5.923,5.923s-5.923-2.652-5.923-5.923
	s2.652-5.923,5.923-5.923S50.643,174.41,50.643,177.681z M50.643,210.06c0,3.271-2.652,5.923-5.923,5.923s-5.923-2.652-5.923-5.923
	c0-3.271,2.652-5.923,5.923-5.923S50.643,206.788,50.643,210.06z M47.544,193.87c0-3.271,2.652-5.923,5.923-5.923
	c3.271,0,5.923,2.651,5.923,5.923c0,3.271-2.652,5.923-5.923,5.923C50.197,199.793,47.544,197.141,47.544,193.87z M62.534,204.137
	c3.271,0,5.923,2.651,5.923,5.923c0,3.271-2.652,5.923-5.923,5.923c-3.271,0-5.923-2.652-5.923-5.923
	C56.611,206.788,59.263,204.137,62.534,204.137z M65.359,193.87c0-3.271,2.652-5.923,5.923-5.923s5.923,2.651,5.923,5.923
	c0,3.271-2.652,5.923-5.923,5.923S65.359,197.141,65.359,193.87z M80.349,204.137c3.271,0,5.923,2.651,5.923,5.923
	c0,3.271-2.652,5.923-5.923,5.923c-3.271,0-5.923-2.652-5.923-5.923C74.425,206.788,77.078,204.137,80.349,204.137z M83.173,193.87
	c0-3.271,2.652-5.923,5.923-5.923s5.923,2.651,5.923,5.923c0,3.271-2.652,5.923-5.923,5.923S83.173,197.141,83.173,193.87z
	 M98.163,204.137c3.271,0,5.923,2.651,5.923,5.923c0,3.271-2.652,5.923-5.923,5.923c-3.271,0-5.923-2.652-5.923-5.923
	C92.24,206.788,94.892,204.137,98.163,204.137z M100.988,193.87c0-3.271,2.652-5.923,5.923-5.923s5.923,2.651,5.923,5.923
	c0,3.271-2.652,5.923-5.923,5.923S100.988,197.141,100.988,193.87z M115.977,204.137c3.271,0,5.923,2.651,5.923,5.923
	c0,3.271-2.652,5.923-5.923,5.923c-3.271,0-5.923-2.652-5.923-5.923C110.054,206.788,112.707,204.137,115.977,204.137z
	 M118.802,193.87c0-3.271,2.652-5.923,5.923-5.923s5.923,2.651,5.923,5.923c0,3.271-2.652,5.923-5.923,5.923
	S118.802,197.141,118.802,193.87z M133.791,204.137c3.271,0,5.923,2.651,5.923,5.923c0,3.271-2.652,5.923-5.923,5.923
	s-5.923-2.652-5.923-5.923C127.868,206.788,130.52,204.137,133.791,204.137z M136.616,193.87c0-3.271,2.652-5.923,5.923-5.923
	c3.271,0,5.923,2.651,5.923,5.923c0,3.271-2.652,5.923-5.923,5.923C139.268,199.793,136.616,197.141,136.616,193.87z
	 M151.605,204.137c3.271,0,5.923,2.651,5.923,5.923c0,3.271-2.652,5.923-5.923,5.923s-5.923-2.652-5.923-5.923
	C145.683,206.788,148.334,204.137,151.605,204.137z M154.43,193.87c0-3.271,2.652-5.923,5.923-5.923
	c3.271,0,5.923,2.651,5.923,5.923c0,3.271-2.652,5.923-5.923,5.923C157.083,199.793,154.43,197.141,154.43,193.87z M169.42,204.137
	c3.271,0,5.923,2.651,5.923,5.923c0,3.271-2.652,5.923-5.923,5.923s-5.923-2.652-5.923-5.923
	C163.497,206.788,166.149,204.137,169.42,204.137z M172.245,193.87c0-3.271,2.652-5.923,5.923-5.923
	c3.271,0,5.923,2.651,5.923,5.923c0,3.271-2.652,5.923-5.923,5.923C174.897,199.793,172.245,197.141,172.245,193.87z
	 M187.234,204.137c3.271,0,5.923,2.651,5.923,5.923c0,3.271-2.652,5.923-5.923,5.923c-3.271,0-5.923-2.652-5.923-5.923
	C181.311,206.788,183.963,204.137,187.234,204.137z M190.059,193.87c0-3.271,2.652-5.923,5.923-5.923s5.923,2.651,5.923,5.923
	c0,3.271-2.652,5.923-5.923,5.923S190.059,197.141,190.059,193.87z M205.048,204.137c3.271,0,5.923,2.651,5.923,5.923
	c0,3.271-2.652,5.923-5.923,5.923s-5.923-2.652-5.923-5.923C199.125,206.788,201.777,204.137,205.048,204.137z M207.873,193.87
	c0-3.271,2.652-5.923,5.923-5.923s5.923,2.651,5.923,5.923c0,3.271-2.652,5.923-5.923,5.923S207.873,197.141,207.873,193.87z
	 M222.862,204.137c3.271,0,5.923,2.651,5.923,5.923c0,3.271-2.652,5.923-5.923,5.923c-3.271,0-5.923-2.652-5.923-5.923
	C216.939,206.788,219.591,204.137,222.862,204.137z M225.688,193.87c0-3.271,2.652-5.923,5.922-5.923
	c3.271,0,5.924,2.651,5.924,5.923c0,3.271-2.652,5.923-5.924,5.923C228.34,199.793,225.688,197.141,225.688,193.87z
	 M240.678,204.137c3.27,0,5.922,2.651,5.922,5.923c0,3.271-2.652,5.923-5.922,5.923c-3.271,0-5.924-2.652-5.924-5.923
	C234.754,206.788,237.406,204.137,240.678,204.137z M243.502,193.87c0-3.271,2.652-5.923,5.922-5.923
	c3.271,0,5.924,2.651,5.924,5.923c0,3.271-2.652,5.923-5.924,5.923C246.154,199.793,243.502,197.141,243.502,193.87z
	 M258.49,204.137c3.271,0,5.924,2.651,5.924,5.923c0,3.271-2.652,5.923-5.924,5.923c-3.27,0-5.922-2.652-5.922-5.923
	C252.568,206.788,255.221,204.137,258.49,204.137z M261.316,193.87c0-3.271,2.652-5.923,5.922-5.923
	c3.271,0,5.924,2.651,5.924,5.923c0,3.271-2.652,5.923-5.924,5.923C263.969,199.793,261.316,197.141,261.316,193.87z
	 M276.305,204.137c3.271,0,5.924,2.651,5.924,5.923c0,3.271-2.652,5.923-5.924,5.923c-3.27,0-5.922-2.652-5.922-5.923
	C270.383,206.788,273.035,204.137,276.305,204.137z M279.131,193.87c0-3.271,2.65-5.923,5.922-5.923s5.924,2.651,5.924,5.923
	c0,3.271-2.652,5.923-5.924,5.923S279.131,197.141,279.131,193.87z M294.119,204.137c3.271,0,5.924,2.651,5.924,5.923
	c0,3.271-2.652,5.923-5.924,5.923s-5.922-2.652-5.922-5.923C288.197,206.788,290.848,204.137,294.119,204.137z M296.945,193.87
	c0-3.271,2.65-5.923,5.922-5.923s5.924,2.651,5.924,5.923c0,3.271-2.652,5.923-5.924,5.923S296.945,197.141,296.945,193.87z
	 M311.936,204.137c3.271,0,5.922,2.651,5.922,5.923c0,3.271-2.65,5.923-5.922,5.923s-5.924-2.652-5.924-5.923
	C306.012,206.788,308.664,204.137,311.936,204.137z M314.758,193.87c0-3.271,2.652-5.923,5.924-5.923s5.924,2.651,5.924,5.923
	c0,3.271-2.652,5.923-5.924,5.923S314.758,197.141,314.758,193.87z M329.748,204.137c3.271,0,5.922,2.651,5.922,5.923
	c0,3.271-2.65,5.923-5.922,5.923s-5.924-2.652-5.924-5.923C323.824,206.788,326.477,204.137,329.748,204.137z M332.572,193.87
	c0-3.271,2.652-5.923,5.924-5.923s5.922,2.651,5.922,5.923c0,3.271-2.65,5.923-5.922,5.923S332.572,197.141,332.572,193.87z
	 M347.562,204.137c3.271,0,5.924,2.651,5.924,5.923c0,3.271-2.652,5.923-5.924,5.923s-5.922-2.652-5.922-5.923
	C341.641,206.788,344.291,204.137,347.562,204.137z M350.387,193.87c0-3.271,2.652-5.923,5.924-5.923s5.922,2.651,5.922,5.923
	c0,3.271-2.65,5.923-5.922,5.923S350.387,197.141,350.387,193.87z M365.377,204.137c3.271,0,5.924,2.651,5.924,5.923
	c0,3.271-2.652,5.923-5.924,5.923s-5.922-2.652-5.922-5.923C359.455,206.788,362.105,204.137,365.377,204.137z M368.201,193.87
	c0-3.271,2.652-5.923,5.924-5.923s5.922,2.651,5.922,5.923c0,3.271-2.65,5.923-5.922,5.923S368.201,197.141,368.201,193.87z
	 M383.189,204.137c3.271,0,5.924,2.651,5.924,5.923c0,3.271-2.652,5.923-5.924,5.923s-5.922-2.652-5.922-5.923
	C377.268,206.788,379.918,204.137,383.189,204.137z M386.016,193.87c0-3.271,2.65-5.923,5.922-5.923s5.924,2.651,5.924,5.923
	c0,3.271-2.652,5.923-5.924,5.923S386.016,197.141,386.016,193.87z M401.006,204.137c3.271,0,5.922,2.651,5.922,5.923
	c0,3.271-2.65,5.923-5.922,5.923s-5.924-2.652-5.924-5.923C395.082,206.788,397.734,204.137,401.006,204.137z M403.83,193.87
	c0-3.271,2.652-5.923,5.924-5.923s5.922,2.651,5.922,5.923c0,3.271-2.65,5.923-5.922,5.923S403.83,197.141,403.83,193.87z
	 M403.83,161.492c0-3.271,2.652-5.923,5.924-5.923s5.922,2.652,5.922,5.923s-2.65,5.923-5.922,5.923S403.83,164.763,403.83,161.492z
	 M403.83,129.113c0-3.271,2.652-5.923,5.924-5.923s5.922,2.652,5.922,5.923s-2.65,5.923-5.922,5.923S403.83,132.384,403.83,129.113z
	 M401.006,118.847c-3.271,0-5.924-2.652-5.924-5.923s2.652-5.923,5.924-5.923s5.922,2.652,5.922,5.923
	S404.277,118.847,401.006,118.847z M397.861,129.113c0,3.271-2.652,5.923-5.924,5.923s-5.922-2.652-5.922-5.923
	s2.65-5.923,5.922-5.923S397.861,125.842,397.861,129.113z M383.189,118.847c-3.271,0-5.922-2.652-5.922-5.923
	s2.65-5.923,5.922-5.923s5.924,2.652,5.924,5.923S386.461,118.847,383.189,118.847z M380.047,129.113
	c0,3.271-2.65,5.923-5.922,5.923s-5.924-2.652-5.924-5.923s2.652-5.923,5.924-5.923S380.047,125.842,380.047,129.113z
	 M365.377,118.847c-3.271,0-5.922-2.652-5.922-5.923s2.65-5.923,5.922-5.923s5.924,2.652,5.924,5.923
	S368.648,118.847,365.377,118.847z M362.232,129.113c0,3.271-2.65,5.923-5.922,5.923s-5.924-2.652-5.924-5.923
	s2.652-5.923,5.924-5.923S362.232,125.842,362.232,129.113z M347.562,118.847c-3.271,0-5.922-2.652-5.922-5.923
	s2.65-5.923,5.922-5.923s5.924,2.652,5.924,5.923S350.834,118.847,347.562,118.847z M344.418,129.113
	c0,3.271-2.65,5.923-5.922,5.923s-5.924-2.652-5.924-5.923s2.652-5.923,5.924-5.923S344.418,125.842,344.418,129.113z
	 M329.748,118.847c-3.271,0-5.924-2.652-5.924-5.923s2.652-5.923,5.924-5.923s5.922,2.652,5.922,5.923
	S333.02,118.847,329.748,118.847z M326.605,129.113c0,3.271-2.652,5.923-5.924,5.923s-5.924-2.652-5.924-5.923
	s2.652-5.923,5.924-5.923S326.605,125.842,326.605,129.113z M311.936,118.847c-3.271,0-5.924-2.652-5.924-5.923
	s2.652-5.923,5.924-5.923s5.922,2.652,5.922,5.923S315.207,118.847,311.936,118.847z M308.791,129.113
	c0,3.271-2.652,5.923-5.924,5.923s-5.922-2.652-5.922-5.923s2.65-5.923,5.922-5.923S308.791,125.842,308.791,129.113z
	 M294.119,118.847c-3.271,0-5.922-2.652-5.922-5.923s2.65-5.923,5.922-5.923s5.924,2.652,5.924,5.923
	S297.391,118.847,294.119,118.847z M290.977,129.113c0,3.271-2.652,5.923-5.924,5.923s-5.922-2.652-5.922-5.923
	s2.65-5.923,5.922-5.923S290.977,125.842,290.977,129.113z M276.305,118.847c-3.27,0-5.922-2.652-5.922-5.923
	s2.652-5.923,5.922-5.923c3.271,0,5.924,2.652,5.924,5.923S279.576,118.847,276.305,118.847z M273.162,129.113
	c0,3.271-2.652,5.923-5.924,5.923c-3.27,0-5.922-2.652-5.922-5.923s2.652-5.923,5.922-5.923
	C270.51,123.19,273.162,125.842,273.162,129.113z M258.49,118.847c-3.27,0-5.922-2.652-5.922-5.923s2.652-5.923,5.922-5.923
	c3.271,0,5.924,2.652,5.924,5.923S261.762,118.847,258.49,118.847z M255.348,129.113c0,3.271-2.652,5.923-5.924,5.923
	c-3.27,0-5.922-2.652-5.922-5.923s2.652-5.923,5.922-5.923C252.695,123.19,255.348,125.842,255.348,129.113z M240.678,118.847
	c-3.271,0-5.924-2.652-5.924-5.923s2.652-5.923,5.924-5.923c3.27,0,5.922,2.652,5.922,5.923S243.947,118.847,240.678,118.847z
	 M237.533,129.113c0,3.271-2.652,5.923-5.924,5.923c-3.27,0-5.922-2.652-5.922-5.923s2.652-5.923,5.922-5.923
	C234.881,123.19,237.533,125.842,237.533,129.113z M222.862,118.847c-3.271,0-5.923-2.652-5.923-5.923s2.652-5.923,5.923-5.923
	c3.271,0,5.923,2.652,5.923,5.923S226.133,118.847,222.862,118.847z M219.719,129.113c0,3.271-2.652,5.923-5.923,5.923
	s-5.923-2.652-5.923-5.923s2.652-5.923,5.923-5.923S219.719,125.842,219.719,129.113z M205.048,118.847
	c-3.271,0-5.923-2.652-5.923-5.923s2.652-5.923,5.923-5.923s5.923,2.652,5.923,5.923S208.319,118.847,205.048,118.847z
	 M201.904,129.113c0,3.271-2.652,5.923-5.923,5.923s-5.923-2.652-5.923-5.923s2.652-5.923,5.923-5.923
	S201.904,125.842,201.904,129.113z M187.234,118.847c-3.271,0-5.923-2.652-5.923-5.923s2.652-5.923,5.923-5.923
	c3.271,0,5.923,2.652,5.923,5.923S190.505,118.847,187.234,118.847z M184.09,129.113c0,3.271-2.652,5.923-5.923,5.923
	c-3.271,0-5.923-2.652-5.923-5.923s2.652-5.923,5.923-5.923C181.438,123.19,184.09,125.842,184.09,129.113z M169.42,118.847
	c-3.271,0-5.923-2.652-5.923-5.923s2.652-5.923,5.923-5.923s5.923,2.652,5.923,5.923S172.691,118.847,169.42,118.847z
	 M166.276,129.113c0,3.271-2.652,5.923-5.923,5.923c-3.271,0-5.923-2.652-5.923-5.923s2.652-5.923,5.923-5.923
	C163.624,123.19,166.276,125.842,166.276,129.113z M151.605,118.847c-3.271,0-5.923-2.652-5.923-5.923s2.652-5.923,5.923-5.923
	s5.923,2.652,5.923,5.923S154.876,118.847,151.605,118.847z M148.462,129.113c0,3.271-2.652,5.923-5.923,5.923
	c-3.271,0-5.923-2.652-5.923-5.923s2.652-5.923,5.923-5.923C145.81,123.19,148.462,125.842,148.462,129.113z M133.791,118.847
	c-3.271,0-5.923-2.652-5.923-5.923s2.652-5.923,5.923-5.923s5.923,2.652,5.923,5.923S137.062,118.847,133.791,118.847z
	 M130.647,129.113c0,3.271-2.652,5.923-5.923,5.923s-5.923-2.652-5.923-5.923s2.652-5.923,5.923-5.923
	S130.647,125.842,130.647,129.113z M115.977,118.847c-3.271,0-5.923-2.652-5.923-5.923s2.652-5.923,5.923-5.923
	c3.271,0,5.923,2.652,5.923,5.923S119.248,118.847,115.977,118.847z M112.833,129.113c0,3.271-2.652,5.923-5.923,5.923
	s-5.923-2.652-5.923-5.923s2.652-5.923,5.923-5.923S112.833,125.842,112.833,129.113z M98.163,118.847
	c-3.271,0-5.923-2.652-5.923-5.923s2.652-5.923,5.923-5.923c3.271,0,5.923,2.652,5.923,5.923S101.434,118.847,98.163,118.847z
	 M95.019,129.113c0,3.271-2.652,5.923-5.923,5.923s-5.923-2.652-5.923-5.923s2.652-5.923,5.923-5.923S95.019,125.842,95.019,129.113
	z M80.349,118.847c-3.271,0-5.923-2.652-5.923-5.923s2.652-5.923,5.923-5.923c3.271,0,5.923,2.652,5.923,5.923
	S83.619,118.847,80.349,118.847z M77.205,129.113c0,3.271-2.652,5.923-5.923,5.923s-5.923-2.652-5.923-5.923
	s2.652-5.923,5.923-5.923S77.205,125.842,77.205,129.113z M62.534,118.847c-3.271,0-5.923-2.652-5.923-5.923
	s2.652-5.923,5.923-5.923c3.271,0,5.923,2.652,5.923,5.923S65.805,118.847,62.534,118.847z M59.39,129.113
	c0,3.271-2.652,5.923-5.923,5.923c-3.271,0-5.923-2.652-5.923-5.923s2.652-5.923,5.923-5.923
	C56.738,123.19,59.39,125.842,59.39,129.113z M44.72,118.847c-3.271,0-5.923-2.652-5.923-5.923s2.652-5.923,5.923-5.923
	s5.923,2.652,5.923,5.923S47.991,118.847,44.72,118.847z M41.577,129.113c0,3.271-2.652,5.923-5.923,5.923
	c-3.271,0-5.923-2.652-5.923-5.923s2.652-5.923,5.923-5.923C38.924,123.19,41.577,125.842,41.577,129.113z M41.577,161.492
	c0,3.271-2.652,5.923-5.923,5.923c-3.271,0-5.923-2.652-5.923-5.923s2.652-5.923,5.923-5.923
	C38.924,155.569,41.577,158.221,41.577,161.492z M41.577,193.87c0,3.271-2.652,5.923-5.923,5.923c-3.271,0-5.923-2.652-5.923-5.923
	c0-3.271,2.652-5.923,5.923-5.923C38.924,187.947,41.577,190.599,41.577,193.87z M41.577,226.248c0,3.271-2.652,5.924-5.923,5.924
	c-3.271,0-5.923-2.652-5.923-5.924c0-3.271,2.652-5.923,5.923-5.923C38.924,220.325,41.577,222.978,41.577,226.248z M44.72,236.516
	c3.271,0,5.923,2.652,5.923,5.924c0,3.27-2.652,5.922-5.923,5.922s-5.923-2.652-5.923-5.922
	C38.797,239.168,41.449,236.516,44.72,236.516z M47.544,226.248c0-3.271,2.652-5.923,5.923-5.923c3.271,0,5.923,2.652,5.923,5.923
	c0,3.271-2.652,5.924-5.923,5.924C50.197,232.172,47.544,229.52,47.544,226.248z M62.534,236.516c3.271,0,5.923,2.652,5.923,5.924
	c0,3.27-2.652,5.922-5.923,5.922c-3.271,0-5.923-2.652-5.923-5.922C56.611,239.168,59.263,236.516,62.534,236.516z M65.359,226.248
	c0-3.271,2.652-5.923,5.923-5.923s5.923,2.652,5.923,5.923c0,3.271-2.652,5.924-5.923,5.924S65.359,229.52,65.359,226.248z
	 M80.349,236.516c3.271,0,5.923,2.652,5.923,5.924c0,3.27-2.652,5.922-5.923,5.922c-3.271,0-5.923-2.652-5.923-5.922
	C74.425,239.168,77.078,236.516,80.349,236.516z M83.173,226.248c0-3.271,2.652-5.923,5.923-5.923s5.923,2.652,5.923,5.923
	c0,3.271-2.652,5.924-5.923,5.924S83.173,229.52,83.173,226.248z M98.163,236.516c3.271,0,5.923,2.652,5.923,5.924
	c0,3.27-2.652,5.922-5.923,5.922c-3.271,0-5.923-2.652-5.923-5.922C92.24,239.168,94.892,236.516,98.163,236.516z M100.988,226.248
	c0-3.271,2.652-5.923,5.923-5.923s5.923,2.652,5.923,5.923c0,3.271-2.652,5.924-5.923,5.924S100.988,229.52,100.988,226.248z
	 M115.977,236.516c3.271,0,5.923,2.652,5.923,5.924c0,3.27-2.652,5.922-5.923,5.922c-3.271,0-5.923-2.652-5.923-5.922
	C110.054,239.168,112.707,236.516,115.977,236.516z M118.802,226.248c0-3.271,2.652-5.923,5.923-5.923s5.923,2.652,5.923,5.923
	c0,3.271-2.652,5.924-5.923,5.924S118.802,229.52,118.802,226.248z M133.791,236.516c3.271,0,5.923,2.652,5.923,5.924
	c0,3.27-2.652,5.922-5.923,5.922s-5.923-2.652-5.923-5.922C127.868,239.168,130.52,236.516,133.791,236.516z M136.616,226.248
	c0-3.271,2.652-5.923,5.923-5.923c3.271,0,5.923,2.652,5.923,5.923c0,3.271-2.652,5.924-5.923,5.924
	C139.268,232.172,136.616,229.52,136.616,226.248z M151.605,236.516c3.271,0,5.923,2.652,5.923,5.924
	c0,3.27-2.652,5.922-5.923,5.922s-5.923-2.652-5.923-5.922C145.683,239.168,148.334,236.516,151.605,236.516z M154.43,226.248
	c0-3.271,2.652-5.923,5.923-5.923c3.271,0,5.923,2.652,5.923,5.923c0,3.271-2.652,5.924-5.923,5.924
	C157.083,232.172,154.43,229.52,154.43,226.248z M169.42,236.516c3.271,0,5.923,2.652,5.923,5.924c0,3.27-2.652,5.922-5.923,5.922
	s-5.923-2.652-5.923-5.922C163.497,239.168,166.149,236.516,169.42,236.516z M172.245,226.248c0-3.271,2.652-5.923,5.923-5.923
	c3.271,0,5.923,2.652,5.923,5.923c0,3.271-2.652,5.924-5.923,5.924C174.897,232.172,172.245,229.52,172.245,226.248z
	 M187.234,236.516c3.271,0,5.923,2.652,5.923,5.924c0,3.27-2.652,5.922-5.923,5.922c-3.271,0-5.923-2.652-5.923-5.922
	C181.311,239.168,183.963,236.516,187.234,236.516z M190.059,226.248c0-3.271,2.652-5.923,5.923-5.923s5.923,2.652,5.923,5.923
	c0,3.271-2.652,5.924-5.923,5.924S190.059,229.52,190.059,226.248z M205.048,236.516c3.271,0,5.923,2.652,5.923,5.924
	c0,3.27-2.652,5.922-5.923,5.922s-5.923-2.652-5.923-5.922C199.125,239.168,201.777,236.516,205.048,236.516z M207.873,226.248
	c0-3.271,2.652-5.923,5.923-5.923s5.923,2.652,5.923,5.923c0,3.271-2.652,5.924-5.923,5.924S207.873,229.52,207.873,226.248z
	 M222.862,236.516c3.271,0,5.923,2.652,5.923,5.924c0,3.27-2.652,5.922-5.923,5.922c-3.271,0-5.923-2.652-5.923-5.922
	C216.939,239.168,219.591,236.516,222.862,236.516z M225.688,226.248c0-3.271,2.652-5.923,5.922-5.923
	c3.271,0,5.924,2.652,5.924,5.923c0,3.271-2.652,5.924-5.924,5.924C228.34,232.172,225.688,229.52,225.688,226.248z
	 M240.678,236.516c3.27,0,5.922,2.652,5.922,5.924c0,3.27-2.652,5.922-5.922,5.922c-3.271,0-5.924-2.652-5.924-5.922
	C234.754,239.168,237.406,236.516,240.678,236.516z M243.502,226.248c0-3.271,2.652-5.923,5.922-5.923
	c3.271,0,5.924,2.652,5.924,5.923c0,3.271-2.652,5.924-5.924,5.924C246.154,232.172,243.502,229.52,243.502,226.248z
	 M258.49,236.516c3.271,0,5.924,2.652,5.924,5.924c0,3.27-2.652,5.922-5.924,5.922c-3.27,0-5.922-2.652-5.922-5.922
	C252.568,239.168,255.221,236.516,258.49,236.516z M261.316,226.248c0-3.271,2.652-5.923,5.922-5.923
	c3.271,0,5.924,2.652,5.924,5.923c0,3.271-2.652,5.924-5.924,5.924C263.969,232.172,261.316,229.52,261.316,226.248z
	 M276.305,236.516c3.271,0,5.924,2.652,5.924,5.924c0,3.27-2.652,5.922-5.924,5.922c-3.27,0-5.922-2.652-5.922-5.922
	C270.383,239.168,273.035,236.516,276.305,236.516z M279.131,226.248c0-3.271,2.65-5.923,5.922-5.923s5.924,2.652,5.924,5.923
	c0,3.271-2.652,5.924-5.924,5.924S279.131,229.52,279.131,226.248z M294.119,236.516c3.271,0,5.924,2.652,5.924,5.924
	c0,3.27-2.652,5.922-5.924,5.922s-5.922-2.652-5.922-5.922C288.197,239.168,290.848,236.516,294.119,236.516z M296.945,226.248
	c0-3.271,2.65-5.923,5.922-5.923s5.924,2.652,5.924,5.923c0,3.271-2.652,5.924-5.924,5.924S296.945,229.52,296.945,226.248z
	 M311.936,236.516c3.271,0,5.922,2.652,5.922,5.924c0,3.27-2.65,5.922-5.922,5.922s-5.924-2.652-5.924-5.922
	C306.012,239.168,308.664,236.516,311.936,236.516z M314.758,226.248c0-3.271,2.652-5.923,5.924-5.923s5.924,2.652,5.924,5.923
	c0,3.271-2.652,5.924-5.924,5.924S314.758,229.52,314.758,226.248z M329.748,236.516c3.271,0,5.922,2.652,5.922,5.924
	c0,3.27-2.65,5.922-5.922,5.922s-5.924-2.652-5.924-5.922C323.824,239.168,326.477,236.516,329.748,236.516z M332.572,226.248
	c0-3.271,2.652-5.923,5.924-5.923s5.922,2.652,5.922,5.923c0,3.271-2.65,5.924-5.922,5.924S332.572,229.52,332.572,226.248z
	 M347.562,236.516c3.271,0,5.924,2.652,5.924,5.924c0,3.27-2.652,5.922-5.924,5.922s-5.922-2.652-5.922-5.922
	C341.641,239.168,344.291,236.516,347.562,236.516z M350.387,226.248c0-3.271,2.652-5.923,5.924-5.923s5.922,2.652,5.922,5.923
	c0,3.271-2.65,5.924-5.922,5.924S350.387,229.52,350.387,226.248z M365.377,236.516c3.271,0,5.924,2.652,5.924,5.924
	c0,3.27-2.652,5.922-5.924,5.922s-5.922-2.652-5.922-5.922C359.455,239.168,362.105,236.516,365.377,236.516z M368.201,226.248
	c0-3.271,2.652-5.923,5.924-5.923s5.922,2.652,5.922,5.923c0,3.271-2.65,5.924-5.922,5.924S368.201,229.52,368.201,226.248z
	 M383.189,236.516c3.271,0,5.924,2.652,5.924,5.924c0,3.27-2.652,5.922-5.924,5.922s-5.922-2.652-5.922-5.922
	C377.268,239.168,379.918,236.516,383.189,236.516z M386.016,226.248c0-3.271,2.65-5.923,5.922-5.923s5.924,2.652,5.924,5.923
	c0,3.271-2.652,5.924-5.924,5.924S386.016,229.52,386.016,226.248z M401.006,236.516c3.271,0,5.922,2.652,5.922,5.924
	c0,3.27-2.65,5.922-5.922,5.922s-5.924-2.652-5.924-5.922C395.082,239.168,397.734,236.516,401.006,236.516z M403.83,226.248
	c0-3.271,2.652-5.923,5.924-5.923s5.922,2.652,5.922,5.923c0,3.271-2.65,5.924-5.922,5.924S403.83,229.52,403.83,226.248z
	 M418.82,236.516c3.271,0,5.922,2.652,5.922,5.924c0,3.27-2.65,5.922-5.922,5.922s-5.924-2.652-5.924-5.922
	C412.896,239.168,415.549,236.516,418.82,236.516z M412.896,210.06c0-3.271,2.652-5.923,5.924-5.923s5.922,2.651,5.922,5.923
	c0,3.271-2.65,5.923-5.922,5.923S412.896,213.33,412.896,210.06z M412.896,177.681c0-3.271,2.652-5.923,5.924-5.923
	s5.922,2.652,5.922,5.923s-2.65,5.923-5.922,5.923S412.896,180.952,412.896,177.681z M412.896,145.303
	c0-3.271,2.652-5.923,5.924-5.923s5.922,2.652,5.922,5.923c0,3.271-2.65,5.923-5.922,5.923S412.896,148.573,412.896,145.303z
	 M412.896,112.924c0-3.271,2.652-5.923,5.924-5.923s5.922,2.652,5.922,5.923s-2.65,5.923-5.922,5.923
	S412.896,116.195,412.896,112.924z M412.896,80.94c0-3.271,2.652-5.923,5.924-5.923s5.922,2.652,5.922,5.923
	s-2.65,5.923-5.922,5.923S412.896,84.211,412.896,80.94z M415.676,97.129c0,3.271-2.65,5.923-5.922,5.923s-5.924-2.652-5.924-5.923
	c0-3.271,2.652-5.923,5.924-5.923S415.676,93.858,415.676,97.129z M401.006,86.863c-3.271,0-5.924-2.652-5.924-5.923
	s2.652-5.923,5.924-5.923s5.922,2.652,5.922,5.923S404.277,86.863,401.006,86.863z M397.861,97.129c0,3.271-2.652,5.923-5.924,5.923
	s-5.922-2.652-5.922-5.923c0-3.271,2.65-5.923,5.922-5.923S397.861,93.858,397.861,97.129z M383.189,86.863
	c-3.271,0-5.922-2.652-5.922-5.923s2.65-5.923,5.922-5.923s5.924,2.652,5.924,5.923S386.461,86.863,383.189,86.863z M380.047,97.129
	c0,3.271-2.65,5.923-5.922,5.923s-5.924-2.652-5.924-5.923c0-3.271,2.652-5.923,5.924-5.923S380.047,93.858,380.047,97.129z
	 M365.377,86.863c-3.271,0-5.922-2.652-5.922-5.923s2.65-5.923,5.922-5.923s5.924,2.652,5.924,5.923S368.648,86.863,365.377,86.863z
	 M362.232,97.129c0,3.271-2.65,5.923-5.922,5.923s-5.924-2.652-5.924-5.923c0-3.271,2.652-5.923,5.924-5.923
	S362.232,93.858,362.232,97.129z M347.562,86.863c-3.271,0-5.922-2.652-5.922-5.923s2.65-5.923,5.922-5.923s5.924,2.652,5.924,5.923
	S350.834,86.863,347.562,86.863z M344.418,97.129c0,3.271-2.65,5.923-5.922,5.923s-5.924-2.652-5.924-5.923
	c0-3.271,2.652-5.923,5.924-5.923S344.418,93.858,344.418,97.129z M329.748,86.863c-3.271,0-5.924-2.652-5.924-5.923
	s2.652-5.923,5.924-5.923s5.922,2.652,5.922,5.923S333.02,86.863,329.748,86.863z M326.605,97.129c0,3.271-2.652,5.923-5.924,5.923
	s-5.924-2.652-5.924-5.923c0-3.271,2.652-5.923,5.924-5.923S326.605,93.858,326.605,97.129z M311.936,86.863
	c-3.271,0-5.924-2.652-5.924-5.923s2.652-5.923,5.924-5.923s5.922,2.652,5.922,5.923S315.207,86.863,311.936,86.863z
	 M308.791,97.129c0,3.271-2.652,5.923-5.924,5.923s-5.922-2.652-5.922-5.923c0-3.271,2.65-5.923,5.922-5.923
	S308.791,93.858,308.791,97.129z M294.119,86.863c-3.271,0-5.922-2.652-5.922-5.923s2.65-5.923,5.922-5.923s5.924,2.652,5.924,5.923
	S297.391,86.863,294.119,86.863z M290.977,97.129c0,3.271-2.652,5.923-5.924,5.923s-5.922-2.652-5.922-5.923
	c0-3.271,2.65-5.923,5.922-5.923S290.977,93.858,290.977,97.129z M276.305,86.863c-3.27,0-5.922-2.652-5.922-5.923
	s2.652-5.923,5.922-5.923c3.271,0,5.924,2.652,5.924,5.923S279.576,86.863,276.305,86.863z M273.162,97.129
	c0,3.271-2.652,5.923-5.924,5.923c-3.27,0-5.922-2.652-5.922-5.923c0-3.271,2.652-5.923,5.922-5.923
	C270.51,91.206,273.162,93.858,273.162,97.129z M258.49,86.863c-3.27,0-5.922-2.652-5.922-5.923s2.652-5.923,5.922-5.923
	c3.271,0,5.924,2.652,5.924,5.923S261.762,86.863,258.49,86.863z M255.348,97.129c0,3.271-2.652,5.923-5.924,5.923
	c-3.27,0-5.922-2.652-5.922-5.923c0-3.271,2.652-5.923,5.922-5.923C252.695,91.206,255.348,93.858,255.348,97.129z M240.678,86.863
	c-3.271,0-5.924-2.652-5.924-5.923s2.652-5.923,5.924-5.923c3.27,0,5.922,2.652,5.922,5.923S243.947,86.863,240.678,86.863z
	 M237.533,97.129c0,3.271-2.652,5.923-5.924,5.923c-3.27,0-5.922-2.652-5.922-5.923c0-3.271,2.652-5.923,5.922-5.923
	C234.881,91.206,237.533,93.858,237.533,97.129z M222.862,86.863c-3.271,0-5.923-2.652-5.923-5.923s2.652-5.923,5.923-5.923
	c3.271,0,5.923,2.652,5.923,5.923S226.133,86.863,222.862,86.863z M219.719,97.129c0,3.271-2.652,5.923-5.923,5.923
	s-5.923-2.652-5.923-5.923c0-3.271,2.652-5.923,5.923-5.923S219.719,93.858,219.719,97.129z M205.048,86.863
	c-3.271,0-5.923-2.652-5.923-5.923s2.652-5.923,5.923-5.923s5.923,2.652,5.923,5.923S208.319,86.863,205.048,86.863z
	 M201.904,97.129c0,3.271-2.652,5.923-5.923,5.923s-5.923-2.652-5.923-5.923c0-3.271,2.652-5.923,5.923-5.923
	S201.904,93.858,201.904,97.129z M187.234,86.863c-3.271,0-5.923-2.652-5.923-5.923s2.652-5.923,5.923-5.923
	c3.271,0,5.923,2.652,5.923,5.923S190.505,86.863,187.234,86.863z M184.09,97.129c0,3.271-2.652,5.923-5.923,5.923
	c-3.271,0-5.923-2.652-5.923-5.923c0-3.271,2.652-5.923,5.923-5.923C181.438,91.206,184.09,93.858,184.09,97.129z M169.42,86.863
	c-3.271,0-5.923-2.652-5.923-5.923s2.652-5.923,5.923-5.923s5.923,2.652,5.923,5.923S172.691,86.863,169.42,86.863z M166.276,97.129
	c0,3.271-2.652,5.923-5.923,5.923c-3.271,0-5.923-2.652-5.923-5.923c0-3.271,2.652-5.923,5.923-5.923
	C163.624,91.206,166.276,93.858,166.276,97.129z M151.605,86.863c-3.271,0-5.923-2.652-5.923-5.923s2.652-5.923,5.923-5.923
	s5.923,2.652,5.923,5.923S154.876,86.863,151.605,86.863z M148.462,97.129c0,3.271-2.652,5.923-5.923,5.923
	c-3.271,0-5.923-2.652-5.923-5.923c0-3.271,2.652-5.923,5.923-5.923C145.81,91.206,148.462,93.858,148.462,97.129z M133.791,86.863
	c-3.271,0-5.923-2.652-5.923-5.923s2.652-5.923,5.923-5.923s5.923,2.652,5.923,5.923S137.062,86.863,133.791,86.863z
	 M130.647,97.129c0,3.271-2.652,5.923-5.923,5.923s-5.923-2.652-5.923-5.923c0-3.271,2.652-5.923,5.923-5.923
	S130.647,93.858,130.647,97.129z M115.977,86.863c-3.271,0-5.923-2.652-5.923-5.923s2.652-5.923,5.923-5.923
	c3.271,0,5.923,2.652,5.923,5.923S119.248,86.863,115.977,86.863z M112.833,97.129c0,3.271-2.652,5.923-5.923,5.923
	s-5.923-2.652-5.923-5.923c0-3.271,2.652-5.923,5.923-5.923S112.833,93.858,112.833,97.129z M98.163,86.863
	c-3.271,0-5.923-2.652-5.923-5.923s2.652-5.923,5.923-5.923c3.271,0,5.923,2.652,5.923,5.923S101.434,86.863,98.163,86.863z
	 M95.019,97.129c0,3.271-2.652,5.923-5.923,5.923s-5.923-2.652-5.923-5.923c0-3.271,2.652-5.923,5.923-5.923
	S95.019,93.858,95.019,97.129z M80.349,86.863c-3.271,0-5.923-2.652-5.923-5.923s2.652-5.923,5.923-5.923
	c3.271,0,5.923,2.652,5.923,5.923S83.619,86.863,80.349,86.863z M77.205,97.129c0,3.271-2.652,5.923-5.923,5.923
	s-5.923-2.652-5.923-5.923c0-3.271,2.652-5.923,5.923-5.923S77.205,93.858,77.205,97.129z M62.534,86.863
	c-3.271,0-5.923-2.652-5.923-5.923s2.652-5.923,5.923-5.923c3.271,0,5.923,2.652,5.923,5.923S65.805,86.863,62.534,86.863z
	 M59.39,97.129c0,3.271-2.652,5.923-5.923,5.923c-3.271,0-5.923-2.652-5.923-5.923c0-3.271,2.652-5.923,5.923-5.923
	C56.738,91.206,59.39,93.858,59.39,97.129z M44.72,86.863c-3.271,0-5.923-2.652-5.923-5.923s2.652-5.923,5.923-5.923
	s5.923,2.652,5.923,5.923S47.991,86.863,44.72,86.863z M41.577,97.129c0,3.271-2.652,5.923-5.923,5.923
	c-3.271,0-5.923-2.652-5.923-5.923c0-3.271,2.652-5.923,5.923-5.923C38.924,91.206,41.577,93.858,41.577,97.129z M26.906,86.863
	c-3.271,0-5.923-2.652-5.923-5.923s2.652-5.923,5.923-5.923s5.923,2.652,5.923,5.923S30.177,86.863,26.906,86.863z M32.829,112.924
	c0,3.271-2.652,5.923-5.923,5.923s-5.923-2.652-5.923-5.923s2.652-5.923,5.923-5.923S32.829,109.653,32.829,112.924z
	 M32.829,145.303c0,3.271-2.652,5.923-5.923,5.923s-5.923-2.652-5.923-5.923c0-3.271,2.652-5.923,5.923-5.923
	S32.829,142.032,32.829,145.303z M32.829,177.681c0,3.271-2.652,5.923-5.923,5.923s-5.923-2.652-5.923-5.923
	s2.652-5.923,5.923-5.923S32.829,174.41,32.829,177.681z M32.829,210.06c0,3.271-2.652,5.923-5.923,5.923s-5.923-2.652-5.923-5.923
	c0-3.271,2.652-5.923,5.923-5.923S32.829,206.788,32.829,210.06z M32.829,242.439c0,3.27-2.652,5.922-5.923,5.922
	s-5.923-2.652-5.923-5.922c0-3.271,2.652-5.924,5.923-5.924S32.829,239.168,32.829,242.439z M32.829,274.816
	c0,3.271-2.652,5.924-5.923,5.924s-5.923-2.652-5.923-5.924c0-3.27,2.652-5.922,5.923-5.922S32.829,271.547,32.829,274.816z
	 M29.731,258.627c0-3.271,2.652-5.922,5.923-5.922c3.271,0,5.923,2.65,5.923,5.922s-2.652,5.924-5.923,5.924
	C32.383,264.551,29.731,261.898,29.731,258.627z M44.72,268.895c3.271,0,5.923,2.652,5.923,5.922c0,3.271-2.652,5.924-5.923,5.924
	s-5.923-2.652-5.923-5.924C38.797,271.547,41.449,268.895,44.72,268.895z M47.544,258.627c0-3.271,2.652-5.922,5.923-5.922
	c3.271,0,5.923,2.65,5.923,5.922s-2.652,5.924-5.923,5.924C50.197,264.551,47.544,261.898,47.544,258.627z M62.534,268.895
	c3.271,0,5.923,2.652,5.923,5.922c0,3.271-2.652,5.924-5.923,5.924c-3.271,0-5.923-2.652-5.923-5.924
	C56.611,271.547,59.263,268.895,62.534,268.895z M65.359,258.627c0-3.271,2.652-5.922,5.923-5.922s5.923,2.65,5.923,5.922
	s-2.652,5.924-5.923,5.924S65.359,261.898,65.359,258.627z M80.349,268.895c3.271,0,5.923,2.652,5.923,5.922
	c0,3.271-2.652,5.924-5.923,5.924c-3.271,0-5.923-2.652-5.923-5.924C74.425,271.547,77.078,268.895,80.349,268.895z M83.173,258.627
	c0-3.271,2.652-5.922,5.923-5.922s5.923,2.65,5.923,5.922s-2.652,5.924-5.923,5.924S83.173,261.898,83.173,258.627z M98.163,268.895
	c3.271,0,5.923,2.652,5.923,5.922c0,3.271-2.652,5.924-5.923,5.924c-3.271,0-5.923-2.652-5.923-5.924
	C92.24,271.547,94.892,268.895,98.163,268.895z M100.988,258.627c0-3.271,2.652-5.922,5.923-5.922s5.923,2.65,5.923,5.922
	s-2.652,5.924-5.923,5.924S100.988,261.898,100.988,258.627z M115.977,268.895c3.271,0,5.923,2.652,5.923,5.922
	c0,3.271-2.652,5.924-5.923,5.924c-3.271,0-5.923-2.652-5.923-5.924C110.054,271.547,112.707,268.895,115.977,268.895z
	 M118.802,258.627c0-3.271,2.652-5.922,5.923-5.922s5.923,2.65,5.923,5.922s-2.652,5.924-5.923,5.924
	S118.802,261.898,118.802,258.627z M133.791,268.895c3.271,0,5.923,2.652,5.923,5.922c0,3.271-2.652,5.924-5.923,5.924
	s-5.923-2.652-5.923-5.924C127.868,271.547,130.52,268.895,133.791,268.895z M136.616,258.627c0-3.271,2.652-5.922,5.923-5.922
	c3.271,0,5.923,2.65,5.923,5.922s-2.652,5.924-5.923,5.924C139.268,264.551,136.616,261.898,136.616,258.627z M151.605,268.895
	c3.271,0,5.923,2.652,5.923,5.922c0,3.271-2.652,5.924-5.923,5.924s-5.923-2.652-5.923-5.924
	C145.683,271.547,148.334,268.895,151.605,268.895z M154.43,258.627c0-3.271,2.652-5.922,5.923-5.922
	c3.271,0,5.923,2.65,5.923,5.922s-2.652,5.924-5.923,5.924C157.083,264.551,154.43,261.898,154.43,258.627z M169.42,268.895
	c3.271,0,5.923,2.652,5.923,5.922c0,3.271-2.652,5.924-5.923,5.924s-5.923-2.652-5.923-5.924
	C163.497,271.547,166.149,268.895,169.42,268.895z M172.245,258.627c0-3.271,2.652-5.922,5.923-5.922
	c3.271,0,5.923,2.65,5.923,5.922s-2.652,5.924-5.923,5.924C174.897,264.551,172.245,261.898,172.245,258.627z M187.234,268.895
	c3.271,0,5.923,2.652,5.923,5.922c0,3.271-2.652,5.924-5.923,5.924c-3.271,0-5.923-2.652-5.923-5.924
	C181.311,271.547,183.963,268.895,187.234,268.895z M190.059,258.627c0-3.271,2.652-5.922,5.923-5.922s5.923,2.65,5.923,5.922
	s-2.652,5.924-5.923,5.924S190.059,261.898,190.059,258.627z M205.048,268.895c3.271,0,5.923,2.652,5.923,5.922
	c0,3.271-2.652,5.924-5.923,5.924s-5.923-2.652-5.923-5.924C199.125,271.547,201.777,268.895,205.048,268.895z M207.873,258.627
	c0-3.271,2.652-5.922,5.923-5.922s5.923,2.65,5.923,5.922s-2.652,5.924-5.923,5.924S207.873,261.898,207.873,258.627z
	 M222.862,268.895c3.271,0,5.923,2.652,5.923,5.922c0,3.271-2.652,5.924-5.923,5.924c-3.271,0-5.923-2.652-5.923-5.924
	C216.939,271.547,219.591,268.895,222.862,268.895z M225.688,258.627c0-3.271,2.652-5.922,5.922-5.922
	c3.271,0,5.924,2.65,5.924,5.922s-2.652,5.924-5.924,5.924C228.34,264.551,225.688,261.898,225.688,258.627z M240.678,268.895
	c3.27,0,5.922,2.652,5.922,5.922c0,3.271-2.652,5.924-5.922,5.924c-3.271,0-5.924-2.652-5.924-5.924
	C234.754,271.547,237.406,268.895,240.678,268.895z M243.502,258.627c0-3.271,2.652-5.922,5.922-5.922
	c3.271,0,5.924,2.65,5.924,5.922s-2.652,5.924-5.924,5.924C246.154,264.551,243.502,261.898,243.502,258.627z M258.49,268.895
	c3.271,0,5.924,2.652,5.924,5.922c0,3.271-2.652,5.924-5.924,5.924c-3.27,0-5.922-2.652-5.922-5.924
	C252.568,271.547,255.221,268.895,258.49,268.895z M261.316,258.627c0-3.271,2.652-5.922,5.922-5.922
	c3.271,0,5.924,2.65,5.924,5.922s-2.652,5.924-5.924,5.924C263.969,264.551,261.316,261.898,261.316,258.627z M276.305,268.895
	c3.271,0,5.924,2.652,5.924,5.922c0,3.271-2.652,5.924-5.924,5.924c-3.27,0-5.922-2.652-5.922-5.924
	C270.383,271.547,273.035,268.895,276.305,268.895z M279.131,258.627c0-3.271,2.65-5.922,5.922-5.922s5.924,2.65,5.924,5.922
	s-2.652,5.924-5.924,5.924S279.131,261.898,279.131,258.627z M294.119,268.895c3.271,0,5.924,2.652,5.924,5.922
	c0,3.271-2.652,5.924-5.924,5.924s-5.922-2.652-5.922-5.924C288.197,271.547,290.848,268.895,294.119,268.895z M296.945,258.627
	c0-3.271,2.65-5.922,5.922-5.922s5.924,2.65,5.924,5.922s-2.652,5.924-5.924,5.924S296.945,261.898,296.945,258.627z
	 M311.936,268.895c3.271,0,5.922,2.652,5.922,5.922c0,3.271-2.65,5.924-5.922,5.924s-5.924-2.652-5.924-5.924
	C306.012,271.547,308.664,268.895,311.936,268.895z M314.758,258.627c0-3.271,2.652-5.922,5.924-5.922s5.924,2.65,5.924,5.922
	s-2.652,5.924-5.924,5.924S314.758,261.898,314.758,258.627z M329.748,268.895c3.271,0,5.922,2.652,5.922,5.922
	c0,3.271-2.65,5.924-5.922,5.924s-5.924-2.652-5.924-5.924C323.824,271.547,326.477,268.895,329.748,268.895z M332.572,258.627
	c0-3.271,2.652-5.922,5.924-5.922s5.922,2.65,5.922,5.922s-2.65,5.924-5.922,5.924S332.572,261.898,332.572,258.627z
	 M347.562,268.895c3.271,0,5.924,2.652,5.924,5.922c0,3.271-2.652,5.924-5.924,5.924s-5.922-2.652-5.922-5.924
	C341.641,271.547,344.291,268.895,347.562,268.895z M350.387,258.627c0-3.271,2.652-5.922,5.924-5.922s5.922,2.65,5.922,5.922
	s-2.65,5.924-5.922,5.924S350.387,261.898,350.387,258.627z M365.377,268.895c3.271,0,5.924,2.652,5.924,5.922
	c0,3.271-2.652,5.924-5.924,5.924s-5.922-2.652-5.922-5.924C359.455,271.547,362.105,268.895,365.377,268.895z M368.201,258.627
	c0-3.271,2.652-5.922,5.924-5.922s5.922,2.65,5.922,5.922s-2.65,5.924-5.922,5.924S368.201,261.898,368.201,258.627z
	 M383.189,268.895c3.271,0,5.924,2.652,5.924,5.922c0,3.271-2.652,5.924-5.924,5.924s-5.922-2.652-5.922-5.924
	C377.268,271.547,379.918,268.895,383.189,268.895z M386.016,258.627c0-3.271,2.65-5.922,5.922-5.922s5.924,2.65,5.924,5.922
	s-2.652,5.924-5.924,5.924S386.016,261.898,386.016,258.627z M401.006,268.895c3.271,0,5.922,2.652,5.922,5.922
	c0,3.271-2.65,5.924-5.922,5.924s-5.924-2.652-5.924-5.924C395.082,271.547,397.734,268.895,401.006,268.895z M403.83,258.627
	c0-3.271,2.652-5.922,5.924-5.922s5.922,2.65,5.922,5.922s-2.65,5.924-5.922,5.924S403.83,261.898,403.83,258.627z M418.82,268.895
	c3.271,0,5.922,2.652,5.922,5.922c0,3.271-2.65,5.924-5.922,5.924s-5.924-2.652-5.924-5.924
	C412.896,271.547,415.549,268.895,418.82,268.895z M421.645,258.627c0-3.271,2.65-5.922,5.922-5.922s5.924,2.65,5.924,5.922
	s-2.652,5.924-5.924,5.924S421.645,261.898,421.645,258.627z M421.645,226.248c0-3.271,2.65-5.923,5.922-5.923
	s5.924,2.652,5.924,5.923c0,3.271-2.652,5.924-5.924,5.924S421.645,229.52,421.645,226.248z M421.645,193.87
	c0-3.271,2.65-5.923,5.922-5.923s5.924,2.651,5.924,5.923c0,3.271-2.652,5.923-5.924,5.923S421.645,197.141,421.645,193.87z
	 M421.645,161.492c0-3.271,2.65-5.923,5.922-5.923s5.924,2.652,5.924,5.923s-2.652,5.923-5.924,5.923
	S421.645,164.763,421.645,161.492z M421.645,129.113c0-3.271,2.65-5.923,5.922-5.923s5.924,2.652,5.924,5.923
	s-2.652,5.923-5.924,5.923S421.645,132.384,421.645,129.113z M421.645,97.129c0-3.271,2.65-5.923,5.922-5.923
	s5.924,2.652,5.924,5.923c0,3.271-2.652,5.923-5.924,5.923S421.645,100.4,421.645,97.129z M421.645,64.75
	c0-3.271,2.65-5.923,5.922-5.923s5.924,2.652,5.924,5.923s-2.652,5.923-5.924,5.923S421.645,68.021,421.645,64.75z M418.82,54.484
	c-3.271,0-5.924-2.652-5.924-5.923c0-3.271,2.652-5.923,5.924-5.923s5.922,2.652,5.922,5.923
	C424.742,51.832,422.092,54.484,418.82,54.484z M415.676,64.75c0,3.271-2.65,5.923-5.922,5.923s-5.924-2.652-5.924-5.923
	s2.652-5.923,5.924-5.923S415.676,61.479,415.676,64.75z M401.006,54.484c-3.271,0-5.924-2.652-5.924-5.923
	c0-3.271,2.652-5.923,5.924-5.923s5.922,2.652,5.922,5.923C406.928,51.832,404.277,54.484,401.006,54.484z M397.861,64.75
	c0,3.271-2.652,5.923-5.924,5.923s-5.922-2.652-5.922-5.923s2.65-5.923,5.922-5.923S397.861,61.479,397.861,64.75z M383.189,54.484
	c-3.271,0-5.922-2.652-5.922-5.923c0-3.271,2.65-5.923,5.922-5.923s5.924,2.652,5.924,5.923
	C389.113,51.832,386.461,54.484,383.189,54.484z M380.047,64.75c0,3.271-2.65,5.923-5.922,5.923s-5.924-2.652-5.924-5.923
	s2.652-5.923,5.924-5.923S380.047,61.479,380.047,64.75z M365.377,54.484c-3.271,0-5.922-2.652-5.922-5.923
	c0-3.271,2.65-5.923,5.922-5.923s5.924,2.652,5.924,5.923C371.301,51.832,368.648,54.484,365.377,54.484z M362.232,64.75
	c0,3.271-2.65,5.923-5.922,5.923s-5.924-2.652-5.924-5.923s2.652-5.923,5.924-5.923S362.232,61.479,362.232,64.75z M347.562,54.484
	c-3.271,0-5.922-2.652-5.922-5.923c0-3.271,2.65-5.923,5.922-5.923s5.924,2.652,5.924,5.923
	C353.486,51.832,350.834,54.484,347.562,54.484z M344.418,64.75c0,3.271-2.65,5.923-5.922,5.923s-5.924-2.652-5.924-5.923
	s2.652-5.923,5.924-5.923S344.418,61.479,344.418,64.75z M329.748,54.484c-3.271,0-5.924-2.652-5.924-5.923
	c0-3.271,2.652-5.923,5.924-5.923s5.922,2.652,5.922,5.923C335.67,51.832,333.02,54.484,329.748,54.484z M326.605,64.75
	c0,3.271-2.652,5.923-5.924,5.923s-5.924-2.652-5.924-5.923s2.652-5.923,5.924-5.923S326.605,61.479,326.605,64.75z M311.936,54.484
	c-3.271,0-5.924-2.652-5.924-5.923c0-3.271,2.652-5.923,5.924-5.923s5.922,2.652,5.922,5.923
	C317.857,51.832,315.207,54.484,311.936,54.484z M308.791,64.75c0,3.271-2.652,5.923-5.924,5.923s-5.922-2.652-5.922-5.923
	s2.65-5.923,5.922-5.923S308.791,61.479,308.791,64.75z M294.119,54.484c-3.271,0-5.922-2.652-5.922-5.923
	c0-3.271,2.65-5.923,5.922-5.923s5.924,2.652,5.924,5.923C300.043,51.832,297.391,54.484,294.119,54.484z M290.977,64.75
	c0,3.271-2.652,5.923-5.924,5.923s-5.922-2.652-5.922-5.923s2.65-5.923,5.922-5.923S290.977,61.479,290.977,64.75z M276.305,54.484
	c-3.27,0-5.922-2.652-5.922-5.923c0-3.271,2.652-5.923,5.922-5.923c3.271,0,5.924,2.652,5.924,5.923
	C282.229,51.832,279.576,54.484,276.305,54.484z M273.162,64.75c0,3.271-2.652,5.923-5.924,5.923c-3.27,0-5.922-2.652-5.922-5.923
	s2.652-5.923,5.922-5.923C270.51,58.828,273.162,61.479,273.162,64.75z M258.49,54.484c-3.27,0-5.922-2.652-5.922-5.923
	c0-3.271,2.652-5.923,5.922-5.923c3.271,0,5.924,2.652,5.924,5.923C264.414,51.832,261.762,54.484,258.49,54.484z M255.348,64.75
	c0,3.271-2.652,5.923-5.924,5.923c-3.27,0-5.922-2.652-5.922-5.923s2.652-5.923,5.922-5.923
	C252.695,58.828,255.348,61.479,255.348,64.75z M240.678,54.484c-3.271,0-5.924-2.652-5.924-5.923c0-3.271,2.652-5.923,5.924-5.923
	c3.27,0,5.922,2.652,5.922,5.923C246.6,51.832,243.947,54.484,240.678,54.484z M237.533,64.75c0,3.271-2.652,5.923-5.924,5.923
	c-3.27,0-5.922-2.652-5.922-5.923s2.652-5.923,5.922-5.923C234.881,58.828,237.533,61.479,237.533,64.75z M222.862,54.484
	c-3.271,0-5.923-2.652-5.923-5.923c0-3.271,2.652-5.923,5.923-5.923c3.271,0,5.923,2.652,5.923,5.923
	C228.785,51.832,226.133,54.484,222.862,54.484z M219.719,64.75c0,3.271-2.652,5.923-5.923,5.923s-5.923-2.652-5.923-5.923
	s2.652-5.923,5.923-5.923S219.719,61.479,219.719,64.75z M205.048,54.484c-3.271,0-5.923-2.652-5.923-5.923
	c0-3.271,2.652-5.923,5.923-5.923s5.923,2.652,5.923,5.923C210.971,51.832,208.319,54.484,205.048,54.484z M201.904,64.75
	c0,3.271-2.652,5.923-5.923,5.923s-5.923-2.652-5.923-5.923s2.652-5.923,5.923-5.923S201.904,61.479,201.904,64.75z M187.234,54.484
	c-3.271,0-5.923-2.652-5.923-5.923c0-3.271,2.652-5.923,5.923-5.923c3.271,0,5.923,2.652,5.923,5.923
	C193.157,51.832,190.505,54.484,187.234,54.484z M184.09,64.75c0,3.271-2.652,5.923-5.923,5.923c-3.271,0-5.923-2.652-5.923-5.923
	s2.652-5.923,5.923-5.923C181.438,58.828,184.09,61.479,184.09,64.75z M169.42,54.484c-3.271,0-5.923-2.652-5.923-5.923
	c0-3.271,2.652-5.923,5.923-5.923s5.923,2.652,5.923,5.923C175.343,51.832,172.691,54.484,169.42,54.484z M166.276,64.75
	c0,3.271-2.652,5.923-5.923,5.923c-3.271,0-5.923-2.652-5.923-5.923s2.652-5.923,5.923-5.923
	C163.624,58.828,166.276,61.479,166.276,64.75z M151.605,54.484c-3.271,0-5.923-2.652-5.923-5.923c0-3.271,2.652-5.923,5.923-5.923
	s5.923,2.652,5.923,5.923C157.528,51.832,154.876,54.484,151.605,54.484z M148.462,64.75c0,3.271-2.652,5.923-5.923,5.923
	c-3.271,0-5.923-2.652-5.923-5.923s2.652-5.923,5.923-5.923C145.81,58.828,148.462,61.479,148.462,64.75z M133.791,54.484
	c-3.271,0-5.923-2.652-5.923-5.923c0-3.271,2.652-5.923,5.923-5.923s5.923,2.652,5.923,5.923
	C139.714,51.832,137.062,54.484,133.791,54.484z M130.647,64.75c0,3.271-2.652,5.923-5.923,5.923s-5.923-2.652-5.923-5.923
	s2.652-5.923,5.923-5.923S130.647,61.479,130.647,64.75z M115.977,54.484c-3.271,0-5.923-2.652-5.923-5.923
	c0-3.271,2.652-5.923,5.923-5.923c3.271,0,5.923,2.652,5.923,5.923C121.9,51.832,119.248,54.484,115.977,54.484z M112.833,64.75
	c0,3.271-2.652,5.923-5.923,5.923s-5.923-2.652-5.923-5.923s2.652-5.923,5.923-5.923S112.833,61.479,112.833,64.75z M98.163,54.484
	c-3.271,0-5.923-2.652-5.923-5.923c0-3.271,2.652-5.923,5.923-5.923c3.271,0,5.923,2.652,5.923,5.923
	C104.086,51.832,101.434,54.484,98.163,54.484z M95.019,64.75c0,3.271-2.652,5.923-5.923,5.923s-5.923-2.652-5.923-5.923
	s2.652-5.923,5.923-5.923S95.019,61.479,95.019,64.75z M80.349,54.484c-3.271,0-5.923-2.652-5.923-5.923
	c0-3.271,2.652-5.923,5.923-5.923c3.271,0,5.923,2.652,5.923,5.923C86.271,51.832,83.619,54.484,80.349,54.484z M77.205,64.75
	c0,3.271-2.652,5.923-5.923,5.923s-5.923-2.652-5.923-5.923s2.652-5.923,5.923-5.923S77.205,61.479,77.205,64.75z M62.534,54.484
	c-3.271,0-5.923-2.652-5.923-5.923c0-3.271,2.652-5.923,5.923-5.923c3.271,0,5.923,2.652,5.923,5.923
	C68.457,51.832,65.805,54.484,62.534,54.484z M59.39,64.75c0,3.271-2.652,5.923-5.923,5.923c-3.271,0-5.923-2.652-5.923-5.923
	s2.652-5.923,5.923-5.923C56.738,58.828,59.39,61.479,59.39,64.75z M44.72,54.484c-3.271,0-5.923-2.652-5.923-5.923
	c0-3.271,2.652-5.923,5.923-5.923s5.923,2.652,5.923,5.923C50.643,51.832,47.991,54.484,44.72,54.484z M41.577,64.75
	c0,3.271-2.652,5.923-5.923,5.923c-3.271,0-5.923-2.652-5.923-5.923s2.652-5.923,5.923-5.923
	C38.924,58.828,41.577,61.479,41.577,64.75z M26.906,54.484c-3.271,0-5.923-2.652-5.923-5.923c0-3.271,2.652-5.923,5.923-5.923
	s5.923,2.652,5.923,5.923C32.829,51.832,30.177,54.484,26.906,54.484z M23.762,64.75c0,3.271-2.652,5.923-5.923,5.923
	s-5.923-2.652-5.923-5.923s2.652-5.923,5.923-5.923S23.762,61.479,23.762,64.75z M23.762,97.129c0,3.271-2.652,5.923-5.923,5.923
	s-5.923-2.652-5.923-5.923c0-3.271,2.652-5.923,5.923-5.923S23.762,93.858,23.762,97.129z M23.762,129.113
	c0,3.271-2.652,5.923-5.923,5.923s-5.923-2.652-5.923-5.923s2.652-5.923,5.923-5.923S23.762,125.842,23.762,129.113z
	 M23.762,161.492c0,3.271-2.652,5.923-5.923,5.923s-5.923-2.652-5.923-5.923s2.652-5.923,5.923-5.923S23.762,158.221,23.762,161.492
	z M23.762,193.87c0,3.271-2.652,5.923-5.923,5.923s-5.923-2.652-5.923-5.923c0-3.271,2.652-5.923,5.923-5.923
	S23.762,190.599,23.762,193.87z M23.762,226.248c0,3.271-2.652,5.924-5.923,5.924s-5.923-2.652-5.923-5.924
	c0-3.271,2.652-5.923,5.923-5.923S23.762,222.978,23.762,226.248z M23.762,258.627c0,3.271-2.652,5.924-5.923,5.924
	s-5.923-2.652-5.923-5.924s2.652-5.922,5.923-5.922S23.762,255.355,23.762,258.627z M23.762,291.008c0,3.27-2.652,5.922-5.923,5.922
	s-5.923-2.652-5.923-5.922c0-3.271,2.652-5.924,5.923-5.924S23.762,287.736,23.762,291.008z M26.906,301.271
	c3.271,0,5.923,2.652,5.923,5.924s-2.652,5.924-5.923,5.924s-5.923-2.652-5.923-5.924S23.635,301.271,26.906,301.271z
	 M29.731,291.008c0-3.271,2.652-5.924,5.923-5.924c3.271,0,5.923,2.652,5.923,5.924c0,3.27-2.652,5.922-5.923,5.922
	C32.383,296.93,29.731,294.277,29.731,291.008z M44.72,301.271c3.271,0,5.923,2.652,5.923,5.924s-2.652,5.924-5.923,5.924
	s-5.923-2.652-5.923-5.924S41.449,301.271,44.72,301.271z M47.544,291.008c0-3.271,2.652-5.924,5.923-5.924
	c3.271,0,5.923,2.652,5.923,5.924c0,3.27-2.652,5.922-5.923,5.922C50.197,296.93,47.544,294.277,47.544,291.008z M62.534,301.271
	c3.271,0,5.923,2.652,5.923,5.924s-2.652,5.924-5.923,5.924c-3.271,0-5.923-2.652-5.923-5.924S59.263,301.271,62.534,301.271z
	 M65.359,291.008c0-3.271,2.652-5.924,5.923-5.924s5.923,2.652,5.923,5.924c0,3.27-2.652,5.922-5.923,5.922
	S65.359,294.277,65.359,291.008z M80.349,301.271c3.271,0,5.923,2.652,5.923,5.924s-2.652,5.924-5.923,5.924
	c-3.271,0-5.923-2.652-5.923-5.924S77.078,301.271,80.349,301.271z M83.173,291.008c0-3.271,2.652-5.924,5.923-5.924
	s5.923,2.652,5.923,5.924c0,3.27-2.652,5.922-5.923,5.922S83.173,294.277,83.173,291.008z M98.163,301.271
	c3.271,0,5.923,2.652,5.923,5.924s-2.652,5.924-5.923,5.924c-3.271,0-5.923-2.652-5.923-5.924S94.892,301.271,98.163,301.271z
	 M100.988,291.008c0-3.271,2.652-5.924,5.923-5.924s5.923,2.652,5.923,5.924c0,3.27-2.652,5.922-5.923,5.922
	S100.988,294.277,100.988,291.008z M115.977,301.271c3.271,0,5.923,2.652,5.923,5.924s-2.652,5.924-5.923,5.924
	c-3.271,0-5.923-2.652-5.923-5.924S112.707,301.271,115.977,301.271z M118.802,291.008c0-3.271,2.652-5.924,5.923-5.924
	s5.923,2.652,5.923,5.924c0,3.27-2.652,5.922-5.923,5.922S118.802,294.277,118.802,291.008z M133.791,301.271
	c3.271,0,5.923,2.652,5.923,5.924s-2.652,5.924-5.923,5.924s-5.923-2.652-5.923-5.924S130.52,301.271,133.791,301.271z
	 M136.616,291.008c0-3.271,2.652-5.924,5.923-5.924c3.271,0,5.923,2.652,5.923,5.924c0,3.27-2.652,5.922-5.923,5.922
	C139.268,296.93,136.616,294.277,136.616,291.008z M151.605,301.271c3.271,0,5.923,2.652,5.923,5.924s-2.652,5.924-5.923,5.924
	s-5.923-2.652-5.923-5.924S148.334,301.271,151.605,301.271z M154.43,291.008c0-3.271,2.652-5.924,5.923-5.924
	c3.271,0,5.923,2.652,5.923,5.924c0,3.27-2.652,5.922-5.923,5.922C157.083,296.93,154.43,294.277,154.43,291.008z M169.42,301.271
	c3.271,0,5.923,2.652,5.923,5.924s-2.652,5.924-5.923,5.924s-5.923-2.652-5.923-5.924S166.149,301.271,169.42,301.271z
	 M172.245,291.008c0-3.271,2.652-5.924,5.923-5.924c3.271,0,5.923,2.652,5.923,5.924c0,3.27-2.652,5.922-5.923,5.922
	C174.897,296.93,172.245,294.277,172.245,291.008z M187.234,301.271c3.271,0,5.923,2.652,5.923,5.924s-2.652,5.924-5.923,5.924
	c-3.271,0-5.923-2.652-5.923-5.924S183.963,301.271,187.234,301.271z M190.059,291.008c0-3.271,2.652-5.924,5.923-5.924
	s5.923,2.652,5.923,5.924c0,3.27-2.652,5.922-5.923,5.922S190.059,294.277,190.059,291.008z M205.048,301.271
	c3.271,0,5.923,2.652,5.923,5.924s-2.652,5.924-5.923,5.924s-5.923-2.652-5.923-5.924S201.777,301.271,205.048,301.271z
	 M207.873,291.008c0-3.271,2.652-5.924,5.923-5.924s5.923,2.652,5.923,5.924c0,3.27-2.652,5.922-5.923,5.922
	S207.873,294.277,207.873,291.008z M222.862,301.271c3.271,0,5.923,2.652,5.923,5.924s-2.652,5.924-5.923,5.924
	c-3.271,0-5.923-2.652-5.923-5.924S219.591,301.271,222.862,301.271z M225.688,291.008c0-3.271,2.652-5.924,5.922-5.924
	c3.271,0,5.924,2.652,5.924,5.924c0,3.27-2.652,5.922-5.924,5.922C228.34,296.93,225.688,294.277,225.688,291.008z M240.678,301.271
	c3.27,0,5.922,2.652,5.922,5.924s-2.652,5.924-5.922,5.924c-3.271,0-5.924-2.652-5.924-5.924S237.406,301.271,240.678,301.271z
	 M243.502,291.008c0-3.271,2.652-5.924,5.922-5.924c3.271,0,5.924,2.652,5.924,5.924c0,3.27-2.652,5.922-5.924,5.922
	C246.154,296.93,243.502,294.277,243.502,291.008z M258.49,301.271c3.271,0,5.924,2.652,5.924,5.924s-2.652,5.924-5.924,5.924
	c-3.27,0-5.922-2.652-5.922-5.924S255.221,301.271,258.49,301.271z M261.316,291.008c0-3.271,2.652-5.924,5.922-5.924
	c3.271,0,5.924,2.652,5.924,5.924c0,3.27-2.652,5.922-5.924,5.922C263.969,296.93,261.316,294.277,261.316,291.008z
	 M276.305,301.271c3.271,0,5.924,2.652,5.924,5.924s-2.652,5.924-5.924,5.924c-3.27,0-5.922-2.652-5.922-5.924
	S273.035,301.271,276.305,301.271z M279.131,291.008c0-3.271,2.65-5.924,5.922-5.924s5.924,2.652,5.924,5.924
	c0,3.27-2.652,5.922-5.924,5.922S279.131,294.277,279.131,291.008z M294.119,301.271c3.271,0,5.924,2.652,5.924,5.924
	s-2.652,5.924-5.924,5.924s-5.922-2.652-5.922-5.924S290.848,301.271,294.119,301.271z M296.945,291.008
	c0-3.271,2.65-5.924,5.922-5.924s5.924,2.652,5.924,5.924c0,3.27-2.652,5.922-5.924,5.922S296.945,294.277,296.945,291.008z
	 M311.936,301.271c3.271,0,5.922,2.652,5.922,5.924s-2.65,5.924-5.922,5.924s-5.924-2.652-5.924-5.924
	S308.664,301.271,311.936,301.271z M314.758,291.008c0-3.271,2.652-5.924,5.924-5.924s5.924,2.652,5.924,5.924
	c0,3.27-2.652,5.922-5.924,5.922S314.758,294.277,314.758,291.008z M329.748,301.271c3.271,0,5.922,2.652,5.922,5.924
	s-2.65,5.924-5.922,5.924s-5.924-2.652-5.924-5.924S326.477,301.271,329.748,301.271z M332.572,291.008
	c0-3.271,2.652-5.924,5.924-5.924s5.922,2.652,5.922,5.924c0,3.27-2.65,5.922-5.922,5.922S332.572,294.277,332.572,291.008z
	 M347.562,301.271c3.271,0,5.924,2.652,5.924,5.924s-2.652,5.924-5.924,5.924s-5.922-2.652-5.922-5.924
	S344.291,301.271,347.562,301.271z M350.387,291.008c0-3.271,2.652-5.924,5.924-5.924s5.922,2.652,5.922,5.924
	c0,3.27-2.65,5.922-5.922,5.922S350.387,294.277,350.387,291.008z M365.377,301.271c3.271,0,5.924,2.652,5.924,5.924
	s-2.652,5.924-5.924,5.924s-5.922-2.652-5.922-5.924S362.105,301.271,365.377,301.271z M368.201,291.008
	c0-3.271,2.652-5.924,5.924-5.924s5.922,2.652,5.922,5.924c0,3.27-2.65,5.922-5.922,5.922S368.201,294.277,368.201,291.008z
	 M383.189,301.271c3.271,0,5.924,2.652,5.924,5.924s-2.652,5.924-5.924,5.924s-5.922-2.652-5.922-5.924
	S379.918,301.271,383.189,301.271z M386.016,291.008c0-3.271,2.65-5.924,5.922-5.924s5.924,2.652,5.924,5.924
	c0,3.27-2.652,5.922-5.924,5.922S386.016,294.277,386.016,291.008z M401.006,301.271c3.271,0,5.922,2.652,5.922,5.924
	s-2.65,5.924-5.922,5.924s-5.924-2.652-5.924-5.924S397.734,301.271,401.006,301.271z M403.83,291.008
	c0-3.271,2.652-5.924,5.924-5.924s5.922,2.652,5.922,5.924c0,3.27-2.65,5.922-5.922,5.922S403.83,294.277,403.83,291.008z
	 M418.82,301.271c3.271,0,5.922,2.652,5.922,5.924s-2.65,5.924-5.922,5.924s-5.924-2.652-5.924-5.924
	S415.549,301.271,418.82,301.271z M421.645,291.008c0-3.271,2.65-5.924,5.922-5.924s5.924,2.652,5.924,5.924
	c0,3.27-2.652,5.922-5.924,5.922S421.645,294.277,421.645,291.008z M442.557,274.816c0,3.271-2.652,5.924-5.924,5.924
	s-5.924-2.652-5.924-5.924c0-3.27,2.652-5.922,5.924-5.922S442.557,271.547,442.557,274.816z M442.557,242.439
	c0,3.27-2.652,5.922-5.924,5.922s-5.924-2.652-5.924-5.922c0-3.271,2.652-5.924,5.924-5.924S442.557,239.168,442.557,242.439z
	 M442.557,210.06c0,3.271-2.652,5.923-5.924,5.923s-5.924-2.652-5.924-5.923c0-3.271,2.652-5.923,5.924-5.923
	S442.557,206.788,442.557,210.06z M442.557,177.681c0,3.271-2.652,5.923-5.924,5.923s-5.924-2.652-5.924-5.923
	s2.652-5.923,5.924-5.923S442.557,174.41,442.557,177.681z M442.557,145.303c0,3.271-2.652,5.923-5.924,5.923
	s-5.924-2.652-5.924-5.923c0-3.271,2.652-5.923,5.924-5.923S442.557,142.032,442.557,145.303z M442.557,112.924
	c0,3.271-2.652,5.923-5.924,5.923s-5.924-2.652-5.924-5.923s2.652-5.923,5.924-5.923S442.557,109.653,442.557,112.924z
	 M442.557,80.94c0,3.271-2.652,5.923-5.924,5.923s-5.924-2.652-5.924-5.923s2.652-5.923,5.924-5.923S442.557,77.669,442.557,80.94z
	 M442.557,48.562c0,3.271-2.652,5.923-5.924,5.923s-5.924-2.652-5.924-5.923c0-3.271,2.652-5.923,5.924-5.923
	S442.557,45.291,442.557,48.562z M436.633,10.26c3.271,0,5.924,2.652,5.924,5.923s-2.652,5.923-5.924,5.923
	s-5.924-2.652-5.924-5.923S433.361,10.26,436.633,10.26z M433.49,32.372c0,3.271-2.652,5.923-5.924,5.923s-5.922-2.652-5.922-5.923
	c0-3.271,2.65-5.923,5.922-5.923S433.49,29.102,433.49,32.372z M418.82,10.26c3.271,0,5.922,2.652,5.922,5.923
	s-2.65,5.923-5.922,5.923s-5.924-2.652-5.924-5.923S415.549,10.26,418.82,10.26z M415.676,32.372c0,3.271-2.65,5.923-5.922,5.923
	s-5.924-2.652-5.924-5.923c0-3.271,2.652-5.923,5.924-5.923S415.676,29.102,415.676,32.372z M401.006,10.26
	c3.271,0,5.922,2.652,5.922,5.923s-2.65,5.923-5.922,5.923s-5.924-2.652-5.924-5.923S397.734,10.26,401.006,10.26z M397.861,32.372
	c0,3.271-2.652,5.923-5.924,5.923s-5.922-2.652-5.922-5.923c0-3.271,2.65-5.923,5.922-5.923S397.861,29.102,397.861,32.372z
	 M383.189,10.26c3.271,0,5.924,2.652,5.924,5.923s-2.652,5.923-5.924,5.923s-5.922-2.652-5.922-5.923S379.918,10.26,383.189,10.26z
	 M380.047,32.372c0,3.271-2.65,5.923-5.922,5.923s-5.924-2.652-5.924-5.923c0-3.271,2.652-5.923,5.924-5.923
	S380.047,29.102,380.047,32.372z M365.377,10.26c3.271,0,5.924,2.652,5.924,5.923s-2.652,5.923-5.924,5.923
	s-5.922-2.652-5.922-5.923S362.105,10.26,365.377,10.26z M362.232,32.372c0,3.271-2.65,5.923-5.922,5.923s-5.924-2.652-5.924-5.923
	c0-3.271,2.652-5.923,5.924-5.923S362.232,29.102,362.232,32.372z M347.562,10.26c3.271,0,5.924,2.652,5.924,5.923
	s-2.652,5.923-5.924,5.923s-5.922-2.652-5.922-5.923S344.291,10.26,347.562,10.26z M344.418,32.372c0,3.271-2.65,5.923-5.922,5.923
	s-5.924-2.652-5.924-5.923c0-3.271,2.652-5.923,5.924-5.923S344.418,29.102,344.418,32.372z M329.748,10.26
	c3.271,0,5.922,2.652,5.922,5.923s-2.65,5.923-5.922,5.923s-5.924-2.652-5.924-5.923S326.477,10.26,329.748,10.26z M326.605,32.372
	c0,3.271-2.652,5.923-5.924,5.923s-5.924-2.652-5.924-5.923c0-3.271,2.652-5.923,5.924-5.923S326.605,29.102,326.605,32.372z
	 M311.936,10.26c3.271,0,5.922,2.652,5.922,5.923s-2.65,5.923-5.922,5.923s-5.924-2.652-5.924-5.923S308.664,10.26,311.936,10.26z
	 M308.791,32.372c0,3.271-2.652,5.923-5.924,5.923s-5.922-2.652-5.922-5.923c0-3.271,2.65-5.923,5.922-5.923
	S308.791,29.102,308.791,32.372z M294.119,10.26c3.271,0,5.924,2.652,5.924,5.923s-2.652,5.923-5.924,5.923
	s-5.922-2.652-5.922-5.923S290.848,10.26,294.119,10.26z M290.977,32.372c0,3.271-2.652,5.923-5.924,5.923s-5.922-2.652-5.922-5.923
	c0-3.271,2.65-5.923,5.922-5.923S290.977,29.102,290.977,32.372z M276.305,10.26c3.271,0,5.924,2.652,5.924,5.923
	s-2.652,5.923-5.924,5.923c-3.27,0-5.922-2.652-5.922-5.923S273.035,10.26,276.305,10.26z M273.162,32.372
	c0,3.271-2.652,5.923-5.924,5.923c-3.27,0-5.922-2.652-5.922-5.923c0-3.271,2.652-5.923,5.922-5.923
	C270.51,26.449,273.162,29.102,273.162,32.372z M258.49,10.26c3.271,0,5.924,2.652,5.924,5.923s-2.652,5.923-5.924,5.923
	c-3.27,0-5.922-2.652-5.922-5.923S255.221,10.26,258.49,10.26z M255.348,32.372c0,3.271-2.652,5.923-5.924,5.923
	c-3.27,0-5.922-2.652-5.922-5.923c0-3.271,2.652-5.923,5.922-5.923C252.695,26.449,255.348,29.102,255.348,32.372z M240.678,10.26
	c3.27,0,5.922,2.652,5.922,5.923s-2.652,5.923-5.922,5.923c-3.271,0-5.924-2.652-5.924-5.923S237.406,10.26,240.678,10.26z
	 M237.533,32.372c0,3.271-2.652,5.923-5.924,5.923c-3.27,0-5.922-2.652-5.922-5.923c0-3.271,2.652-5.923,5.922-5.923
	C234.881,26.449,237.533,29.102,237.533,32.372z M222.862,10.26c3.271,0,5.923,2.652,5.923,5.923s-2.652,5.923-5.923,5.923
	c-3.271,0-5.923-2.652-5.923-5.923S219.591,10.26,222.862,10.26z M219.719,32.372c0,3.271-2.652,5.923-5.923,5.923
	s-5.923-2.652-5.923-5.923c0-3.271,2.652-5.923,5.923-5.923S219.719,29.102,219.719,32.372z M205.048,10.26
	c3.271,0,5.923,2.652,5.923,5.923s-2.652,5.923-5.923,5.923s-5.923-2.652-5.923-5.923S201.777,10.26,205.048,10.26z M201.904,32.372
	c0,3.271-2.652,5.923-5.923,5.923s-5.923-2.652-5.923-5.923c0-3.271,2.652-5.923,5.923-5.923S201.904,29.102,201.904,32.372z
	 M187.234,10.26c3.271,0,5.923,2.652,5.923,5.923s-2.652,5.923-5.923,5.923c-3.271,0-5.923-2.652-5.923-5.923
	S183.963,10.26,187.234,10.26z M184.09,32.372c0,3.271-2.652,5.923-5.923,5.923c-3.271,0-5.923-2.652-5.923-5.923
	c0-3.271,2.652-5.923,5.923-5.923C181.438,26.449,184.09,29.102,184.09,32.372z M169.42,10.26c3.271,0,5.923,2.652,5.923,5.923
	s-2.652,5.923-5.923,5.923s-5.923-2.652-5.923-5.923S166.149,10.26,169.42,10.26z M166.276,32.372c0,3.271-2.652,5.923-5.923,5.923
	c-3.271,0-5.923-2.652-5.923-5.923c0-3.271,2.652-5.923,5.923-5.923C163.624,26.449,166.276,29.102,166.276,32.372z M151.605,10.26
	c3.271,0,5.923,2.652,5.923,5.923s-2.652,5.923-5.923,5.923s-5.923-2.652-5.923-5.923S148.334,10.26,151.605,10.26z M148.462,32.372
	c0,3.271-2.652,5.923-5.923,5.923c-3.271,0-5.923-2.652-5.923-5.923c0-3.271,2.652-5.923,5.923-5.923
	C145.81,26.449,148.462,29.102,148.462,32.372z M133.791,10.26c3.271,0,5.923,2.652,5.923,5.923s-2.652,5.923-5.923,5.923
	s-5.923-2.652-5.923-5.923S130.52,10.26,133.791,10.26z M130.647,32.372c0,3.271-2.652,5.923-5.923,5.923s-5.923-2.652-5.923-5.923
	c0-3.271,2.652-5.923,5.923-5.923S130.647,29.102,130.647,32.372z M115.977,10.26c3.271,0,5.923,2.652,5.923,5.923
	s-2.652,5.923-5.923,5.923c-3.271,0-5.923-2.652-5.923-5.923S112.707,10.26,115.977,10.26z M112.833,32.372
	c0,3.271-2.652,5.923-5.923,5.923s-5.923-2.652-5.923-5.923c0-3.271,2.652-5.923,5.923-5.923S112.833,29.102,112.833,32.372z
	 M98.163,10.26c3.271,0,5.923,2.652,5.923,5.923s-2.652,5.923-5.923,5.923c-3.271,0-5.923-2.652-5.923-5.923
	S94.892,10.26,98.163,10.26z M95.019,32.372c0,3.271-2.652,5.923-5.923,5.923s-5.923-2.652-5.923-5.923
	c0-3.271,2.652-5.923,5.923-5.923S95.019,29.102,95.019,32.372z M80.349,10.26c3.271,0,5.923,2.652,5.923,5.923
	s-2.652,5.923-5.923,5.923c-3.271,0-5.923-2.652-5.923-5.923S77.078,10.26,80.349,10.26z M77.205,32.372
	c0,3.271-2.652,5.923-5.923,5.923s-5.923-2.652-5.923-5.923c0-3.271,2.652-5.923,5.923-5.923S77.205,29.102,77.205,32.372z
	 M62.534,10.26c3.271,0,5.923,2.652,5.923,5.923s-2.652,5.923-5.923,5.923c-3.271,0-5.923-2.652-5.923-5.923
	S59.263,10.26,62.534,10.26z M59.39,32.372c0,3.271-2.652,5.923-5.923,5.923c-3.271,0-5.923-2.652-5.923-5.923
	c0-3.271,2.652-5.923,5.923-5.923C56.738,26.449,59.39,29.102,59.39,32.372z M44.72,10.26c3.271,0,5.923,2.652,5.923,5.923
	s-2.652,5.923-5.923,5.923s-5.923-2.652-5.923-5.923S41.449,10.26,44.72,10.26z M41.577,32.372c0,3.271-2.652,5.923-5.923,5.923
	c-3.271,0-5.923-2.652-5.923-5.923c0-3.271,2.652-5.923,5.923-5.923C38.924,26.449,41.577,29.102,41.577,32.372z M26.906,10.26
	c3.271,0,5.923,2.652,5.923,5.923s-2.652,5.923-5.923,5.923s-5.923-2.652-5.923-5.923S23.635,10.26,26.906,10.26z M23.762,32.372
	c0,3.271-2.652,5.923-5.923,5.923s-5.923-2.652-5.923-5.923c0-3.271,2.652-5.923,5.923-5.923S23.762,29.102,23.762,32.372z
	 M3.168,16.183c0-3.271,2.652-5.923,5.923-5.923s5.923,2.652,5.923,5.923s-2.652,5.923-5.923,5.923S3.168,19.454,3.168,16.183z
	 M3.168,48.562c0-3.271,2.652-5.923,5.923-5.923s5.923,2.652,5.923,5.923c0,3.271-2.652,5.923-5.923,5.923
	S3.168,51.832,3.168,48.562z M3.168,80.94c0-3.271,2.652-5.923,5.923-5.923s5.923,2.652,5.923,5.923s-2.652,5.923-5.923,5.923
	S3.168,84.211,3.168,80.94z M3.168,112.924c0-3.271,2.652-5.923,5.923-5.923s5.923,2.652,5.923,5.923s-2.652,5.923-5.923,5.923
	S3.168,116.195,3.168,112.924z M3.168,145.303c0-3.271,2.652-5.923,5.923-5.923s5.923,2.652,5.923,5.923
	c0,3.271-2.652,5.923-5.923,5.923S3.168,148.573,3.168,145.303z M3.168,177.681c0-3.271,2.652-5.923,5.923-5.923
	s5.923,2.652,5.923,5.923s-2.652,5.923-5.923,5.923S3.168,180.952,3.168,177.681z M3.168,210.06c0-3.271,2.652-5.923,5.923-5.923
	s5.923,2.651,5.923,5.923c0,3.271-2.652,5.923-5.923,5.923S3.168,213.33,3.168,210.06z M3.168,242.439
	c0-3.271,2.652-5.924,5.923-5.924s5.923,2.652,5.923,5.924c0,3.27-2.652,5.922-5.923,5.922S3.168,245.709,3.168,242.439z
	 M3.168,274.816c0-3.27,2.652-5.922,5.923-5.922s5.923,2.652,5.923,5.922c0,3.271-2.652,5.924-5.923,5.924
	S3.168,278.088,3.168,274.816z M3.168,307.195c0-3.271,2.652-5.924,5.923-5.924s5.923,2.652,5.923,5.924s-2.652,5.924-5.923,5.924
	S3.168,310.467,3.168,307.195z M9.091,345.498c-3.271,0-5.923-2.652-5.923-5.924s2.652-5.922,5.923-5.922s5.923,2.65,5.923,5.922
	S12.362,345.498,9.091,345.498z M11.917,323.385c0-3.271,2.652-5.924,5.923-5.924s5.923,2.652,5.923,5.924s-2.652,5.922-5.923,5.922
	S11.917,326.656,11.917,323.385z M26.906,345.498c-3.271,0-5.923-2.652-5.923-5.924s2.652-5.922,5.923-5.922s5.923,2.65,5.923,5.922
	S30.177,345.498,26.906,345.498z M29.731,323.385c0-3.271,2.652-5.924,5.923-5.924c3.271,0,5.923,2.652,5.923,5.924
	s-2.652,5.922-5.923,5.922C32.383,329.307,29.731,326.656,29.731,323.385z M44.72,345.498c-3.271,0-5.923-2.652-5.923-5.924
	s2.652-5.922,5.923-5.922s5.923,2.65,5.923,5.922S47.991,345.498,44.72,345.498z M47.544,323.385c0-3.271,2.652-5.924,5.923-5.924
	c3.271,0,5.923,2.652,5.923,5.924s-2.652,5.922-5.923,5.922C50.197,329.307,47.544,326.656,47.544,323.385z M62.534,345.498
	c-3.271,0-5.923-2.652-5.923-5.924s2.652-5.922,5.923-5.922c3.271,0,5.923,2.65,5.923,5.922S65.805,345.498,62.534,345.498z
	 M65.359,323.385c0-3.271,2.652-5.924,5.923-5.924s5.923,2.652,5.923,5.924s-2.652,5.922-5.923,5.922S65.359,326.656,65.359,323.385
	z M80.349,345.498c-3.271,0-5.923-2.652-5.923-5.924s2.652-5.922,5.923-5.922c3.271,0,5.923,2.65,5.923,5.922
	S83.619,345.498,80.349,345.498z M83.173,323.385c0-3.271,2.652-5.924,5.923-5.924s5.923,2.652,5.923,5.924
	s-2.652,5.922-5.923,5.922S83.173,326.656,83.173,323.385z M98.163,345.498c-3.271,0-5.923-2.652-5.923-5.924
	s2.652-5.922,5.923-5.922c3.271,0,5.923,2.65,5.923,5.922S101.434,345.498,98.163,345.498z M100.988,323.385
	c0-3.271,2.652-5.924,5.923-5.924s5.923,2.652,5.923,5.924s-2.652,5.922-5.923,5.922S100.988,326.656,100.988,323.385z
	 M115.977,345.498c-3.271,0-5.923-2.652-5.923-5.924s2.652-5.922,5.923-5.922c3.271,0,5.923,2.65,5.923,5.922
	S119.248,345.498,115.977,345.498z M118.802,323.385c0-3.271,2.652-5.924,5.923-5.924s5.923,2.652,5.923,5.924
	s-2.652,5.922-5.923,5.922S118.802,326.656,118.802,323.385z M133.791,345.498c-3.271,0-5.923-2.652-5.923-5.924
	s2.652-5.922,5.923-5.922s5.923,2.65,5.923,5.922S137.062,345.498,133.791,345.498z M136.616,323.385
	c0-3.271,2.652-5.924,5.923-5.924c3.271,0,5.923,2.652,5.923,5.924s-2.652,5.922-5.923,5.922
	C139.268,329.307,136.616,326.656,136.616,323.385z M151.605,345.498c-3.271,0-5.923-2.652-5.923-5.924s2.652-5.922,5.923-5.922
	s5.923,2.65,5.923,5.922S154.876,345.498,151.605,345.498z M154.43,323.385c0-3.271,2.652-5.924,5.923-5.924
	c3.271,0,5.923,2.652,5.923,5.924s-2.652,5.922-5.923,5.922C157.083,329.307,154.43,326.656,154.43,323.385z M169.42,345.498
	c-3.271,0-5.923-2.652-5.923-5.924s2.652-5.922,5.923-5.922s5.923,2.65,5.923,5.922S172.691,345.498,169.42,345.498z
	 M172.245,323.385c0-3.271,2.652-5.924,5.923-5.924c3.271,0,5.923,2.652,5.923,5.924s-2.652,5.922-5.923,5.922
	C174.897,329.307,172.245,326.656,172.245,323.385z M187.234,345.498c-3.271,0-5.923-2.652-5.923-5.924s2.652-5.922,5.923-5.922
	c3.271,0,5.923,2.65,5.923,5.922S190.505,345.498,187.234,345.498z M190.059,323.385c0-3.271,2.652-5.924,5.923-5.924
	s5.923,2.652,5.923,5.924s-2.652,5.922-5.923,5.922S190.059,326.656,190.059,323.385z M205.048,345.498
	c-3.271,0-5.923-2.652-5.923-5.924s2.652-5.922,5.923-5.922s5.923,2.65,5.923,5.922S208.319,345.498,205.048,345.498z
	 M207.873,323.385c0-3.271,2.652-5.924,5.923-5.924s5.923,2.652,5.923,5.924s-2.652,5.922-5.923,5.922
	S207.873,326.656,207.873,323.385z M222.862,345.498c-3.271,0-5.923-2.652-5.923-5.924s2.652-5.922,5.923-5.922
	c3.271,0,5.923,2.65,5.923,5.922S226.133,345.498,222.862,345.498z M225.688,323.385c0-3.271,2.652-5.924,5.922-5.924
	c3.271,0,5.924,2.652,5.924,5.924s-2.652,5.922-5.924,5.922C228.34,329.307,225.688,326.656,225.688,323.385z M240.678,345.498
	c-3.271,0-5.924-2.652-5.924-5.924s2.652-5.922,5.924-5.922c3.27,0,5.922,2.65,5.922,5.922S243.947,345.498,240.678,345.498z
	 M243.502,323.385c0-3.271,2.652-5.924,5.922-5.924c3.271,0,5.924,2.652,5.924,5.924s-2.652,5.922-5.924,5.922
	C246.154,329.307,243.502,326.656,243.502,323.385z M258.49,345.498c-3.27,0-5.922-2.652-5.922-5.924s2.652-5.922,5.922-5.922
	c3.271,0,5.924,2.65,5.924,5.922S261.762,345.498,258.49,345.498z M261.316,323.385c0-3.271,2.652-5.924,5.922-5.924
	c3.271,0,5.924,2.652,5.924,5.924s-2.652,5.922-5.924,5.922C263.969,329.307,261.316,326.656,261.316,323.385z M276.305,345.498
	c-3.27,0-5.922-2.652-5.922-5.924s2.652-5.922,5.922-5.922c3.271,0,5.924,2.65,5.924,5.922S279.576,345.498,276.305,345.498z
	 M279.131,323.385c0-3.271,2.65-5.924,5.922-5.924s5.924,2.652,5.924,5.924s-2.652,5.922-5.924,5.922
	S279.131,326.656,279.131,323.385z M294.119,345.498c-3.271,0-5.922-2.652-5.922-5.924s2.65-5.922,5.922-5.922
	s5.924,2.65,5.924,5.922S297.391,345.498,294.119,345.498z M296.945,323.385c0-3.271,2.65-5.924,5.922-5.924
	s5.924,2.652,5.924,5.924s-2.652,5.922-5.924,5.922S296.945,326.656,296.945,323.385z M311.936,345.498
	c-3.271,0-5.924-2.652-5.924-5.924s2.652-5.922,5.924-5.922s5.922,2.65,5.922,5.922S315.207,345.498,311.936,345.498z
	 M314.758,323.385c0-3.271,2.652-5.924,5.924-5.924s5.924,2.652,5.924,5.924s-2.652,5.922-5.924,5.922
	S314.758,326.656,314.758,323.385z M329.748,345.498c-3.271,0-5.924-2.652-5.924-5.924s2.652-5.922,5.924-5.922
	s5.922,2.65,5.922,5.922S333.02,345.498,329.748,345.498z M332.572,323.385c0-3.271,2.652-5.924,5.924-5.924
	s5.922,2.652,5.922,5.924s-2.65,5.922-5.922,5.922S332.572,326.656,332.572,323.385z M347.562,345.498
	c-3.271,0-5.922-2.652-5.922-5.924s2.65-5.922,5.922-5.922s5.924,2.65,5.924,5.922S350.834,345.498,347.562,345.498z
	 M350.387,323.385c0-3.271,2.652-5.924,5.924-5.924s5.922,2.652,5.922,5.924s-2.65,5.922-5.922,5.922
	S350.387,326.656,350.387,323.385z M365.377,345.498c-3.271,0-5.922-2.652-5.922-5.924s2.65-5.922,5.922-5.922
	s5.924,2.65,5.924,5.922S368.648,345.498,365.377,345.498z M368.201,323.385c0-3.271,2.652-5.924,5.924-5.924
	s5.922,2.652,5.922,5.924s-2.65,5.922-5.922,5.922S368.201,326.656,368.201,323.385z M383.189,345.498
	c-3.271,0-5.922-2.652-5.922-5.924s2.65-5.922,5.922-5.922s5.924,2.65,5.924,5.922S386.461,345.498,383.189,345.498z
	 M386.016,323.385c0-3.271,2.65-5.924,5.922-5.924s5.924,2.652,5.924,5.924s-2.652,5.922-5.924,5.922
	S386.016,326.656,386.016,323.385z M401.006,345.498c-3.271,0-5.924-2.652-5.924-5.924s2.652-5.922,5.924-5.922
	s5.922,2.65,5.922,5.922S404.277,345.498,401.006,345.498z M403.83,323.385c0-3.271,2.652-5.924,5.924-5.924
	s5.922,2.652,5.922,5.924s-2.65,5.922-5.922,5.922S403.83,326.656,403.83,323.385z M418.82,345.498
	c-3.271,0-5.924-2.652-5.924-5.924s2.652-5.922,5.924-5.922s5.922,2.65,5.922,5.922S422.092,345.498,418.82,345.498z
	 M421.645,323.385c0-3.271,2.65-5.924,5.922-5.924s5.924,2.652,5.924,5.924s-2.652,5.922-5.924,5.922
	S421.645,326.656,421.645,323.385z M436.633,345.498c-3.271,0-5.924-2.652-5.924-5.924s2.652-5.922,5.924-5.922
	s5.924,2.65,5.924,5.922S439.904,345.498,436.633,345.498z"/>
<g>
	<path fill="#282A1F" d="M360.473,440.192l0.78,2.939c0.156,0.648,0.312,1.26,0.42,1.86h0.036c0.132-0.588,0.323-1.212,0.516-1.849
		l0.948-2.951h0.888l0.9,2.903c0.216,0.685,0.384,1.309,0.516,1.896h0.036c0.096-0.588,0.252-1.2,0.444-1.884l0.827-2.916h1.045
		L365.957,446h-0.96l-0.889-2.772c-0.203-0.659-0.371-1.235-0.516-1.92h-0.023c-0.145,0.696-0.324,1.309-0.528,1.933l-0.937,2.76
		h-0.96l-1.752-5.808H360.473z"/>
	<path fill="#282A1F" d="M369.305,440.192l0.78,2.939c0.156,0.648,0.312,1.26,0.42,1.86h0.036c0.132-0.588,0.323-1.212,0.516-1.849
		l0.948-2.951h0.888l0.9,2.903c0.216,0.685,0.384,1.309,0.516,1.896h0.036c0.096-0.588,0.252-1.2,0.444-1.884l0.827-2.916h1.045
		L374.789,446h-0.96l-0.889-2.772c-0.203-0.659-0.371-1.235-0.516-1.92h-0.023c-0.145,0.696-0.324,1.309-0.528,1.933l-0.937,2.76
		h-0.96l-1.752-5.808H369.305z"/>
	<path fill="#282A1F" d="M378.137,440.192l0.78,2.939c0.156,0.648,0.312,1.26,0.42,1.86h0.036c0.132-0.588,0.323-1.212,0.516-1.849
		l0.948-2.951h0.888l0.9,2.903c0.216,0.685,0.384,1.309,0.516,1.896h0.036c0.096-0.588,0.252-1.2,0.444-1.884l0.827-2.916h1.045
		L383.621,446h-0.96l-0.889-2.772c-0.203-0.659-0.371-1.235-0.516-1.92h-0.023c-0.145,0.696-0.324,1.309-0.528,1.933l-0.937,2.76
		h-0.96l-1.752-5.808H378.137z"/>
	<path fill="#282A1F" d="M386.526,446.132c-0.408,0-0.695-0.324-0.695-0.756s0.299-0.756,0.72-0.756c0.42,0,0.708,0.312,0.708,0.756
		c0,0.432-0.288,0.756-0.721,0.756H386.526z"/>
	<path fill="#282A1F" d="M388.603,438.032c0.456-0.108,1.188-0.181,1.908-0.181c1.044,0,1.716,0.181,2.207,0.588
		c0.421,0.312,0.685,0.793,0.685,1.429c0,0.792-0.528,1.476-1.368,1.775v0.036c0.768,0.181,1.668,0.816,1.668,2.017
		c0,0.695-0.275,1.224-0.695,1.62c-0.553,0.516-1.465,0.756-2.784,0.756c-0.72,0-1.272-0.048-1.62-0.097V438.032z M389.646,441.344
		h0.948c1.092,0,1.74-0.588,1.74-1.368c0-0.936-0.709-1.319-1.765-1.319c-0.479,0-0.756,0.036-0.924,0.071V441.344z
		 M389.646,445.208c0.216,0.036,0.504,0.048,0.876,0.048c1.08,0,2.076-0.396,2.076-1.572c0-1.092-0.948-1.56-2.088-1.56h-0.864
		V445.208z"/>
	<path fill="#282A1F" d="M395.586,439.124c-0.396,0-0.659-0.312-0.659-0.685c0-0.371,0.275-0.672,0.684-0.672
		s0.672,0.301,0.672,0.672c0,0.372-0.264,0.685-0.684,0.685H395.586z M395.082,446v-5.808h1.056V446H395.082z"/>
	<path fill="#282A1F" d="M399.162,438.8v1.393h1.513v0.804h-1.513v3.132c0,0.72,0.204,1.128,0.792,1.128
		c0.288,0,0.456-0.023,0.612-0.072l0.048,0.805c-0.204,0.071-0.528,0.144-0.936,0.144c-0.492,0-0.889-0.168-1.141-0.444
		c-0.288-0.323-0.408-0.84-0.408-1.523v-3.168h-0.9v-0.804h0.9v-1.068L399.162,438.8z"/>
	<path fill="#282A1F" d="M403.134,438.8v1.393h1.512v0.804h-1.512v3.132c0,0.72,0.204,1.128,0.792,1.128
		c0.288,0,0.456-0.023,0.612-0.072l0.048,0.805c-0.204,0.071-0.528,0.144-0.937,0.144c-0.492,0-0.888-0.168-1.14-0.444
		c-0.288-0.323-0.407-0.84-0.407-1.523v-3.168h-0.9v-0.804h0.9v-1.068L403.134,438.8z"/>
	<path fill="#282A1F" d="M405.87,438.032c0.456-0.108,1.188-0.181,1.908-0.181c1.044,0,1.716,0.181,2.207,0.588
		c0.421,0.312,0.685,0.793,0.685,1.429c0,0.792-0.528,1.476-1.368,1.775v0.036c0.768,0.181,1.668,0.816,1.668,2.017
		c0,0.695-0.275,1.224-0.695,1.62c-0.553,0.516-1.465,0.756-2.784,0.756c-0.72,0-1.272-0.048-1.62-0.097V438.032z M406.914,441.344
		h0.948c1.092,0,1.74-0.588,1.74-1.368c0-0.936-0.709-1.319-1.765-1.319c-0.479,0-0.756,0.036-0.924,0.071V441.344z
		 M406.914,445.208c0.216,0.036,0.504,0.048,0.876,0.048c1.08,0,2.076-0.396,2.076-1.572c0-1.092-0.948-1.56-2.088-1.56h-0.864
		V445.208z"/>
	<path fill="#E68A00" d="M414.761,446.132c-1.561,0-2.784-1.151-2.784-2.988c0-1.943,1.284-3.084,2.88-3.084
		c1.668,0,2.796,1.212,2.796,2.977c0,2.16-1.5,3.096-2.88,3.096H414.761z M414.796,445.34c1.009,0,1.765-0.948,1.765-2.268
		c0-0.984-0.492-2.221-1.74-2.221c-1.235,0-1.776,1.152-1.776,2.257c0,1.271,0.721,2.231,1.74,2.231H414.796z"/>
	<path fill="#282A1F" d="M419.31,440.192l0.828,1.235c0.216,0.336,0.396,0.624,0.588,0.948h0.035
		c0.193-0.336,0.385-0.636,0.589-0.948l0.804-1.235h1.152l-1.98,2.808l2.028,3h-1.2l-0.852-1.308
		c-0.229-0.336-0.42-0.66-0.625-1.009h-0.023c-0.191,0.349-0.396,0.66-0.611,1.009L419.201,446h-1.163l2.063-2.964l-1.968-2.844
		H419.31z"/>
	<path fill="#282A1F" d="M424.817,446.132c-0.408,0-0.696-0.324-0.696-0.756s0.3-0.756,0.72-0.756s0.708,0.312,0.708,0.756
		c0,0.432-0.288,0.756-0.72,0.756H424.817z"/>
	<path fill="#282A1F" d="M430.997,445.796c-0.275,0.132-0.889,0.336-1.668,0.336c-1.752,0-2.893-1.188-2.893-2.976
		s1.225-3.097,3.121-3.097c0.623,0,1.176,0.156,1.463,0.312l-0.24,0.804c-0.252-0.132-0.647-0.275-1.223-0.275
		c-1.332,0-2.053,0.995-2.053,2.208c0,1.344,0.864,2.172,2.016,2.172c0.601,0,0.996-0.145,1.297-0.276L430.997,445.796z"/>
	<path fill="#282A1F" d="M434.526,446.132c-1.56,0-2.783-1.151-2.783-2.988c0-1.943,1.283-3.084,2.879-3.084
		c1.668,0,2.797,1.212,2.797,2.977c0,2.16-1.5,3.096-2.881,3.096H434.526z M434.562,445.34c1.009,0,1.765-0.948,1.765-2.268
		c0-0.984-0.492-2.221-1.74-2.221c-1.236,0-1.776,1.152-1.776,2.257c0,1.271,0.72,2.231,1.74,2.231H434.562z"/>
	<path fill="#282A1F" d="M438.751,441.764c0-0.611-0.023-1.092-0.048-1.571h0.924l0.048,0.936h0.036
		c0.324-0.552,0.864-1.068,1.836-1.068c0.78,0,1.38,0.48,1.632,1.164h0.024c0.18-0.336,0.42-0.575,0.66-0.756
		c0.348-0.264,0.72-0.408,1.272-0.408c0.779,0,1.92,0.504,1.92,2.521V446h-1.033v-3.288c0-1.128-0.42-1.788-1.26-1.788
		c-0.611,0-1.068,0.444-1.26,0.948c-0.048,0.156-0.084,0.348-0.084,0.528v3.6h-1.031v-3.48c0-0.936-0.408-1.596-1.213-1.596
		c-0.648,0-1.14,0.528-1.308,1.056c-0.06,0.156-0.084,0.337-0.084,0.517V446h-1.032V441.764z"/>
</g>
</svg>
