<svg width="1418" height="679" xmlns="http://www.w3.org/2000/svg"><g><path d="M-59,-69L-59,511L-49,106Z" fill="#e9f0fd" stroke="#e9f0fd"/><path d="M-59,-69L-49,106L-26,42Z" fill="#faf9fc" stroke="#faf9fc"/><path d="M-59,-69L-26,42L39,-38Z" fill="#f9f8fb" stroke="#f9f8fb"/><path d="M-59,-69L39,-38L152,-63Z" fill="#f5f4f9" stroke="#f5f4f9"/><path d="M-59,-69L152,-63L202,-71Z" fill="#f1f1f7" stroke="#f1f1f7"/><path d="M39,-38L-26,42L23,46Z" fill="#f7f6fa" stroke="#f7f6fa"/><path d="M39,-38L23,46L116,43Z" fill="#f4f3f9" stroke="#f4f3f9"/><path d="M39,-38L116,43L152,-63Z" fill="#f1f0f7" stroke="#f1f0f7"/><path d="M152,-63L116,43L251,49Z" fill="#ececf5" stroke="#ececf5"/><path d="M152,-63L251,49L202,-71Z" fill="#eaeaf4" stroke="#eaeaf4"/><path d="M202,-71L251,49L338,-25Z" fill="#e5e7f2" stroke="#e5e7f2"/><path d="M202,-71L338,-25L393,-51Z" fill="#e1e5f1" stroke="#e1e5f1"/><path d="M202,-71L393,-51L482,-54Z" fill="#dde3f0" stroke="#dde3f0"/><path d="M202,-71L482,-54L1398,-72Z" fill="#bbd5e8" stroke="#bbd5e8"/><path d="M338,-25L251,49L325,71Z" fill="#e1e4f1" stroke="#e1e4f1"/><path d="M338,-25L325,71L401,16Z" fill="#dde3f0" stroke="#dde3f0"/><path d="M338,-25L401,16L393,-51Z" fill="#dbe2ef" stroke="#dbe2ef"/><path d="M393,-51L401,16L482,-54Z" fill="#d7e0ee" stroke="#d7e0ee"/><path d="M482,-54L401,16L488,63Z" fill="#d4dfee" stroke="#d4dfee"/><path d="M482,-54L488,63L559,-23Z" fill="#cfddec" stroke="#cfddec"/><path d="M482,-54L559,-23L656,-41Z" fill="#c9daeb" stroke="#c9daeb"/><path d="M482,-54L656,-41L1009,-50Z" fill="#b9d4e7" stroke="#b9d4e7"/><path d="M482,-54L1009,-50L1153,-56Z" fill="#9fcae1" stroke="#9fcae1"/><path d="M482,-54L1153,-56L1398,-72Z" fill="#90bfd8" stroke="#90bfd8"/><path d="M559,-23L488,63L572,69Z" fill="#cbdaec" stroke="#cbdaec"/><path d="M559,-23L572,69L670,25Z" fill="#c5d8ea" stroke="#c5d8ea"/><path d="M559,-23L670,25L656,-41Z" fill="#c2d8e9" stroke="#c2d8e9"/><path d="M656,-41L670,25L763,-38Z" fill="#bbd5e8" stroke="#bbd5e8"/><path d="M656,-41L763,-38L1009,-50Z" fill="#aacee4" stroke="#aacee4"/><path d="M763,-38L670,25L745,59Z" fill="#b7d3e7" stroke="#b7d3e7"/><path d="M763,-38L745,59L832,-15Z" fill="#afd0e5" stroke="#afd0e5"/><path d="M763,-38L832,-15L950,-32Z" fill="#a4cce2" stroke="#a4cce2"/><path d="M763,-38L950,-32L1009,-50Z" fill="#9bc8e0" stroke="#9bc8e0"/><path d="M832,-15L745,59L877,65Z" fill="#a8cde3" stroke="#a8cde3"/><path d="M832,-15L877,65L918,16Z" fill="#a0cae1" stroke="#a0cae1"/><path d="M832,-15L918,16L950,-32Z" fill="#9cc9e0" stroke="#9cc9e0"/><path d="M950,-32L918,16L1040,40Z" fill="#93c3dc" stroke="#93c3dc"/><path d="M950,-32L1040,40L1009,-50Z" fill="#91c0d9" stroke="#91c0d9"/><path d="M1009,-50L1040,40L1153,-56Z" fill="#8bb9d2" stroke="#8bb9d2"/><path d="M1153,-56L1040,40L1128,57Z" fill="#87b4ce" stroke="#87b4ce"/><path d="M1153,-56L1128,57L1207,-23Z" fill="#83afc8" stroke="#83afc8"/><path d="M1153,-56L1207,-23L1297,-48Z" fill="#80a9c2" stroke="#80a9c2"/><path d="M1153,-56L1297,-48L1398,-72Z" fill="#80a2bc" stroke="#80a2bc"/><path d="M1207,-23L1128,57L1236,70Z" fill="#80abc5" stroke="#80abc5"/><path d="M1207,-23L1236,70L1279,22Z" fill="#7fa6c0" stroke="#7fa6c0"/><path d="M1207,-23L1279,22L1297,-48Z" fill="#80a4be" stroke="#80a4be"/><path d="M1297,-48L1279,22L1389,16Z" fill="#809eb8" stroke="#809eb8"/><path d="M1297,-48L1389,16L1398,-72Z" fill="#809ab4" stroke="#809ab4"/><path d="M1398,-72L1389,16L1503,-26Z" fill="#8092ad" stroke="#8092ad"/><path d="M1503,-26L1389,16L1479,55Z" fill="#7f8faa" stroke="#7f8faa"/><path d="M1503,-26L1479,55L1506,164Z" fill="#7e8aa6" stroke="#7e8aa6"/><path d="M-26,42L-49,106L23,46Z" fill="#f7f6fb" stroke="#f7f6fb"/><path d="M23,46L-49,106L58,146Z" fill="#f5f4fa" stroke="#f5f4fa"/><path d="M23,46L58,146L116,43Z" fill="#f1f1f9" stroke="#f1f1f9"/><path d="M116,43L58,146L130,121Z" fill="#eeeef7" stroke="#eeeef7"/><path d="M116,43L130,121L210,113Z" fill="#ebebf6" stroke="#ebebf6"/><path d="M116,43L210,113L251,49Z" fill="#e9e9f4" stroke="#e9e9f4"/><path d="M251,49L210,113L297,161Z" fill="#e3e5f2" stroke="#e3e5f2"/><path d="M251,49L297,161L325,71Z" fill="#e0e3f1" stroke="#e0e3f1"/><path d="M325,71L297,161L416,107Z" fill="#dbe1f0" stroke="#dbe1f0"/><path d="M325,71L416,107L401,16Z" fill="#d9e1ef" stroke="#d9e1ef"/><path d="M401,16L416,107L488,63Z" fill="#d4deee" stroke="#d4deee"/><path d="M488,63L416,107L490,154Z" fill="#d0dced" stroke="#d0dced"/><path d="M488,63L490,154L575,131Z" fill="#cad9ec" stroke="#cad9ec"/><path d="M488,63L575,131L572,69Z" fill="#c9d9eb" stroke="#c9d9eb"/><path d="M572,69L575,131L679,143Z" fill="#c0d5ea" stroke="#c0d5ea"/><path d="M572,69L679,143L670,25Z" fill="#bfd5e9" stroke="#bfd5e9"/><path d="M670,25L679,143L745,59Z" fill="#b8d3e8" stroke="#b8d3e8"/><path d="M745,59L679,143L776,110Z" fill="#b3d0e6" stroke="#b3d0e6"/><path d="M745,59L776,110L877,65Z" fill="#a9cde4" stroke="#a9cde4"/><path d="M877,65L776,110L849,163Z" fill="#a3cae3" stroke="#a3cae3"/><path d="M877,65L849,163L949,144Z" fill="#98c5e1" stroke="#98c5e1"/><path d="M877,65L949,144L918,16Z" fill="#97c6e0" stroke="#97c6e0"/><path d="M918,16L949,144L1040,40Z" fill="#91c1dc" stroke="#91c1dc"/><path d="M1040,40L949,144L1030,124Z" fill="#8dbdd8" stroke="#8dbdd8"/><path d="M1040,40L1030,124L1128,57Z" fill="#89b7d2" stroke="#89b7d2"/><path d="M1128,57L1030,124L1145,159Z" fill="#85b2cf" stroke="#85b2cf"/><path d="M1128,57L1145,159L1187,124Z" fill="#81adc9" stroke="#81adc9"/><path d="M1128,57L1187,124L1236,70Z" fill="#7fabc6" stroke="#7fabc6"/><path d="M1236,70L1187,124L1331,122Z" fill="#7ca2bf" stroke="#7ca2bf"/><path d="M1236,70L1331,122L1279,22Z" fill="#7ea0bc" stroke="#7ea0bc"/><path d="M1279,22L1331,122L1389,16Z" fill="#7e9bb7" stroke="#7e9bb7"/><path d="M1389,16L1331,122L1423,156Z" fill="#7d95b2" stroke="#7d95b2"/><path d="M1389,16L1423,156L1479,55Z" fill="#7d90ac" stroke="#7d90ac"/><path d="M1479,55L1423,156L1506,164Z" fill="#7a8aa8" stroke="#7a8aa8"/><path d="M-49,106L-59,511L-33,332Z" fill="#c7e1f9" stroke="#c7e1f9"/><path d="M-49,106L-33,332L-32,232Z" fill="#dfebfc" stroke="#dfebfc"/><path d="M-49,106L-32,232L58,146Z" fill="#ebeffb" stroke="#ebeffb"/><path d="M58,146L-32,232L70,211Z" fill="#e0e9fa" stroke="#e0e9fa"/><path d="M58,146L70,211L130,121Z" fill="#e5e9f8" stroke="#e5e9f8"/><path d="M130,121L70,211L161,221Z" fill="#dde5f7" stroke="#dde5f7"/><path d="M130,121L161,221L210,113Z" fill="#e1e6f5" stroke="#e1e6f5"/><path d="M210,113L161,221L232,236Z" fill="#d6dff4" stroke="#d6dff4"/><path d="M210,113L232,236L297,161Z" fill="#d7dff3" stroke="#d7dff3"/><path d="M297,161L232,236L295,247Z" fill="#cad9f2" stroke="#cad9f2"/><path d="M297,161L295,247L395,229Z" fill="#c6d7f1" stroke="#c6d7f1"/><path d="M297,161L395,229L416,107Z" fill="#cddaf0" stroke="#cddaf0"/><path d="M416,107L395,229L490,154Z" fill="#c8d7ee" stroke="#c8d7ee"/><path d="M490,154L395,229L525,238Z" fill="#bbd1ed" stroke="#bbd1ed"/><path d="M490,154L525,238L575,131Z" fill="#bcd2ec" stroke="#bcd2ec"/><path d="M575,131L525,238L606,251Z" fill="#b1cdeb" stroke="#b1cdeb"/><path d="M575,131L606,251L679,143Z" fill="#b2cfea" stroke="#b2cfea"/><path d="M679,143L606,251L704,204Z" fill="#a8cae8" stroke="#a8cae8"/><path d="M679,143L704,204L776,110Z" fill="#accde7" stroke="#accde7"/><path d="M776,110L704,204L849,163Z" fill="#a2c8e5" stroke="#a2c8e5"/><path d="M849,163L704,204L735,252Z" fill="#99c4e5" stroke="#99c4e5"/><path d="M849,163L735,252L872,226Z" fill="#8fc0e3" stroke="#8fc0e3"/><path d="M849,163L872,226L949,144Z" fill="#8cbfe1" stroke="#8cbfe1"/><path d="M949,144L872,226L969,237Z" fill="#81badf" stroke="#81badf"/><path d="M949,144L969,237L1030,124Z" fill="#83b9db" stroke="#83b9db"/><path d="M1030,124L969,237L1051,244Z" fill="#78b2d7" stroke="#78b2d7"/><path d="M1030,124L1051,244L1138,197Z" fill="#77add2" stroke="#77add2"/><path d="M1030,124L1138,197L1145,159Z" fill="#7aadce" stroke="#7aadce"/><path d="M1145,159L1138,197L1213,215Z" fill="#6fa3c8" stroke="#6fa3c8"/><path d="M1145,159L1213,215L1187,124Z" fill="#73a4c6" stroke="#73a4c6"/><path d="M1187,124L1213,215L1331,122Z" fill="#739fc0" stroke="#739fc0"/><path d="M1331,122L1213,215L1313,245Z" fill="#6a96bb" stroke="#6a96bb"/><path d="M1331,122L1313,245L1420,195Z" fill="#6c8fb4" stroke="#6c8fb4"/><path d="M1331,122L1420,195L1423,156Z" fill="#728fb1" stroke="#728fb1"/><path d="M1423,156L1420,195L1506,164Z" fill="#6f87aa" stroke="#6f87aa"/><path d="M1506,164L1420,195L1501,230Z" fill="#6a82a8" stroke="#6a82a8"/><path d="M1506,164L1501,230L1501,672Z" fill="#3f6d9f" stroke="#3f6d9f"/><path d="M-32,232L-33,332L35,316Z" fill="#cae1f9" stroke="#cae1f9"/><path d="M-32,232L35,316L70,211Z" fill="#d3e3f9" stroke="#d3e3f9"/><path d="M70,211L35,316L121,297Z" fill="#c9def7" stroke="#c9def7"/><path d="M70,211L121,297L161,221Z" fill="#cfdff6" stroke="#cfdff6"/><path d="M161,221L121,297L232,236Z" fill="#c9dbf4" stroke="#c9dbf4"/><path d="M232,236L121,297L252,294Z" fill="#c1d6f2" stroke="#c1d6f2"/><path d="M232,236L252,294L295,247Z" fill="#c1d5f1" stroke="#c1d5f1"/><path d="M295,247L252,294L328,301Z" fill="#b8d1ef" stroke="#b8d1ef"/><path d="M295,247L328,301L395,229Z" fill="#bad1ef" stroke="#bad1ef"/><path d="M395,229L328,301L397,287Z" fill="#b3ceee" stroke="#b3ceee"/><path d="M395,229L397,287L525,238Z" fill="#b3ceed" stroke="#b3ceed"/><path d="M525,238L397,287L493,320Z" fill="#a8c9eb" stroke="#a8c9eb"/><path d="M525,238L493,320L611,308Z" fill="#9ec6e9" stroke="#9ec6e9"/><path d="M525,238L611,308L606,251Z" fill="#a0c7e9" stroke="#a0c7e9"/><path d="M606,251L611,308L651,310Z" fill="#95c2e7" stroke="#95c2e7"/><path d="M606,251L651,310L704,204Z" fill="#9cc5e8" stroke="#9cc5e8"/><path d="M704,204L651,310L735,252Z" fill="#97c3e7" stroke="#97c3e7"/><path d="M735,252L651,310L777,338Z" fill="#88bde4" stroke="#88bde4"/><path d="M735,252L777,338L835,336Z" fill="#7cb8e2" stroke="#7cb8e2"/><path d="M735,252L835,336L872,226Z" fill="#81bae2" stroke="#81bae2"/><path d="M872,226L835,336L916,285Z" fill="#75b5df" stroke="#75b5df"/><path d="M872,226L916,285L969,237Z" fill="#77b6df" stroke="#77b6df"/><path d="M969,237L916,285L1013,310Z" fill="#6aafdb" stroke="#6aafdb"/><path d="M969,237L1013,310L1051,244Z" fill="#69acd6" stroke="#69acd6"/><path d="M1051,244L1013,310L1121,291Z" fill="#61a4d1" stroke="#61a4d1"/><path d="M1051,244L1121,291L1138,197Z" fill="#67a4ce" stroke="#67a4ce"/><path d="M1138,197L1121,291L1213,215Z" fill="#659fc8" stroke="#659fc8"/><path d="M1213,215L1121,291L1197,331Z" fill="#5899c5" stroke="#5899c5"/><path d="M1213,215L1197,331L1313,245Z" fill="#5993bf" stroke="#5993bf"/><path d="M1313,245L1197,331L1302,334Z" fill="#4f8cbb" stroke="#4f8cbb"/><path d="M1313,245L1302,334L1388,332Z" fill="#4f86b4" stroke="#4f86b4"/><path d="M1313,245L1388,332L1420,195Z" fill="#5b86b1" stroke="#5b86b1"/><path d="M1420,195L1388,332L1476,323Z" fill="#547eab" stroke="#547eab"/><path d="M1420,195L1476,323L1501,230Z" fill="#5d7da8" stroke="#5d7da8"/><path d="M1501,230L1476,323L1475,478Z" fill="#4471a2" stroke="#4471a2"/><path d="M1501,230L1475,478L1501,672Z" fill="#195e96" stroke="#195e96"/><path d="M-33,332L-59,511L-31,412Z" fill="#a2d2f1" stroke="#a2d2f1"/><path d="M-33,332L-31,412L28,394Z" fill="#afd6f4" stroke="#afd6f4"/><path d="M-33,332L28,394L35,316Z" fill="#badaf6" stroke="#badaf6"/><path d="M35,316L28,394L121,297Z" fill="#bad8f5" stroke="#bad8f5"/><path d="M121,297L28,394L160,424Z" fill="#aad0f0" stroke="#aad0f0"/><path d="M121,297L160,424L205,402Z" fill="#a5cdee" stroke="#a5cdee"/><path d="M121,297L205,402L252,294Z" fill="#b3d1f1" stroke="#b3d1f1"/><path d="M252,294L205,402L330,434Z" fill="#9cc7eb" stroke="#9cc7eb"/><path d="M252,294L330,434L328,301Z" fill="#a6caed" stroke="#a6caed"/><path d="M328,301L330,434L401,416Z" fill="#92c2e8" stroke="#92c2e8"/><path d="M328,301L401,416L397,287Z" fill="#a2c8ec" stroke="#a2c8ec"/><path d="M397,287L401,416L493,320Z" fill="#9cc5ea" stroke="#9cc5ea"/><path d="M493,320L401,416L520,392Z" fill="#8abee6" stroke="#8abee6"/><path d="M493,320L520,392L611,308Z" fill="#91c0e8" stroke="#91c0e8"/><path d="M611,308L520,392L576,423Z" fill="#81bae4" stroke="#81bae4"/><path d="M611,308L576,423L658,419Z" fill="#78b7e2" stroke="#78b7e2"/><path d="M611,308L658,419L651,310Z" fill="#84bbe5" stroke="#84bbe5"/><path d="M651,310L658,419L766,380Z" fill="#76b5e1" stroke="#76b5e1"/><path d="M651,310L766,380L777,338Z" fill="#7bb7e2" stroke="#7bb7e2"/><path d="M777,338L766,380L835,336Z" fill="#6eb2df" stroke="#6eb2df"/><path d="M835,336L766,380L866,430Z" fill="#5dacdb" stroke="#5dacdb"/><path d="M835,336L866,430L940,427Z" fill="#4ea6d8" stroke="#4ea6d8"/><path d="M835,336L940,427L916,285Z" fill="#5eacdb" stroke="#5eacdb"/><path d="M916,285L940,427L1013,310Z" fill="#59aada" stroke="#59aada"/><path d="M1013,310L940,427L1037,390Z" fill="#49a0d2" stroke="#49a0d2"/><path d="M1013,310L1037,390L1121,291Z" fill="#54a0d0" stroke="#54a0d0"/><path d="M1121,291L1037,390L1110,392Z" fill="#4899ca" stroke="#4899ca"/><path d="M1121,291L1110,392L1197,331Z" fill="#4b96c6" stroke="#4b96c6"/><path d="M1197,331L1110,392L1227,426Z" fill="#378cbf" stroke="#378cbf"/><path d="M1197,331L1227,426L1304,376Z" fill="#3786b8" stroke="#3786b8"/><path d="M1197,331L1304,376L1302,334Z" fill="#4288b9" stroke="#4288b9"/><path d="M1302,334L1304,376L1388,332Z" fill="#4281b2" stroke="#4281b2"/><path d="M1388,332L1304,376L1381,427Z" fill="#3679ad" stroke="#3679ad"/><path d="M1388,332L1381,427L1467,427Z" fill="#3071a5" stroke="#3071a5"/><path d="M1388,332L1467,427L1476,323Z" fill="#3d73a5" stroke="#3d73a5"/><path d="M1476,323L1467,427L1475,478Z" fill="#2a689e" stroke="#2a689e"/><path d="M-31,412L-59,511L24,473Z" fill="#93c9ea" stroke="#93c9ea"/><path d="M-31,412L24,473L28,394Z" fill="#9cceef" stroke="#9cceef"/><path d="M28,394L24,473L160,424Z" fill="#96caec" stroke="#96caec"/><path d="M160,424L24,473L159,467Z" fill="#8ac3e8" stroke="#8ac3e8"/><path d="M160,424L159,467L205,402Z" fill="#8fc4e9" stroke="#8fc4e9"/><path d="M205,402L159,467L209,523Z" fill="#84bce3" stroke="#84bce3"/><path d="M205,402L209,523L330,434Z" fill="#81bce4" stroke="#81bce4"/><path d="M330,434L209,523L305,525Z" fill="#7bafd9" stroke="#7bafd9"/><path d="M330,434L305,525L416,497Z" fill="#75afda" stroke="#75afda"/><path d="M330,434L416,497L401,416Z" fill="#76b7e2" stroke="#76b7e2"/><path d="M401,416L416,497L520,392Z" fill="#76b6e1" stroke="#76b6e1"/><path d="M520,392L416,497L509,518Z" fill="#6baddb" stroke="#6baddb"/><path d="M520,392L509,518L576,423Z" fill="#69b1de" stroke="#69b1de"/><path d="M576,423L509,518L576,524Z" fill="#62a5d4" stroke="#62a5d4"/><path d="M576,423L576,524L652,524Z" fill="#5da3d2" stroke="#5da3d2"/><path d="M576,423L652,524L658,419Z" fill="#5cabdb" stroke="#5cabdb"/><path d="M658,419L652,524L744,511Z" fill="#54a1d1" stroke="#54a1d1"/><path d="M658,419L744,511L766,380Z" fill="#58aada" stroke="#58aada"/><path d="M766,380L744,511L831,469Z" fill="#49a4d7" stroke="#49a4d7"/><path d="M766,380L831,469L866,430Z" fill="#4ca5d8" stroke="#4ca5d8"/><path d="M866,430L831,469L931,494Z" fill="#399bd0" stroke="#399bd0"/><path d="M866,430L931,494L940,427Z" fill="#359cd2" stroke="#359cd2"/><path d="M940,427L931,494L1021,477Z" fill="#2d94cb" stroke="#2d94cb"/><path d="M940,427L1021,477L1037,390Z" fill="#3397cd" stroke="#3397cd"/><path d="M1037,390L1021,477L1110,392Z" fill="#3393c8" stroke="#3393c8"/><path d="M1110,392L1021,477L1120,492Z" fill="#248bc2" stroke="#248bc2"/><path d="M1110,392L1120,492L1227,426Z" fill="#2486bd" stroke="#2486bd"/><path d="M1227,426L1120,492L1223,507Z" fill="#1a7ab1" stroke="#1a7ab1"/><path d="M1227,426L1223,507L1326,500Z" fill="#1872aa" stroke="#1872aa"/><path d="M1227,426L1326,500L1304,376Z" fill="#2179af" stroke="#2179af"/><path d="M1304,376L1326,500L1381,427Z" fill="#2173aa" stroke="#2173aa"/><path d="M1381,427L1326,500L1376,520Z" fill="#18669e" stroke="#18669e"/><path d="M1381,427L1376,520L1475,478Z" fill="#18639b" stroke="#18639b"/><path d="M1381,427L1475,478L1467,427Z" fill="#1d679e" stroke="#1d679e"/><path d="M-59,511L-33,776L-49,577Z" fill="#8aa1c2" stroke="#8aa1c2"/><path d="M-59,511L-49,577L44,556Z" fill="#8db3d4" stroke="#8db3d4"/><path d="M-59,511L44,556L24,473Z" fill="#8ebbdd" stroke="#8ebbdd"/><path d="M24,473L44,556L159,467Z" fill="#89bade" stroke="#89bade"/><path d="M159,467L44,556L131,574Z" fill="#85afd4" stroke="#85afd4"/><path d="M159,467L131,574L209,523Z" fill="#82afd5" stroke="#82afd5"/><path d="M209,523L131,574L242,592Z" fill="#7da2c9" stroke="#7da2c9"/><path d="M209,523L242,592L305,525Z" fill="#7aa3cc" stroke="#7aa3cc"/><path d="M305,525L242,592L337,577Z" fill="#759cc6" stroke="#759cc6"/><path d="M305,525L337,577L416,497Z" fill="#72a2cd" stroke="#72a2cd"/><path d="M416,497L337,577L415,593Z" fill="#6d9ac6" stroke="#6d9ac6"/><path d="M416,497L415,593L479,572Z" fill="#6999c6" stroke="#6999c6"/><path d="M416,497L479,572L509,518Z" fill="#689ecb" stroke="#689ecb"/><path d="M509,518L479,572L559,614Z" fill="#6092c0" stroke="#6092c0"/><path d="M509,518L559,614L576,524Z" fill="#5e95c3" stroke="#5e95c3"/><path d="M576,524L559,614L655,607Z" fill="#578bbb" stroke="#578bbb"/><path d="M576,524L655,607L652,524Z" fill="#5592c1" stroke="#5592c1"/><path d="M652,524L655,607L744,511Z" fill="#5090c1" stroke="#5090c1"/><path d="M744,511L655,607L793,612Z" fill="#4786b8" stroke="#4786b8"/><path d="M744,511L793,612L869,573Z" fill="#3d85b8" stroke="#3d85b8"/><path d="M744,511L869,573L831,469Z" fill="#3f91c4" stroke="#3f91c4"/><path d="M831,469L869,573L931,494Z" fill="#368ec4" stroke="#368ec4"/><path d="M931,494L869,573L947,559Z" fill="#2d84ba" stroke="#2d84ba"/><path d="M931,494L947,559L1021,477Z" fill="#2a89c0" stroke="#2a89c0"/><path d="M1021,477L947,559L1030,557Z" fill="#257fb7" stroke="#257fb7"/><path d="M1021,477L1030,557L1120,492Z" fill="#227fb7" stroke="#227fb7"/><path d="M1120,492L1030,557L1109,591Z" fill="#1d72aa" stroke="#1d72aa"/><path d="M1120,492L1109,591L1223,507Z" fill="#1970a7" stroke="#1970a7"/><path d="M1223,507L1109,591L1238,579Z" fill="#14649c" stroke="#14649c"/><path d="M1223,507L1238,579L1307,576Z" fill="#135e96" stroke="#135e96"/><path d="M1223,507L1307,576L1326,500Z" fill="#14629a" stroke="#14629a"/><path d="M1326,500L1307,576L1376,520Z" fill="#145b94" stroke="#145b94"/><path d="M1376,520L1307,576L1404,563Z" fill="#13538c" stroke="#13538c"/><path d="M1376,520L1404,563L1475,478Z" fill="#15568e" stroke="#15568e"/><path d="M1475,478L1404,563L1481,566Z" fill="#144e87" stroke="#144e87"/><path d="M1475,478L1481,566L1501,672Z" fill="#11417a" stroke="#11417a"/><path d="M-49,577L-33,776L-39,649Z" fill="#8694b6" stroke="#8694b6"/><path d="M-49,577L-39,649L44,556Z" fill="#89a6c8" stroke="#89a6c8"/><path d="M44,556L-39,649L49,681Z" fill="#849bbe" stroke="#849bbe"/><path d="M44,556L49,681L131,574Z" fill="#839ec3" stroke="#839ec3"/><path d="M131,574L49,681L134,698Z" fill="#7d90b6" stroke="#7d90b6"/><path d="M131,574L134,698L239,646Z" fill="#7a8fb7" stroke="#7a8fb7"/><path d="M131,574L239,646L242,592Z" fill="#7a96be" stroke="#7a96be"/><path d="M242,592L239,646L337,577Z" fill="#7492bc" stroke="#7492bc"/><path d="M337,577L239,646L315,692Z" fill="#6f89b3" stroke="#6f89b3"/><path d="M337,577L315,692L407,650Z" fill="#6a86b2" stroke="#6a86b2"/><path d="M337,577L407,650L415,593Z" fill="#698db9" stroke="#698db9"/><path d="M415,593L407,650L479,572Z" fill="#658bb9" stroke="#658bb9"/><path d="M479,572L407,650L510,666Z" fill="#6184b1" stroke="#6184b1"/><path d="M479,572L510,666L559,614Z" fill="#5d85b3" stroke="#5d85b3"/><path d="M559,614L510,666L562,702Z" fill="#5778a7" stroke="#5778a7"/><path d="M559,614L562,702L657,702Z" fill="#5173a3" stroke="#5173a3"/><path d="M559,614L657,702L655,607Z" fill="#4f7aaa" stroke="#4f7aaa"/><path d="M655,607L657,702L765,648Z" fill="#4874a6" stroke="#4874a6"/><path d="M655,607L765,648L793,612Z" fill="#4379ac" stroke="#4379ac"/><path d="M793,612L765,648L843,686Z" fill="#386fa3" stroke="#386fa3"/><path d="M793,612L843,686L869,573Z" fill="#3473a8" stroke="#3473a8"/><path d="M869,573L843,686L959,691Z" fill="#2a699f" stroke="#2a699f"/><path d="M869,573L959,691L947,559Z" fill="#2772a9" stroke="#2772a9"/><path d="M947,559L959,691L1040,659Z" fill="#1f659d" stroke="#1f659d"/><path d="M947,559L1040,659L1030,557Z" fill="#206ea6" stroke="#206ea6"/><path d="M1030,557L1040,659L1109,591Z" fill="#1b669e" stroke="#1b669e"/><path d="M1109,591L1040,659L1097,684Z" fill="#165891" stroke="#165891"/><path d="M1109,591L1097,684L1211,687Z" fill="#115088" stroke="#115088"/><path d="M1109,591L1211,687L1238,579Z" fill="#0f548c" stroke="#0f548c"/><path d="M1238,579L1211,687L1327,694Z" fill="#0c447c" stroke="#0c447c"/><path d="M1238,579L1327,694L1307,576Z" fill="#0e4a82" stroke="#0e4a82"/><path d="M1307,576L1327,694L1404,563Z" fill="#0f457e" stroke="#0f457e"/><path d="M1404,563L1327,694L1397,697Z" fill="#0c3870" stroke="#0c3870"/><path d="M1404,563L1397,697L1501,672Z" fill="#0c346c" stroke="#0c346c"/><path d="M1404,563L1501,672L1481,566Z" fill="#0f3c75" stroke="#0f3c75"/><path d="M-39,649L-33,776L49,681Z" fill="#8189ac" stroke="#8189ac"/><path d="M49,681L-33,776L49,794Z" fill="#7c7a9f" stroke="#7c7a9f"/><path d="M49,681L49,794L126,764Z" fill="#78789e" stroke="#78789e"/><path d="M49,681L126,764L134,698Z" fill="#797fa5" stroke="#797fa5"/><path d="M134,698L126,764L204,742Z" fill="#73769e" stroke="#73769e"/><path d="M134,698L204,742L239,646Z" fill="#747ea7" stroke="#747ea7"/><path d="M239,646L204,742L315,692Z" fill="#6f7ca6" stroke="#6f7ca6"/><path d="M315,692L204,742L307,761Z" fill="#6b719b" stroke="#6b719b"/><path d="M315,692L307,761L424,794Z" fill="#636995" stroke="#636995"/><path d="M315,692L424,794L407,650Z" fill="#62729e" stroke="#62729e"/><path d="M407,650L424,794L480,772Z" fill="#5c6896" stroke="#5c6896"/><path d="M407,650L480,772L510,666Z" fill="#5c72a0" stroke="#5c72a0"/><path d="M510,666L480,772L562,702Z" fill="#566b9a" stroke="#566b9a"/><path d="M562,702L480,772L567,738Z" fill="#526494" stroke="#526494"/><path d="M562,702L567,738L657,702Z" fill="#4d6898" stroke="#4d6898"/><path d="M657,702L567,738L695,742Z" fill="#486294" stroke="#486294"/><path d="M657,702L695,742L765,648Z" fill="#436799" stroke="#436799"/><path d="M765,648L695,742L783,758Z" fill="#3b6093" stroke="#3b6093"/><path d="M765,648L783,758L843,686Z" fill="#356296" stroke="#356296"/><path d="M843,686L783,758L835,789Z" fill="#2e5489" stroke="#2e5489"/><path d="M843,686L835,789L945,783Z" fill="#254f85" stroke="#254f85"/><path d="M843,686L945,783L959,691Z" fill="#21558c" stroke="#21558c"/><path d="M959,691L945,783L1064,795Z" fill="#16457d" stroke="#16457d"/><path d="M959,691L1064,795L1040,659Z" fill="#174c84" stroke="#174c84"/><path d="M1040,659L1064,795L1097,684Z" fill="#134880" stroke="#134880"/><path d="M1097,684L1064,795L1148,787Z" fill="#0d3971" stroke="#0d3971"/><path d="M1097,684L1148,787L1210,752Z" fill="#0a3770" stroke="#0a3770"/><path d="M1097,684L1210,752L1211,687Z" fill="#0a3e77" stroke="#0a3e77"/><path d="M1211,687L1210,752L1327,694Z" fill="#07356e" stroke="#07356e"/><path d="M1327,694L1210,752L1329,758Z" fill="#062a64" stroke="#062a64"/><path d="M1327,694L1329,758L1397,697Z" fill="#072962" stroke="#072962"/><path d="M1397,697L1329,758L1424,759Z" fill="#062059" stroke="#062059"/><path d="M1397,697L1424,759L1466,740Z" fill="#061d56" stroke="#061d56"/><path d="M1397,697L1466,740L1501,672Z" fill="#08215a" stroke="#08215a"/><path d="M49,794L1064,795L424,794Z" fill="#515d85" stroke="#515d85"/><path d="M49,794L424,794L307,761Z" fill="#68688e" stroke="#68688e"/><path d="M49,794L307,761L126,764Z" fill="#716d94" stroke="#716d94"/><path d="M126,764L307,761L204,742Z" fill="#6e6d97" stroke="#6e6d97"/><path d="M424,794L1064,795L835,789Z" fill="#32517e" stroke="#32517e"/><path d="M424,794L835,789L480,772Z" fill="#4a5a86" stroke="#4a5a86"/><path d="M480,772L835,789L695,742Z" fill="#415688" stroke="#415688"/><path d="M480,772L695,742L567,738Z" fill="#4c5f8f" stroke="#4c5f8f"/><path d="M695,742L835,789L783,758Z" fill="#345286" stroke="#345286"/><path d="M835,789L1064,795L945,783Z" fill="#174679" stroke="#174679"/><path d="M1148,787L1424,759L1329,758Z" fill="#03215a" stroke="#03215a"/><path d="M1148,787L1329,758L1210,752Z" fill="#042962" stroke="#042962"/></g></svg>