<svg width="1418" height="679" xmlns="http://www.w3.org/2000/svg"><g><path d="M-33,-5L-37,31L29,27Z" fill="#feffde" stroke="#feffde"/><path d="M-33,-5L29,27L50,-15Z" fill="#fdffde" stroke="#fdffde"/><path d="M50,-15L29,27L113,8Z" fill="#f7fcdc" stroke="#f7fcdc"/><path d="M50,-15L113,8L105,-15Z" fill="#f5fbdc" stroke="#f5fbdc"/><path d="M50,-15L105,-15L266,-39Z" fill="#eff9dc" stroke="#eff9dc"/><path d="M105,-15L113,8L168,-18Z" fill="#f0f9da" stroke="#f0f9da"/><path d="M105,-15L168,-18L266,-39Z" fill="#eaf7da" stroke="#eaf7da"/><path d="M168,-18L113,8L148,25Z" fill="#eef9d8" stroke="#eef9d8"/><path d="M168,-18L148,25L205,24Z" fill="#eaf7d5" stroke="#eaf7d5"/><path d="M168,-18L205,24L216,-14Z" fill="#e8f6d6" stroke="#e8f6d6"/><path d="M168,-18L216,-14L266,-39Z" fill="#e6f5d8" stroke="#e6f5d8"/><path d="M216,-14L205,24L268,51Z" fill="#e3f5d2" stroke="#e3f5d2"/><path d="M216,-14L268,51L266,-39Z" fill="#e1f3d4" stroke="#e1f3d4"/><path d="M266,-39L268,51L306,9Z" fill="#dcf2d3" stroke="#dcf2d3"/><path d="M266,-39L306,9L347,-17Z" fill="#d9f0d7" stroke="#d9f0d7"/><path d="M266,-39L347,-17L395,-44Z" fill="#d4eed9" stroke="#d4eed9"/><path d="M347,-17L306,9L367,17Z" fill="#d3eed5" stroke="#d3eed5"/><path d="M347,-17L367,17L395,-44Z" fill="#cfecd8" stroke="#cfecd8"/><path d="M395,-44L367,17L431,-13Z" fill="#cbebd8" stroke="#cbebd8"/><path d="M395,-44L431,-13L505,-30Z" fill="#c4e8da" stroke="#c4e8da"/><path d="M395,-44L505,-30L687,-47Z" fill="#b8e4dd" stroke="#b8e4dd"/><path d="M395,-44L687,-47L864,-52Z" fill="#a8dee1" stroke="#a8dee1"/><path d="M431,-13L367,17L446,9Z" fill="#c8ead6" stroke="#c8ead6"/><path d="M431,-13L446,9L505,-30Z" fill="#c1e7d9" stroke="#c1e7d9"/><path d="M505,-30L446,9L496,43Z" fill="#bde6d6" stroke="#bde6d6"/><path d="M505,-30L496,43L546,18Z" fill="#b9e4d7" stroke="#b9e4d7"/><path d="M505,-30L546,18L583,-23Z" fill="#b6e3da" stroke="#b6e3da"/><path d="M505,-30L583,-23L649,-35Z" fill="#b1e1dd" stroke="#b1e1dd"/><path d="M505,-30L649,-35L687,-47Z" fill="#addfde" stroke="#addfde"/><path d="M583,-23L546,18L625,20Z" fill="#b0e1d9" stroke="#b0e1d9"/><path d="M583,-23L625,20L649,-35Z" fill="#acdfdc" stroke="#acdfdc"/><path d="M649,-35L625,20L710,53Z" fill="#a6ddd9" stroke="#a6ddd9"/><path d="M649,-35L710,53L687,-47Z" fill="#a4dcdc" stroke="#a4dcdc"/><path d="M687,-47L710,53L733,36Z" fill="#9fdbda" stroke="#9fdbda"/><path d="M687,-47L733,36L774,-33Z" fill="#9fd8dd" stroke="#9fd8dd"/><path d="M687,-47L774,-33L792,-41Z" fill="#9ed6e0" stroke="#9ed6e0"/><path d="M687,-47L792,-41L864,-52Z" fill="#9dd2e0" stroke="#9dd2e0"/><path d="M774,-33L733,36L794,66Z" fill="#9cd4d7" stroke="#9cd4d7"/><path d="M774,-33L794,66L826,54Z" fill="#9ad0d6" stroke="#9ad0d6"/><path d="M774,-33L826,54L853,6Z" fill="#9bced8" stroke="#9bced8"/><path d="M774,-33L853,6L792,-41Z" fill="#9ccfdc" stroke="#9ccfdc"/><path d="M792,-41L853,6L864,-52Z" fill="#9bccdc" stroke="#9bccdc"/><path d="M864,-52L853,6L925,-10Z" fill="#99c7da" stroke="#99c7da"/><path d="M864,-52L925,-10L967,-14Z" fill="#97c2d9" stroke="#97c2d9"/><path d="M864,-52L967,-14L1026,-25Z" fill="#96bed9" stroke="#96bed9"/><path d="M864,-52L1026,-25L1109,-38Z" fill="#95b7d6" stroke="#95b7d6"/><path d="M864,-52L1109,-38L1421,-54Z" fill="#93a2ce" stroke="#93a2ce"/><path d="M925,-10L853,6L908,32Z" fill="#97c5d6" stroke="#97c5d6"/><path d="M925,-10L908,32L967,-14Z" fill="#96c1d6" stroke="#96c1d6"/><path d="M967,-14L908,32L981,54Z" fill="#94bed2" stroke="#94bed2"/><path d="M967,-14L981,54L1026,-25Z" fill="#95b8d2" stroke="#95b8d2"/><path d="M1026,-25L981,54L1044,35Z" fill="#93b4ce" stroke="#93b4ce"/><path d="M1026,-25L1044,35L1109,-38Z" fill="#94adce" stroke="#94adce"/><path d="M1109,-38L1044,35L1125,48Z" fill="#93a8c9" stroke="#93a8c9"/><path d="M1109,-38L1125,48L1188,-25Z" fill="#93a0c7" stroke="#93a0c7"/><path d="M1109,-38L1188,-25L1313,-30Z" fill="#9296c6" stroke="#9296c6"/><path d="M1109,-38L1313,-30L1421,-54Z" fill="#918ac1" stroke="#918ac1"/><path d="M1188,-25L1125,48L1191,21Z" fill="#919cc3" stroke="#919cc3"/><path d="M1188,-25L1191,21L1210,-11Z" fill="#9297c3" stroke="#9297c3"/><path d="M1188,-25L1210,-11L1313,-30Z" fill="#9191c2" stroke="#9191c2"/><path d="M1210,-11L1191,21L1245,30Z" fill="#9194c0" stroke="#9194c0"/><path d="M1210,-11L1245,30L1276,30Z" fill="#9090bd" stroke="#9090bd"/><path d="M1210,-11L1276,30L1313,-30Z" fill="#918cbe" stroke="#918cbe"/><path d="M1313,-30L1276,30L1327,50Z" fill="#8f86b8" stroke="#8f86b8"/><path d="M1313,-30L1327,50L1364,-15Z" fill="#9081b8" stroke="#9081b8"/><path d="M1313,-30L1364,-15L1421,-54Z" fill="#9080ba" stroke="#9080ba"/><path d="M1364,-15L1327,50L1347,68Z" fill="#8d80b3" stroke="#8d80b3"/><path d="M1364,-15L1347,68L1424,45Z" fill="#8d80b1" stroke="#8d80b1"/><path d="M1364,-15L1424,45L1447,-29Z" fill="#8f80b2" stroke="#8f80b2"/><path d="M1364,-15L1447,-29L1421,-54Z" fill="#8f80b6" stroke="#8f80b6"/><path d="M1447,-29L1424,45L1473,20Z" fill="#8d80ae" stroke="#8d80ae"/><path d="M-37,31L-46,156L-30,88Z" fill="#f8ffd6" stroke="#f8ffd6"/><path d="M-37,31L-30,88L29,27Z" fill="#fbffda" stroke="#fbffda"/><path d="M29,27L-30,88L46,81Z" fill="#f8ffd7" stroke="#f8ffd7"/><path d="M29,27L46,81L113,8Z" fill="#f5fcd8" stroke="#f5fcd8"/><path d="M113,8L46,81L89,92Z" fill="#f0fbd4" stroke="#f0fbd4"/><path d="M113,8L89,92L140,84Z" fill="#edfad2" stroke="#edfad2"/><path d="M113,8L140,84L148,25Z" fill="#ecf9d4" stroke="#ecf9d4"/><path d="M148,25L140,84L205,24Z" fill="#e8f8d2" stroke="#e8f8d2"/><path d="M205,24L140,84L217,115Z" fill="#e3f7cd" stroke="#e3f7cd"/><path d="M205,24L217,115L246,86Z" fill="#dff5cb" stroke="#dff5cb"/><path d="M205,24L246,86L268,51Z" fill="#def4cd" stroke="#def4cd"/><path d="M268,51L246,86L350,105Z" fill="#d5f1cb" stroke="#d5f1cb"/><path d="M268,51L350,105L306,9Z" fill="#d4f0ce" stroke="#d4f0ce"/><path d="M306,9L350,105L367,17Z" fill="#d0eed0" stroke="#d0eed0"/><path d="M367,17L350,105L388,68Z" fill="#caecce" stroke="#caecce"/><path d="M367,17L388,68L446,9Z" fill="#c8ebd2" stroke="#c8ebd2"/><path d="M446,9L388,68L452,96Z" fill="#c1e9d0" stroke="#c1e9d0"/><path d="M446,9L452,96L496,43Z" fill="#bce7d1" stroke="#bce7d1"/><path d="M496,43L452,96L491,83Z" fill="#b8e6ce" stroke="#b8e6ce"/><path d="M496,43L491,83L589,69Z" fill="#b3e4d0" stroke="#b3e4d0"/><path d="M496,43L589,69L546,18Z" fill="#b2e3d3" stroke="#b2e3d3"/><path d="M546,18L589,69L625,20Z" fill="#ade1d5" stroke="#ade1d5"/><path d="M625,20L589,69L630,103Z" fill="#a8dfd2" stroke="#a8dfd2"/><path d="M625,20L630,103L710,53Z" fill="#a3ddd3" stroke="#a3ddd3"/><path d="M710,53L630,103L702,114Z" fill="#9ddcd0" stroke="#9ddcd0"/><path d="M710,53L702,114L729,73Z" fill="#9adad2" stroke="#9adad2"/><path d="M710,53L729,73L733,36Z" fill="#9bd9d5" stroke="#9bd9d5"/><path d="M733,36L729,73L794,66Z" fill="#9ad6d4" stroke="#9ad6d4"/><path d="M826,54L794,66L856,99Z" fill="#95cdd0" stroke="#95cdd0"/><path d="M826,54L856,99L908,32Z" fill="#94c9d0" stroke="#94c9d0"/><path d="M826,54L908,32L853,6Z" fill="#97c9d4" stroke="#97c9d4"/><path d="M908,32L856,99L918,95Z" fill="#92c5ce" stroke="#92c5ce"/><path d="M908,32L918,95L967,76Z" fill="#91c1ce" stroke="#91c1ce"/><path d="M908,32L967,76L981,54Z" fill="#91becf" stroke="#91becf"/><path d="M981,54L967,76L1037,67Z" fill="#90b7ca" stroke="#90b7ca"/><path d="M981,54L1037,67L1044,35Z" fill="#91b3ca" stroke="#91b3ca"/><path d="M1044,35L1037,67L1096,82Z" fill="#8fadc6" stroke="#8fadc6"/><path d="M1044,35L1096,82L1125,48Z" fill="#8fa9c4" stroke="#8fa9c4"/><path d="M1125,48L1096,82L1145,75Z" fill="#8ea3c0" stroke="#8ea3c0"/><path d="M1125,48L1145,75L1191,21Z" fill="#8f9ec0" stroke="#8f9ec0"/><path d="M1191,21L1145,75L1244,103Z" fill="#8d98bb" stroke="#8d98bb"/><path d="M1191,21L1244,103L1245,30Z" fill="#8e93ba" stroke="#8e93ba"/><path d="M1245,30L1244,103L1270,74Z" fill="#8c8eb6" stroke="#8c8eb6"/><path d="M1245,30L1270,74L1276,30Z" fill="#8e8db8" stroke="#8e8db8"/><path d="M1276,30L1270,74L1327,50Z" fill="#8d88b5" stroke="#8d88b5"/><path d="M1327,50L1270,74L1347,68Z" fill="#8b85b2" stroke="#8b85b2"/><path d="M1424,45L1347,68L1396,79Z" fill="#8a80ac" stroke="#8a80ac"/><path d="M1424,45L1396,79L1468,83Z" fill="#8980a8" stroke="#8980a8"/><path d="M1424,45L1468,83L1473,20Z" fill="#8a80a9" stroke="#8a80a9"/><path d="M1473,20L1468,83L1484,338Z" fill="#787ea0" stroke="#787ea0"/><path d="M-30,88L-46,156L11,142Z" fill="#f0ffd3" stroke="#f0ffd3"/><path d="M-30,88L11,142L46,81Z" fill="#f6ffd2" stroke="#f6ffd2"/><path d="M46,81L11,142L89,92Z" fill="#f1fdd0" stroke="#f1fdd0"/><path d="M89,92L11,142L115,159Z" fill="#e7fbcf" stroke="#e7fbcf"/><path d="M89,92L115,159L140,84Z" fill="#e9facc" stroke="#e9facc"/><path d="M140,84L115,159L167,141Z" fill="#e0f8cb" stroke="#e0f8cb"/><path d="M140,84L167,141L186,127Z" fill="#e1f8c9" stroke="#e1f8c9"/><path d="M140,84L186,127L217,115Z" fill="#e1f7c9" stroke="#e1f7c9"/><path d="M217,115L186,127L204,190Z" fill="#d3f4c8" stroke="#d3f4c8"/><path d="M217,115L204,190L250,170Z" fill="#cbf3c8" stroke="#cbf3c8"/><path d="M217,115L250,170L246,86Z" fill="#d6f4c6" stroke="#d6f4c6"/><path d="M246,86L250,170L339,162Z" fill="#caf1c7" stroke="#caf1c7"/><path d="M246,86L339,162L350,105Z" fill="#cdf0c7" stroke="#cdf0c7"/><path d="M350,105L339,162L383,169Z" fill="#bcecc9" stroke="#bcecc9"/><path d="M350,105L383,169L388,68Z" fill="#c5ecc8" stroke="#c5ecc8"/><path d="M388,68L383,169L452,96Z" fill="#c0eac9" stroke="#c0eac9"/><path d="M452,96L383,169L450,148Z" fill="#b4e8ca" stroke="#b4e8ca"/><path d="M452,96L450,148L505,127Z" fill="#b3e6ca" stroke="#b3e6ca"/><path d="M452,96L505,127L491,83Z" fill="#b6e6cb" stroke="#b6e6cb"/><path d="M491,83L505,127L589,69Z" fill="#b0e4cd" stroke="#b0e4cd"/><path d="M589,69L505,127L563,163Z" fill="#a9e2cb" stroke="#a9e2cb"/><path d="M589,69L563,163L617,130Z" fill="#a4e0cc" stroke="#a4e0cc"/><path d="M589,69L617,130L630,103Z" fill="#a5dfcd" stroke="#a5dfcd"/><path d="M630,103L617,130L683,160Z" fill="#99ddcd" stroke="#99ddcd"/><path d="M630,103L683,160L702,114Z" fill="#98dcce" stroke="#98dcce"/><path d="M702,114L683,160L758,152Z" fill="#8cd9cf" stroke="#8cd9cf"/><path d="M702,114L758,152L729,73Z" fill="#96d8cd" stroke="#96d8cd"/><path d="M729,73L758,152L794,66Z" fill="#96d5ce" stroke="#96d5ce"/><path d="M794,66L758,152L794,158Z" fill="#90d2cc" stroke="#90d2cc"/><path d="M794,66L794,158L856,99Z" fill="#93cecc" stroke="#93cecc"/><path d="M856,99L794,158L884,132Z" fill="#8bcacb" stroke="#8bcacb"/><path d="M856,99L884,132L918,95Z" fill="#90c6ca" stroke="#90c6ca"/><path d="M918,95L884,132L915,132Z" fill="#8cc3c9" stroke="#8cc3c9"/><path d="M918,95L915,132L967,76Z" fill="#8ec1ca" stroke="#8ec1ca"/><path d="M967,76L915,132L994,133Z" fill="#8dbdc7" stroke="#8dbdc7"/><path d="M967,76L994,133L1037,67Z" fill="#8db7c6" stroke="#8db7c6"/><path d="M1037,67L994,133L1065,137Z" fill="#8bb1c1" stroke="#8bb1c1"/><path d="M1037,67L1065,137L1096,82Z" fill="#8cacc1" stroke="#8cacc1"/><path d="M1096,82L1065,137L1131,156Z" fill="#86a7bd" stroke="#86a7bd"/><path d="M1096,82L1131,156L1153,135Z" fill="#86a2ba" stroke="#86a2ba"/><path d="M1096,82L1153,135L1145,75Z" fill="#8ba2bc" stroke="#8ba2bc"/><path d="M1145,75L1153,135L1244,103Z" fill="#8a9ab7" stroke="#8a9ab7"/><path d="M1244,103L1153,135L1229,166Z" fill="#8194b5" stroke="#8194b5"/><path d="M1244,103L1229,166L1273,169Z" fill="#7c8eb2" stroke="#7c8eb2"/><path d="M1244,103L1273,169L1270,74Z" fill="#878db0" stroke="#878db0"/><path d="M1270,74L1273,169L1351,169Z" fill="#7f86ae" stroke="#7f86ae"/><path d="M1270,74L1351,169L1347,68Z" fill="#8883ac" stroke="#8883ac"/><path d="M1347,68L1351,169L1396,79Z" fill="#8780a9" stroke="#8780a9"/><path d="M1396,79L1351,169L1410,151Z" fill="#7f7fa7" stroke="#7f7fa7"/><path d="M1396,79L1410,151L1447,133Z" fill="#837fa4" stroke="#837fa4"/><path d="M1396,79L1447,133L1468,83Z" fill="#8680a4" stroke="#8680a4"/><path d="M1468,83L1447,133L1451,198Z" fill="#7c7fa2" stroke="#7c7fa2"/><path d="M1468,83L1451,198L1474,290Z" fill="#687ca3" stroke="#687ca3"/><path d="M1468,83L1474,290L1484,338Z" fill="#5679a4" stroke="#5679a4"/><path d="M-46,156L-47,228L11,142Z" fill="#dffdd5" stroke="#dffdd5"/><path d="M11,142L-47,228L46,203Z" fill="#d8fcd5" stroke="#d8fcd5"/><path d="M11,142L46,203L115,159Z" fill="#dafad1" stroke="#dafad1"/><path d="M115,159L46,203L90,224Z" fill="#cdf8d1" stroke="#cdf8d1"/><path d="M115,159L90,224L150,217Z" fill="#c7f6cf" stroke="#c7f6cf"/><path d="M115,159L150,217L167,141Z" fill="#cff6cc" stroke="#cff6cc"/><path d="M167,141L150,217L204,190Z" fill="#c7f4cb" stroke="#c7f4cb"/><path d="M167,141L204,190L186,127Z" fill="#d1f5ca" stroke="#d1f5ca"/><path d="M250,170L204,190L278,215Z" fill="#bbf0c9" stroke="#bbf0c9"/><path d="M250,170L278,215L321,199Z" fill="#b4eec9" stroke="#b4eec9"/><path d="M250,170L321,199L339,162Z" fill="#b8edc9" stroke="#b8edc9"/><path d="M339,162L321,199L383,169Z" fill="#b1ebc9" stroke="#b1ebc9"/><path d="M383,169L321,199L386,230Z" fill="#a6e9cb" stroke="#a6e9cb"/><path d="M383,169L386,230L463,199Z" fill="#9fe6cb" stroke="#9fe6cb"/><path d="M383,169L463,199L450,148Z" fill="#a6e6cb" stroke="#a6e6cb"/><path d="M450,148L463,199L505,127Z" fill="#a5e4cb" stroke="#a5e4cb"/><path d="M505,127L463,199L495,208Z" fill="#9ce3cc" stroke="#9ce3cc"/><path d="M505,127L495,208L563,163Z" fill="#9ce1cc" stroke="#9ce1cc"/><path d="M563,163L495,208L588,203Z" fill="#8fdfce" stroke="#8fdfce"/><path d="M563,163L588,203L617,130Z" fill="#93decd" stroke="#93decd"/><path d="M617,130L588,203L609,216Z" fill="#8addce" stroke="#8addce"/><path d="M617,130L609,216L683,160Z" fill="#8cdcce" stroke="#8cdcce"/><path d="M683,160L609,216L670,230Z" fill="#7cd9d0" stroke="#7cd9d0"/><path d="M683,160L670,230L740,191Z" fill="#7ad8d1" stroke="#7ad8d1"/><path d="M683,160L740,191L758,152Z" fill="#82d6cf" stroke="#82d6cf"/><path d="M758,152L740,191L794,158Z" fill="#80d2ce" stroke="#80d2ce"/><path d="M794,158L740,191L823,198Z" fill="#79cfce" stroke="#79cfce"/><path d="M794,158L823,198L884,132Z" fill="#7fcacc" stroke="#7fcacc"/><path d="M884,132L823,198L883,188Z" fill="#7ac6cc" stroke="#7ac6cc"/><path d="M884,132L883,188L905,190Z" fill="#7ac3cb" stroke="#7ac3cb"/><path d="M884,132L905,190L915,132Z" fill="#80c3ca" stroke="#80c3ca"/><path d="M915,132L905,190L971,191Z" fill="#77beca" stroke="#77beca"/><path d="M915,132L971,191L994,133Z" fill="#7ebbc8" stroke="#7ebbc8"/><path d="M994,133L971,191L1045,193Z" fill="#75b4c5" stroke="#75b4c5"/><path d="M994,133L1045,193L1065,137Z" fill="#7cafc2" stroke="#7cafc2"/><path d="M1065,137L1045,193L1088,208Z" fill="#72a9c1" stroke="#72a9c1"/><path d="M1065,137L1088,208L1131,156Z" fill="#76a5be" stroke="#76a5be"/><path d="M1131,156L1088,208L1158,198Z" fill="#6e9fbd" stroke="#6e9fbd"/><path d="M1131,156L1158,198L1153,135Z" fill="#779dba" stroke="#779dba"/><path d="M1153,135L1158,198L1229,166Z" fill="#7598b8" stroke="#7598b8"/><path d="M1229,166L1158,198L1226,246Z" fill="#6692b7" stroke="#6692b7"/><path d="M1229,166L1226,246L1249,233Z" fill="#628db5" stroke="#628db5"/><path d="M1229,166L1249,233L1277,201Z" fill="#678bb3" stroke="#678bb3"/><path d="M1229,166L1277,201L1273,169Z" fill="#6f8ab2" stroke="#6f8ab2"/><path d="M1273,169L1277,201L1351,169Z" fill="#6e84af" stroke="#6e84af"/><path d="M1351,169L1277,201L1349,230Z" fill="#667fae" stroke="#667fae"/><path d="M1351,169L1349,230L1403,214Z" fill="#647cab" stroke="#647cab"/><path d="M1351,169L1403,214L1410,151Z" fill="#6e7da9" stroke="#6e7da9"/><path d="M1410,151L1403,214L1451,198Z" fill="#697ca6" stroke="#697ca6"/><path d="M1410,151L1451,198L1447,133Z" fill="#737ea4" stroke="#737ea4"/><path d="M-47,228L-47,473L-42,331Z" fill="#a6ebdd" stroke="#a6ebdd"/><path d="M-47,228L-42,331L-30,261Z" fill="#bcf4da" stroke="#bcf4da"/><path d="M-47,228L-30,261L10,262Z" fill="#c3f7d8" stroke="#c3f7d8"/><path d="M-47,228L10,262L46,203Z" fill="#c9fad6" stroke="#c9fad6"/><path d="M46,203L10,262L90,224Z" fill="#c4f7d3" stroke="#c4f7d3"/><path d="M90,224L10,262L104,288Z" fill="#b9f3d4" stroke="#b9f3d4"/><path d="M90,224L104,288L155,256Z" fill="#b4f1d1" stroke="#b4f1d1"/><path d="M90,224L155,256L150,217Z" fill="#baf4d0" stroke="#baf4d0"/><path d="M150,217L155,256L221,252Z" fill="#b1f0cd" stroke="#b1f0cd"/><path d="M150,217L221,252L204,190Z" fill="#b7f2cc" stroke="#b7f2cc"/><path d="M204,190L221,252L278,215Z" fill="#b2f0c9" stroke="#b2f0c9"/><path d="M278,215L221,252L245,258Z" fill="#a8edca" stroke="#a8edca"/><path d="M278,215L245,258L312,265Z" fill="#a2eacb" stroke="#a2eacb"/><path d="M278,215L312,265L321,199Z" fill="#a5ebcb" stroke="#a5ebcb"/><path d="M321,199L312,265L386,230Z" fill="#9ee9cb" stroke="#9ee9cb"/><path d="M386,230L312,265L408,247Z" fill="#94e5cd" stroke="#94e5cd"/><path d="M386,230L408,247L463,199Z" fill="#94e4cc" stroke="#94e4cc"/><path d="M463,199L408,247L442,276Z" fill="#8ce1cd" stroke="#8ce1cd"/><path d="M463,199L442,276L495,208Z" fill="#8ce2cd" stroke="#8ce2cd"/><path d="M495,208L442,276L495,290Z" fill="#80ddcf" stroke="#80ddcf"/><path d="M495,208L495,290L562,282Z" fill="#7adbd0" stroke="#7adbd0"/><path d="M495,208L562,282L588,203Z" fill="#80ddcf" stroke="#80ddcf"/><path d="M588,203L562,282L609,216Z" fill="#7adbd0" stroke="#7adbd0"/><path d="M609,216L562,282L653,262Z" fill="#70d7d1" stroke="#70d7d1"/><path d="M609,216L653,262L670,230Z" fill="#72d8d1" stroke="#72d8d1"/><path d="M670,230L653,262L674,268Z" fill="#69d4d2" stroke="#69d4d2"/><path d="M670,230L674,268L740,191Z" fill="#6dd6d1" stroke="#6dd6d1"/><path d="M740,191L674,268L767,289Z" fill="#64d1d2" stroke="#64d1d2"/><path d="M740,191L767,289L801,283Z" fill="#61cbd2" stroke="#61cbd2"/><path d="M740,191L801,283L823,198Z" fill="#6acdd0" stroke="#6acdd0"/><path d="M823,198L801,283L893,271Z" fill="#5ec4cf" stroke="#5ec4cf"/><path d="M823,198L893,271L883,188Z" fill="#68c4cd" stroke="#68c4cd"/><path d="M883,188L893,271L905,190Z" fill="#68c1cd" stroke="#68c1cd"/><path d="M905,190L893,271L933,290Z" fill="#5bbbce" stroke="#5bbbce"/><path d="M905,190L933,290L983,264Z" fill="#5bb8cd" stroke="#5bb8cd"/><path d="M905,190L983,264L971,191Z" fill="#66bacb" stroke="#66bacb"/><path d="M971,191L983,264L1045,193Z" fill="#65b2c7" stroke="#65b2c7"/><path d="M1045,193L983,264L1035,271Z" fill="#5bacc7" stroke="#5bacc7"/><path d="M1045,193L1035,271L1088,208Z" fill="#61a9c3" stroke="#61a9c3"/><path d="M1088,208L1035,271L1090,272Z" fill="#58a3c3" stroke="#58a3c3"/><path d="M1088,208L1090,272L1158,198Z" fill="#5fa0bf" stroke="#5fa0bf"/><path d="M1158,198L1090,272L1181,281Z" fill="#5798be" stroke="#5798be"/><path d="M1158,198L1181,281L1226,246Z" fill="#5992ba" stroke="#5992ba"/><path d="M1249,233L1226,246L1286,293Z" fill="#5385b6" stroke="#5385b6"/><path d="M1249,233L1286,293L1277,201Z" fill="#5885b4" stroke="#5885b4"/><path d="M1277,201L1286,293L1332,278Z" fill="#537eb2" stroke="#537eb2"/><path d="M1277,201L1332,278L1349,230Z" fill="#597eb0" stroke="#597eb0"/><path d="M1349,230L1332,278L1435,279Z" fill="#4f76ad" stroke="#4f76ad"/><path d="M1349,230L1435,279L1403,214Z" fill="#5679aa" stroke="#5679aa"/><path d="M1403,214L1435,279L1451,198Z" fill="#597aa7" stroke="#597aa7"/><path d="M1451,198L1435,279L1474,290Z" fill="#5177a7" stroke="#5177a7"/><path d="M-30,261L-42,331L10,262Z" fill="#b8f3da" stroke="#b8f3da"/><path d="M10,262L-42,331L7,347Z" fill="#afefda" stroke="#afefda"/><path d="M10,262L7,347L104,288Z" fill="#aeefd7" stroke="#aeefd7"/><path d="M104,288L7,347L102,344Z" fill="#a2ead7" stroke="#a2ead7"/><path d="M104,288L102,344L163,312Z" fill="#a0ead4" stroke="#a0ead4"/><path d="M104,288L163,312L155,256Z" fill="#a7ecd2" stroke="#a7ecd2"/><path d="M155,256L163,312L221,252Z" fill="#a6eccf" stroke="#a6eccf"/><path d="M221,252L163,312L228,312Z" fill="#9ee9ce" stroke="#9ee9ce"/><path d="M221,252L228,312L245,258Z" fill="#a0e9cd" stroke="#a0e9cd"/><path d="M245,258L228,312L284,316Z" fill="#96e6cd" stroke="#96e6cd"/><path d="M245,258L284,316L312,265Z" fill="#97e6cd" stroke="#97e6cd"/><path d="M312,265L284,316L317,338Z" fill="#8be1cf" stroke="#8be1cf"/><path d="M312,265L317,338L408,322Z" fill="#84dfcf" stroke="#84dfcf"/><path d="M312,265L408,322L408,247Z" fill="#89e0ce" stroke="#89e0ce"/><path d="M408,247L408,322L442,276Z" fill="#81ddcf" stroke="#81ddcf"/><path d="M442,276L408,322L472,335Z" fill="#75d9d1" stroke="#75d9d1"/><path d="M442,276L472,335L495,290Z" fill="#74d8d1" stroke="#74d8d1"/><path d="M495,290L472,335L512,314Z" fill="#6cd6d2" stroke="#6cd6d2"/><path d="M495,290L512,314L562,282Z" fill="#6ed6d2" stroke="#6ed6d2"/><path d="M562,282L512,314L558,355Z" fill="#64d3d3" stroke="#64d3d3"/><path d="M562,282L558,355L609,327Z" fill="#5fd0d4" stroke="#5fd0d4"/><path d="M562,282L609,327L653,262Z" fill="#64d3d3" stroke="#64d3d3"/><path d="M653,262L609,327L665,308Z" fill="#5dd0d4" stroke="#5dd0d4"/><path d="M653,262L665,308L674,268Z" fill="#61d1d3" stroke="#61d1d3"/><path d="M674,268L665,308L767,289Z" fill="#59cfd5" stroke="#59cfd5"/><path d="M767,289L665,308L766,330Z" fill="#50c9d5" stroke="#50c9d5"/><path d="M767,289L766,330L804,317Z" fill="#4dc3d4" stroke="#4dc3d4"/><path d="M767,289L804,317L801,283Z" fill="#52c4d3" stroke="#52c4d3"/><path d="M801,283L804,317L893,271Z" fill="#52bfd2" stroke="#52bfd2"/><path d="M893,271L804,317L889,329Z" fill="#4bbad2" stroke="#4bbad2"/><path d="M893,271L889,329L911,323Z" fill="#49b6d1" stroke="#49b6d1"/><path d="M893,271L911,323L933,290Z" fill="#4db6d0" stroke="#4db6d0"/><path d="M933,290L911,323L1011,316Z" fill="#47afcf" stroke="#47afcf"/><path d="M933,290L1011,316L983,264Z" fill="#4cadcc" stroke="#4cadcc"/><path d="M983,264L1011,316L1035,271Z" fill="#4ea9ca" stroke="#4ea9ca"/><path d="M1035,271L1011,316L1075,312Z" fill="#48a2c8" stroke="#48a2c8"/><path d="M1035,271L1075,312L1090,272Z" fill="#4d9fc6" stroke="#4d9fc6"/><path d="M1090,272L1075,312L1148,337Z" fill="#4597c4" stroke="#4597c4"/><path d="M1090,272L1148,337L1181,281Z" fill="#4893c0" stroke="#4893c0"/><path d="M1181,281L1148,337L1176,374Z" fill="#3c8ac0" stroke="#3c8ac0"/><path d="M1181,281L1176,374L1252,337Z" fill="#3c84bd" stroke="#3c84bd"/><path d="M1181,281L1252,337L1226,246Z" fill="#4a87ba" stroke="#4a87ba"/><path d="M1226,246L1252,337L1286,293Z" fill="#4881b7" stroke="#4881b7"/><path d="M1286,293L1252,337L1292,349Z" fill="#3c79b8" stroke="#3c79b8"/><path d="M1286,293L1292,349L1331,353Z" fill="#3a74b6" stroke="#3a74b6"/><path d="M1286,293L1331,353L1332,278Z" fill="#4275b3" stroke="#4275b3"/><path d="M1332,278L1331,353L1394,329Z" fill="#3d6fb1" stroke="#3d6fb1"/><path d="M1332,278L1394,329L1435,279Z" fill="#4572ae" stroke="#4572ae"/><path d="M1435,279L1394,329L1484,338Z" fill="#3d70ab" stroke="#3d70ab"/><path d="M1435,279L1484,338L1474,290Z" fill="#4171a8" stroke="#4171a8"/><path d="M-42,331L-47,473L-36,414Z" fill="#9fd9d9" stroke="#9fd9d9"/><path d="M-42,331L-36,414L7,347Z" fill="#a4e5db" stroke="#a4e5db"/><path d="M7,347L-36,414L31,375Z" fill="#a2e1d9" stroke="#a2e1d9"/><path d="M7,347L31,375L70,374Z" fill="#9fe3d8" stroke="#9fe3d8"/><path d="M7,347L70,374L102,344Z" fill="#9ee5d7" stroke="#9ee5d7"/><path d="M102,344L70,374L151,407Z" fill="#95ddd3" stroke="#95ddd3"/><path d="M102,344L151,407L163,312Z" fill="#94e1d3" stroke="#94e1d3"/><path d="M163,312L151,407L200,410Z" fill="#8edad0" stroke="#8edad0"/><path d="M163,312L200,410L228,312Z" fill="#8ee2d1" stroke="#8ee2d1"/><path d="M228,312L200,410L259,375Z" fill="#88dace" stroke="#88dace"/><path d="M228,312L259,375L284,316Z" fill="#89e1cf" stroke="#89e1cf"/><path d="M284,316L259,375L317,338Z" fill="#82ddd0" stroke="#82ddd0"/><path d="M317,338L259,375L321,365Z" fill="#7fd8cf" stroke="#7fd8cf"/><path d="M317,338L321,365L385,385Z" fill="#78d4cf" stroke="#78d4cf"/><path d="M317,338L385,385L408,322Z" fill="#75d7d1" stroke="#75d7d1"/><path d="M408,322L385,385L442,373Z" fill="#6dd1d0" stroke="#6dd1d0"/><path d="M408,322L442,373L472,335Z" fill="#6bd4d2" stroke="#6bd4d2"/><path d="M472,335L442,373L493,395Z" fill="#64cbd1" stroke="#64cbd1"/><path d="M472,335L493,395L512,314Z" fill="#63d0d3" stroke="#63d0d3"/><path d="M512,314L493,395L558,355Z" fill="#5eccd3" stroke="#5eccd3"/><path d="M558,355L493,395L567,377Z" fill="#5ac6d2" stroke="#5ac6d2"/><path d="M558,355L567,377L609,327Z" fill="#57cad4" stroke="#57cad4"/><path d="M609,327L567,377L640,415Z" fill="#51c3d3" stroke="#51c3d3"/><path d="M609,327L640,415L665,308Z" fill="#50c8d5" stroke="#50c8d5"/><path d="M665,308L640,415L714,397Z" fill="#48c0d5" stroke="#48c0d5"/><path d="M665,308L714,397L766,330Z" fill="#46c6d7" stroke="#46c6d7"/><path d="M766,330L714,397L766,374Z" fill="#42bbd4" stroke="#42bbd4"/><path d="M766,330L766,374L809,365Z" fill="#42bad4" stroke="#42bad4"/><path d="M766,330L809,365L804,317Z" fill="#44bed5" stroke="#44bed5"/><path d="M804,317L809,365L889,329Z" fill="#43bad4" stroke="#43bad4"/><path d="M889,329L809,365L880,393Z" fill="#3eb0d2" stroke="#3eb0d2"/><path d="M889,329L880,393L932,394Z" fill="#3ba8d0" stroke="#3ba8d0"/><path d="M889,329L932,394L911,323Z" fill="#3daed2" stroke="#3daed2"/><path d="M911,323L932,394L1006,373Z" fill="#3aa5cf" stroke="#3aa5cf"/><path d="M911,323L1006,373L1011,316Z" fill="#3da8cf" stroke="#3da8cf"/><path d="M1011,316L1006,373L1075,312Z" fill="#3d9fca" stroke="#3d9fca"/><path d="M1075,312L1006,373L1035,407Z" fill="#3996c9" stroke="#3996c9"/><path d="M1075,312L1035,407L1130,372Z" fill="#3890c5" stroke="#3890c5"/><path d="M1075,312L1130,372L1130,352Z" fill="#3a90c4" stroke="#3a90c4"/><path d="M1075,312L1130,352L1148,337Z" fill="#3c91c4" stroke="#3c91c4"/><path d="M1130,352L1130,372L1176,374Z" fill="#3785c0" stroke="#3785c0"/><path d="M1130,352L1176,374L1148,337Z" fill="#3887c1" stroke="#3887c1"/><path d="M1252,337L1176,374L1240,399Z" fill="#3577ba" stroke="#3577ba"/><path d="M1252,337L1240,399L1292,349Z" fill="#3674b8" stroke="#3674b8"/><path d="M1292,349L1240,399L1309,367Z" fill="#346eb6" stroke="#346eb6"/><path d="M1292,349L1309,367L1331,353Z" fill="#356db4" stroke="#356db4"/><path d="M1331,353L1309,367L1361,409Z" fill="#3364b1" stroke="#3364b1"/><path d="M1331,353L1361,409L1386,386Z" fill="#3260af" stroke="#3260af"/><path d="M1331,353L1386,386L1394,329Z" fill="#3468b0" stroke="#3468b0"/><path d="M1394,329L1386,386L1448,404Z" fill="#3263ac" stroke="#3263ac"/><path d="M1394,329L1448,404L1484,338Z" fill="#3368aa" stroke="#3368aa"/><path d="M1484,338L1448,404L1446,457Z" fill="#2f5ba6" stroke="#2f5ba6"/><path d="M1484,338L1446,457L1462,511Z" fill="#2b51a3" stroke="#2b51a3"/><path d="M1484,338L1462,511L1480,589Z" fill="#27419c" stroke="#27419c"/><path d="M-36,414L-47,473L32,489Z" fill="#9ac9d4" stroke="#9ac9d4"/><path d="M-36,414L32,489L46,472Z" fill="#98c9d2" stroke="#98c9d2"/><path d="M-36,414L46,472L70,432Z" fill="#98ced3" stroke="#98ced3"/><path d="M-36,414L70,432L31,375Z" fill="#9cd8d6" stroke="#9cd8d6"/><path d="M31,375L70,432L70,374Z" fill="#99dad5" stroke="#99dad5"/><path d="M70,374L70,432L151,407Z" fill="#94d5d2" stroke="#94d5d2"/><path d="M151,407L70,432L159,439Z" fill="#8ecdcf" stroke="#8ecdcf"/><path d="M151,407L159,439L200,410Z" fill="#8acdce" stroke="#8acdce"/><path d="M200,410L159,439L199,442Z" fill="#86c9cc" stroke="#86c9cc"/><path d="M200,410L199,442L272,433Z" fill="#82c8ca" stroke="#82c8ca"/><path d="M200,410L272,433L259,375Z" fill="#82cdcb" stroke="#82cdcb"/><path d="M259,375L272,433L321,365Z" fill="#7dcfcc" stroke="#7dcfcc"/><path d="M321,365L272,433L339,435Z" fill="#77c8cc" stroke="#77c8cc"/><path d="M321,365L339,435L385,385Z" fill="#73cbcd" stroke="#73cbcd"/><path d="M385,385L339,435L371,468Z" fill="#6dc0cb" stroke="#6dc0cb"/><path d="M385,385L371,468L425,454Z" fill="#68bccb" stroke="#68bccb"/><path d="M385,385L425,454L442,373Z" fill="#68c4cd" stroke="#68c4cd"/><path d="M442,373L425,454L493,395Z" fill="#62c0ce" stroke="#62c0ce"/><path d="M493,395L425,454L492,469Z" fill="#5cb6cc" stroke="#5cb6cc"/><path d="M493,395L492,469L550,463Z" fill="#56b3cc" stroke="#56b3cc"/><path d="M493,395L550,463L567,377Z" fill="#56bbcf" stroke="#56bbcf"/><path d="M567,377L550,463L636,445Z" fill="#4eb4cf" stroke="#4eb4cf"/><path d="M567,377L636,445L640,415Z" fill="#4cb7d0" stroke="#4cb7d0"/><path d="M640,415L636,445L702,430Z" fill="#44b0d0" stroke="#44b0d0"/><path d="M640,415L702,430L714,397Z" fill="#42b3d2" stroke="#42b3d2"/><path d="M714,397L702,430L734,435Z" fill="#3eafd2" stroke="#3eafd2"/><path d="M714,397L734,435L766,374Z" fill="#3fb2d3" stroke="#3fb2d3"/><path d="M766,374L734,435L819,462Z" fill="#3ba8d0" stroke="#3ba8d0"/><path d="M766,374L819,462L809,365Z" fill="#3dacd1" stroke="#3dacd1"/><path d="M809,365L819,462L880,393Z" fill="#3aa5d0" stroke="#3aa5d0"/><path d="M880,393L819,462L869,456Z" fill="#369acd" stroke="#369acd"/><path d="M880,393L869,456L932,394Z" fill="#379cce" stroke="#379cce"/><path d="M932,394L869,456L954,425Z" fill="#3496cc" stroke="#3496cc"/><path d="M932,394L954,425L1006,373Z" fill="#3698cc" stroke="#3698cc"/><path d="M1006,373L954,425L983,447Z" fill="#3491ca" stroke="#3491ca"/><path d="M1006,373L983,447L1035,407Z" fill="#348ec8" stroke="#348ec8"/><path d="M1035,407L983,447L1070,459Z" fill="#3182c4" stroke="#3182c4"/><path d="M1035,407L1070,459L1130,372Z" fill="#3382c2" stroke="#3382c2"/><path d="M1130,372L1070,459L1117,466Z" fill="#3078bf" stroke="#3078bf"/><path d="M1130,372L1117,466L1188,446Z" fill="#3073bc" stroke="#3073bc"/><path d="M1130,372L1188,446L1176,374Z" fill="#3378bd" stroke="#3378bd"/><path d="M1176,374L1188,446L1240,399Z" fill="#3170b9" stroke="#3170b9"/><path d="M1240,399L1188,446L1243,472Z" fill="#2e63b6" stroke="#2e63b6"/><path d="M1240,399L1243,472L1286,443Z" fill="#2d5eb3" stroke="#2d5eb3"/><path d="M1240,399L1286,443L1309,367Z" fill="#3165b4" stroke="#3165b4"/><path d="M1309,367L1286,443L1361,409Z" fill="#305eb0" stroke="#305eb0"/><path d="M1361,409L1286,443L1363,470Z" fill="#2c51ad" stroke="#2c51ad"/><path d="M1361,409L1363,470L1421,453Z" fill="#2b4ea9" stroke="#2b4ea9"/><path d="M1361,409L1421,453L1386,386Z" fill="#2e56aa" stroke="#2e56aa"/><path d="M1386,386L1421,453L1448,404Z" fill="#2d57a8" stroke="#2d57a8"/><path d="M1448,404L1421,453L1446,457Z" fill="#2a50a5" stroke="#2a50a5"/><path d="M-47,473L-36,546L-9,530Z" fill="#97b2c9" stroke="#97b2c9"/><path d="M-47,473L-9,530L32,489Z" fill="#98bacc" stroke="#98bacc"/><path d="M46,472L32,489L111,513Z" fill="#91b9c9" stroke="#91b9c9"/><path d="M46,472L111,513L70,432Z" fill="#90c0cc" stroke="#90c0cc"/><path d="M70,432L111,513L159,439Z" fill="#8cc2cc" stroke="#8cc2cc"/><path d="M159,439L111,513L172,486Z" fill="#87bac7" stroke="#87bac7"/><path d="M159,439L172,486L199,442Z" fill="#85c2ca" stroke="#85c2ca"/><path d="M199,442L172,486L208,488Z" fill="#82bbc6" stroke="#82bbc6"/><path d="M199,442L208,488L272,433Z" fill="#7fc0c8" stroke="#7fc0c8"/><path d="M272,433L208,488L283,506Z" fill="#7ab6c4" stroke="#7ab6c4"/><path d="M272,433L283,506L339,435Z" fill="#74bbc8" stroke="#74bbc8"/><path d="M339,435L283,506L311,513Z" fill="#71afc3" stroke="#71afc3"/><path d="M339,435L311,513L371,468Z" fill="#6db3c6" stroke="#6db3c6"/><path d="M371,468L311,513L379,497Z" fill="#6aaac2" stroke="#6aaac2"/><path d="M371,468L379,497L425,454Z" fill="#66afc6" stroke="#66afc6"/><path d="M425,454L379,497L450,487Z" fill="#61abc5" stroke="#61abc5"/><path d="M425,454L450,487L492,469Z" fill="#5cacc7" stroke="#5cacc7"/><path d="M492,469L450,487L527,510Z" fill="#56a3c5" stroke="#56a3c5"/><path d="M492,469L527,510L550,463Z" fill="#52a5c7" stroke="#52a5c7"/><path d="M550,463L527,510L578,526Z" fill="#4e9cc4" stroke="#4e9cc4"/><path d="M550,463L578,526L636,445Z" fill="#4aa3c8" stroke="#4aa3c8"/><path d="M636,445L578,526L615,528Z" fill="#4699c5" stroke="#4699c5"/><path d="M636,445L615,528L702,515Z" fill="#4199c7" stroke="#4199c7"/><path d="M636,445L702,515L702,430Z" fill="#3ea4cd" stroke="#3ea4cd"/><path d="M702,430L702,515L734,435Z" fill="#3aa3ce" stroke="#3aa3ce"/><path d="M734,435L702,515L765,533Z" fill="#3893c7" stroke="#3893c7"/><path d="M734,435L765,533L819,462Z" fill="#3796ca" stroke="#3796ca"/><path d="M819,462L765,533L807,530Z" fill="#3587c3" stroke="#3587c3"/><path d="M819,462L807,530L880,522Z" fill="#3384c3" stroke="#3384c3"/><path d="M819,462L880,522L869,456Z" fill="#338bc7" stroke="#338bc7"/><path d="M869,456L880,522L908,513Z" fill="#3181c3" stroke="#3181c3"/><path d="M869,456L908,513L954,425Z" fill="#318bc8" stroke="#318bc8"/><path d="M954,425L908,513L983,447Z" fill="#3087c8" stroke="#3087c8"/><path d="M983,447L908,513L967,524Z" fill="#2f7ac1" stroke="#2f7ac1"/><path d="M983,447L967,524L1052,526Z" fill="#2e70bd" stroke="#2e70bd"/><path d="M983,447L1052,526L1070,459Z" fill="#2e74be" stroke="#2e74be"/><path d="M1070,459L1052,526L1117,466Z" fill="#2d6aba" stroke="#2d6aba"/><path d="M1117,466L1052,526L1133,503Z" fill="#2c61b5" stroke="#2c61b5"/><path d="M1117,466L1133,503L1159,496Z" fill="#2c5fb4" stroke="#2c5fb4"/><path d="M1117,466L1159,496L1188,446Z" fill="#2d64b7" stroke="#2d64b7"/><path d="M1188,446L1159,496L1243,472Z" fill="#2c5cb3" stroke="#2c5cb3"/><path d="M1243,472L1159,496L1247,514Z" fill="#2b50ad" stroke="#2b50ad"/><path d="M1243,472L1247,514L1313,497Z" fill="#2a48a9" stroke="#2a48a9"/><path d="M1243,472L1313,497L1286,443Z" fill="#2b4fad" stroke="#2b4fad"/><path d="M1286,443L1313,497L1363,470Z" fill="#2a49aa" stroke="#2a49aa"/><path d="M1363,470L1313,497L1351,491Z" fill="#293fa5" stroke="#293fa5"/><path d="M1363,470L1351,491L1428,530Z" fill="#283aa0" stroke="#283aa0"/><path d="M1363,470L1428,530L1421,453Z" fill="#283fa1" stroke="#283fa1"/><path d="M1421,453L1428,530L1446,457Z" fill="#2841a0" stroke="#2841a0"/><path d="M1446,457L1428,530L1462,511Z" fill="#27399b" stroke="#27399b"/><path d="M-9,530L-36,546L10,559Z" fill="#96a7c3" stroke="#96a7c3"/><path d="M-9,530L10,559L32,489Z" fill="#96aec5" stroke="#96aec5"/><path d="M32,489L10,559L85,568Z" fill="#92a7c1" stroke="#92a7c1"/><path d="M32,489L85,568L111,513Z" fill="#8eacc2" stroke="#8eacc2"/><path d="M111,513L85,568L136,561Z" fill="#89a1bc" stroke="#89a1bc"/><path d="M111,513L136,561L172,486Z" fill="#87aac0" stroke="#87aac0"/><path d="M172,486L136,561L219,575Z" fill="#82a1ba" stroke="#82a1ba"/><path d="M172,486L219,575L208,488Z" fill="#80a9be" stroke="#80a9be"/><path d="M208,488L219,575L283,506Z" fill="#7ba5ba" stroke="#7ba5ba"/><path d="M283,506L219,575L249,591Z" fill="#7896b4" stroke="#7896b4"/><path d="M283,506L249,591L335,562Z" fill="#7296b6" stroke="#7296b6"/><path d="M283,506L335,562L311,513Z" fill="#709fbb" stroke="#709fbb"/><path d="M311,513L335,562L379,497Z" fill="#6b9ebc" stroke="#6b9ebc"/><path d="M379,497L335,562L404,566Z" fill="#6695b9" stroke="#6695b9"/><path d="M379,497L404,566L450,487Z" fill="#619dbe" stroke="#619dbe"/><path d="M450,487L404,566L471,555Z" fill="#5b93bb" stroke="#5b93bb"/><path d="M450,487L471,555L527,510Z" fill="#5698bf" stroke="#5698bf"/><path d="M527,510L471,555L500,569Z" fill="#538dba" stroke="#538dba"/><path d="M527,510L500,569L553,565Z" fill="#4f8aba" stroke="#4f8aba"/><path d="M527,510L553,565L578,526Z" fill="#4c8ebd" stroke="#4c8ebd"/><path d="M578,526L553,565L610,568Z" fill="#4886ba" stroke="#4886ba"/><path d="M578,526L610,568L615,528Z" fill="#468abd" stroke="#468abd"/><path d="M615,528L610,568L698,563Z" fill="#4083bb" stroke="#4083bb"/><path d="M615,528L698,563L702,515Z" fill="#3d88c0" stroke="#3d88c0"/><path d="M702,515L698,563L765,533Z" fill="#3784bf" stroke="#3784bf"/><path d="M765,533L698,563L738,593Z" fill="#3678ba" stroke="#3678ba"/><path d="M765,533L738,593L801,579Z" fill="#3472b8" stroke="#3472b8"/><path d="M765,533L801,579L807,530Z" fill="#3478bc" stroke="#3478bc"/><path d="M807,530L801,579L882,559Z" fill="#3270b9" stroke="#3270b9"/><path d="M807,530L882,559L880,522Z" fill="#3175bc" stroke="#3175bc"/><path d="M880,522L882,559L908,513Z" fill="#3073bc" stroke="#3073bc"/><path d="M908,513L882,559L918,579Z" fill="#2f6ab8" stroke="#2f6ab8"/><path d="M908,513L918,579L967,524Z" fill="#2e6bba" stroke="#2e6bba"/><path d="M967,524L918,579L980,551Z" fill="#2d63b7" stroke="#2d63b7"/><path d="M967,524L980,551L1052,526Z" fill="#2c63b6" stroke="#2c63b6"/><path d="M1052,526L980,551L1052,560Z" fill="#2c5ab2" stroke="#2c5ab2"/><path d="M1052,526L1052,560L1123,585Z" fill="#2b4eac" stroke="#2b4eac"/><path d="M1052,526L1123,585L1133,503Z" fill="#2b51ae" stroke="#2b51ae"/><path d="M1133,503L1123,585L1177,549Z" fill="#2a47a9" stroke="#2a47a9"/><path d="M1133,503L1177,549L1159,496Z" fill="#2b51ae" stroke="#2b51ae"/><path d="M1159,496L1177,549L1247,514Z" fill="#2a49aa" stroke="#2a49aa"/><path d="M1247,514L1177,549L1230,575Z" fill="#293ba3" stroke="#293ba3"/><path d="M1247,514L1230,575L1290,580Z" fill="#28319f" stroke="#28319f"/><path d="M1247,514L1290,580L1313,497Z" fill="#2937a1" stroke="#2937a1"/><path d="M1313,497L1290,580L1372,568Z" fill="#272a9b" stroke="#272a9b"/><path d="M1313,497L1372,568L1351,491Z" fill="#28329f" stroke="#28329f"/><path d="M1351,491L1372,568L1428,530Z" fill="#272d9a" stroke="#272d9a"/><path d="M1428,530L1372,568L1400,579Z" fill="#262293" stroke="#262293"/><path d="M1428,530L1400,579L1480,589Z" fill="#251f8f" stroke="#251f8f"/><path d="M1428,530L1480,589L1462,511Z" fill="#262892" stroke="#262892"/><path d="M-36,546L-6,742L-24,612Z" fill="#9384b2" stroke="#9384b2"/><path d="M-36,546L-24,612L10,559Z" fill="#969cbe" stroke="#969cbe"/><path d="M10,559L-24,612L31,625Z" fill="#9491b8" stroke="#9491b8"/><path d="M10,559L31,625L74,611Z" fill="#9090b6" stroke="#9090b6"/><path d="M10,559L74,611L85,568Z" fill="#8f97b9" stroke="#8f97b9"/><path d="M85,568L74,611L136,561Z" fill="#8a95b7" stroke="#8a95b7"/><path d="M136,561L74,611L158,649Z" fill="#8689b0" stroke="#8689b0"/><path d="M136,561L158,649L219,575Z" fill="#808bb0" stroke="#808bb0"/><path d="M219,575L158,649L234,632Z" fill="#7c80aa" stroke="#7c80aa"/><path d="M219,575L234,632L249,591Z" fill="#7987ac" stroke="#7987ac"/><path d="M249,591L234,632L276,623Z" fill="#767fa9" stroke="#767fa9"/><path d="M249,591L276,623L323,607Z" fill="#7181ab" stroke="#7181ab"/><path d="M249,591L323,607L335,562Z" fill="#6f88af" stroke="#6f88af"/><path d="M335,562L323,607L392,624Z" fill="#6781ae" stroke="#6781ae"/><path d="M335,562L392,624L404,566Z" fill="#6484b1" stroke="#6484b1"/><path d="M404,566L392,624L428,626Z" fill="#5e7aad" stroke="#5e7aad"/><path d="M404,566L428,626L471,555Z" fill="#5b82b2" stroke="#5b82b2"/><path d="M471,555L428,626L500,569Z" fill="#567fb2" stroke="#567fb2"/><path d="M500,569L428,626L487,643Z" fill="#5473ad" stroke="#5473ad"/><path d="M500,569L487,643L553,653Z" fill="#4e6eac" stroke="#4e6eac"/><path d="M500,569L553,653L553,565Z" fill="#4d77b1" stroke="#4d77b1"/><path d="M553,565L553,653L627,606Z" fill="#4670b0" stroke="#4670b0"/><path d="M553,565L627,606L610,568Z" fill="#457ab6" stroke="#457ab6"/><path d="M610,568L627,606L698,563Z" fill="#3f78b7" stroke="#3f78b7"/><path d="M698,563L627,606L689,652Z" fill="#3a6cb2" stroke="#3a6cb2"/><path d="M698,563L689,652L738,593Z" fill="#356cb3" stroke="#356cb3"/><path d="M738,593L689,652L770,655Z" fill="#335dad" stroke="#335dad"/><path d="M738,593L770,655L801,579Z" fill="#3362b1" stroke="#3362b1"/><path d="M801,579L770,655L817,635Z" fill="#315aad" stroke="#315aad"/><path d="M801,579L817,635L882,559Z" fill="#3062b2" stroke="#3062b2"/><path d="M882,559L817,635L868,649Z" fill="#2f56ae" stroke="#2f56ae"/><path d="M882,559L868,649L918,579Z" fill="#2e5ab0" stroke="#2e5ab0"/><path d="M918,579L868,649L920,666Z" fill="#2c4aa9" stroke="#2c4aa9"/><path d="M918,579L920,666L952,621Z" fill="#2b4baa" stroke="#2b4baa"/><path d="M918,579L952,621L980,551Z" fill="#2c57b0" stroke="#2c57b0"/><path d="M980,551L952,621L982,636Z" fill="#2a4cab" stroke="#2a4cab"/><path d="M980,551L982,636L1026,622Z" fill="#2a48a9" stroke="#2a48a9"/><path d="M980,551L1026,622L1052,560Z" fill="#2b4fad" stroke="#2b4fad"/><path d="M1052,560L1026,622L1123,585Z" fill="#2942a6" stroke="#2942a6"/><path d="M1123,585L1026,622L1069,674Z" fill="#28339f" stroke="#28339f"/><path d="M1123,585L1069,674L1128,655Z" fill="#27299a" stroke="#27299a"/><path d="M1123,585L1128,655L1179,614Z" fill="#272b9b" stroke="#272b9b"/><path d="M1123,585L1179,614L1177,549Z" fill="#2936a1" stroke="#2936a1"/><path d="M1177,549L1179,614L1230,575Z" fill="#28329f" stroke="#28329f"/><path d="M1230,575L1179,614L1246,622Z" fill="#272498" stroke="#272498"/><path d="M1230,575L1246,622L1290,580Z" fill="#272398" stroke="#272398"/><path d="M1290,580L1246,622L1297,644Z" fill="#261791" stroke="#261791"/><path d="M1290,580L1297,644L1330,611Z" fill="#251490" stroke="#251490"/><path d="M1290,580L1330,611L1372,568Z" fill="#261a93" stroke="#261a93"/><path d="M1372,568L1330,611L1396,619Z" fill="#25128e" stroke="#25128e"/><path d="M1372,568L1396,619L1400,579Z" fill="#25168e" stroke="#25168e"/><path d="M1400,579L1396,619L1480,589Z" fill="#24148a" stroke="#24148a"/><path d="M1480,589L1396,619L1457,655Z" fill="#230a84" stroke="#230a84"/><path d="M1480,589L1457,655L1469,696Z" fill="#21007d" stroke="#21007d"/><path d="M1480,589L1469,696L1467,749Z" fill="#200077" stroke="#200077"/><path d="M-24,612L-6,742L-6,698Z" fill="#9280a8" stroke="#9280a8"/><path d="M-24,612L-6,698L31,625Z" fill="#9380af" stroke="#9380af"/><path d="M31,625L-6,698L49,713Z" fill="#8f7fa7" stroke="#8f7fa7"/><path d="M31,625L49,713L105,665Z" fill="#8b7da8" stroke="#8b7da8"/><path d="M31,625L105,665L74,611Z" fill="#8b81ae" stroke="#8b81ae"/><path d="M74,611L105,665L158,649Z" fill="#867caa" stroke="#867caa"/><path d="M158,649L105,665L160,676Z" fill="#8279a5" stroke="#8279a5"/><path d="M158,649L160,676L220,695Z" fill="#7d77a1" stroke="#7d77a1"/><path d="M158,649L220,695L234,632Z" fill="#7a76a2" stroke="#7a76a2"/><path d="M234,632L220,695L282,673Z" fill="#75749f" stroke="#75749f"/><path d="M234,632L282,673L276,623Z" fill="#7374a4" stroke="#7374a4"/><path d="M276,623L282,673L323,607Z" fill="#6f75a6" stroke="#6f75a6"/><path d="M323,607L282,673L346,673Z" fill="#6a70a3" stroke="#6a70a3"/><path d="M323,607L346,673L392,624Z" fill="#6572a7" stroke="#6572a7"/><path d="M392,624L346,673L403,674Z" fill="#616ca3" stroke="#616ca3"/><path d="M392,624L403,674L428,626Z" fill="#5d6ca6" stroke="#5d6ca6"/><path d="M428,626L403,674L451,693Z" fill="#5969a3" stroke="#5969a3"/><path d="M428,626L451,693L487,643Z" fill="#5568a4" stroke="#5568a4"/><path d="M487,643L451,693L509,679Z" fill="#5166a2" stroke="#5166a2"/><path d="M487,643L509,679L553,653Z" fill="#4d65a5" stroke="#4d65a5"/><path d="M553,653L509,679L580,679Z" fill="#4863a3" stroke="#4863a3"/><path d="M553,653L580,679L627,606Z" fill="#4461a9" stroke="#4461a9"/><path d="M627,606L580,679L607,686Z" fill="#4160a7" stroke="#4160a7"/><path d="M627,606L607,686L667,678Z" fill="#3e5fa7" stroke="#3e5fa7"/><path d="M627,606L667,678L689,652Z" fill="#3a5eaa" stroke="#3a5eaa"/><path d="M689,652L667,678L736,684Z" fill="#355ca6" stroke="#355ca6"/><path d="M689,652L736,684L770,655Z" fill="#3259a7" stroke="#3259a7"/><path d="M770,655L736,684L799,696Z" fill="#3054a3" stroke="#3054a3"/><path d="M770,655L799,696L817,635Z" fill="#2f51a6" stroke="#2f51a6"/><path d="M817,635L799,696L853,673Z" fill="#2e4ea4" stroke="#2e4ea4"/><path d="M817,635L853,673L868,649Z" fill="#2e4ba6" stroke="#2e4ba6"/><path d="M868,649L853,673L920,666Z" fill="#2c47a3" stroke="#2c47a3"/><path d="M952,621L920,666L982,636Z" fill="#2a40a5" stroke="#2a40a5"/><path d="M982,636L920,666L1011,713Z" fill="#283c9e" stroke="#283c9e"/><path d="M982,636L1011,713L1026,622Z" fill="#28369e" stroke="#28369e"/><path d="M1026,622L1011,713L1069,674Z" fill="#27319a" stroke="#27319a"/><path d="M1128,655L1069,674L1097,699Z" fill="#262894" stroke="#262894"/><path d="M1128,655L1097,699L1157,701Z" fill="#262390" stroke="#262390"/><path d="M1128,655L1157,701L1179,614Z" fill="#261f93" stroke="#261f93"/><path d="M1179,614L1157,701L1237,708Z" fill="#25198d" stroke="#25198d"/><path d="M1179,614L1237,708L1246,622Z" fill="#251490" stroke="#251490"/><path d="M1246,622L1237,708L1268,708Z" fill="#240f88" stroke="#240f88"/><path d="M1246,622L1268,708L1297,644Z" fill="#240c8a" stroke="#240c8a"/><path d="M1297,644L1268,708L1371,692Z" fill="#230682" stroke="#230682"/><path d="M1297,644L1371,692L1330,611Z" fill="#240287" stroke="#240287"/><path d="M1330,611L1371,692L1396,619Z" fill="#240286" stroke="#240286"/><path d="M1396,619L1371,692L1390,692Z" fill="#22007f" stroke="#22007f"/><path d="M1396,619L1390,692L1457,655Z" fill="#220080" stroke="#220080"/><path d="M1457,655L1390,692L1469,696Z" fill="#210079" stroke="#210079"/><path d="M-6,698L-6,742L43,727Z" fill="#8f7fa0" stroke="#8f7fa0"/><path d="M-6,698L43,727L49,713Z" fill="#8d7ea1" stroke="#8d7ea1"/><path d="M49,713L43,727L91,735Z" fill="#897d9d" stroke="#897d9d"/><path d="M49,713L91,735L105,665Z" fill="#877ca0" stroke="#877ca0"/><path d="M105,665L91,735L160,676Z" fill="#837aa0" stroke="#837aa0"/><path d="M160,676L91,735L172,773Z" fill="#807998" stroke="#807998"/><path d="M160,676L172,773L200,745Z" fill="#7b7796" stroke="#7b7796"/><path d="M160,676L200,745L220,695Z" fill="#7a779a" stroke="#7a779a"/><path d="M220,695L200,745L266,730Z" fill="#757595" stroke="#757595"/><path d="M220,695L266,730L282,673Z" fill="#727499" stroke="#727499"/><path d="M282,673L266,730L331,744Z" fill="#6c7197" stroke="#6c7197"/><path d="M282,673L331,744L346,673Z" fill="#69709a" stroke="#69709a"/><path d="M346,673L331,744L409,732Z" fill="#616d98" stroke="#616d98"/><path d="M346,673L409,732L403,674Z" fill="#5e6c9c" stroke="#5e6c9c"/><path d="M403,674L409,732L451,693Z" fill="#596a9b" stroke="#596a9b"/><path d="M451,693L409,732L474,767Z" fill="#546896" stroke="#546896"/><path d="M451,693L474,767L508,744Z" fill="#4f6796" stroke="#4f6796"/><path d="M451,693L508,744L509,679Z" fill="#4f669c" stroke="#4f669c"/><path d="M509,679L508,744L566,726Z" fill="#49649a" stroke="#49649a"/><path d="M509,679L566,726L580,679Z" fill="#47639f" stroke="#47639f"/><path d="M580,679L566,726L607,686Z" fill="#43619f" stroke="#43619f"/><path d="M607,686L566,726L610,739Z" fill="#40619c" stroke="#40619c"/><path d="M607,686L610,739L667,678Z" fill="#3c5f9f" stroke="#3c5f9f"/><path d="M667,678L610,739L667,765Z" fill="#395e9b" stroke="#395e9b"/><path d="M667,678L667,765L736,684Z" fill="#345c9f" stroke="#345c9f"/><path d="M736,684L667,765L767,728Z" fill="#315a9b" stroke="#315a9b"/><path d="M736,684L767,728L799,696Z" fill="#2f549f" stroke="#2f549f"/><path d="M799,696L767,728L814,733Z" fill="#2e519b" stroke="#2e519b"/><path d="M799,696L814,733L853,673Z" fill="#2d4e9e" stroke="#2d4e9e"/><path d="M853,673L814,733L892,734Z" fill="#2b4a9b" stroke="#2b4a9b"/><path d="M853,673L892,734L920,666Z" fill="#2a469e" stroke="#2a469e"/><path d="M920,666L892,734L968,759Z" fill="#284298" stroke="#284298"/><path d="M920,666L968,759L1011,713Z" fill="#273c97" stroke="#273c97"/><path d="M1011,713L968,759L1048,729Z" fill="#25368f" stroke="#25368f"/><path d="M1011,713L1048,729L1069,674Z" fill="#263092" stroke="#263092"/><path d="M1069,674L1048,729L1097,699Z" fill="#252c91" stroke="#252c91"/><path d="M1097,699L1048,729L1092,761Z" fill="#242b8b" stroke="#242b8b"/><path d="M1097,699L1092,761L1153,756Z" fill="#242586" stroke="#242586"/><path d="M1097,699L1153,756L1157,701Z" fill="#242289" stroke="#242289"/><path d="M1157,701L1153,756L1237,708Z" fill="#231a85" stroke="#231a85"/><path d="M1237,708L1153,756L1242,749Z" fill="#221680" stroke="#221680"/><path d="M1237,708L1242,749L1272,732Z" fill="#220f7e" stroke="#220f7e"/><path d="M1237,708L1272,732L1268,708Z" fill="#220e80" stroke="#220e80"/><path d="M1268,708L1272,732L1371,692Z" fill="#22077d" stroke="#22077d"/><path d="M1371,692L1272,732L1374,752Z" fill="#210178" stroke="#210178"/><path d="M1371,692L1374,752L1394,746Z" fill="#200074" stroke="#200074"/><path d="M1371,692L1394,746L1390,692Z" fill="#210077" stroke="#210077"/><path d="M1390,692L1394,746L1469,696Z" fill="#200075" stroke="#200075"/><path d="M1469,696L1394,746L1467,749Z" fill="#1f006f" stroke="#1f006f"/><path d="M-6,742L172,773L91,735Z" fill="#857c97" stroke="#857c97"/><path d="M-6,742L91,735L43,727Z" fill="#8b7e9c" stroke="#8b7e9c"/><path d="M172,773L921,770L474,767Z" fill="#486490" stroke="#486490"/><path d="M172,773L474,767L331,744Z" fill="#656f8f" stroke="#656f8f"/><path d="M172,773L331,744L266,730Z" fill="#707490" stroke="#707490"/><path d="M172,773L266,730L200,745Z" fill="#767690" stroke="#767690"/><path d="M331,744L474,767L409,732Z" fill="#5a6b92" stroke="#5a6b92"/><path d="M474,767L921,770L667,765Z" fill="#335c93" stroke="#335c93"/><path d="M474,767L667,765L610,739Z" fill="#406193" stroke="#406193"/><path d="M474,767L610,739L508,744Z" fill="#486494" stroke="#486494"/><path d="M508,744L610,739L566,726Z" fill="#446297" stroke="#446297"/><path d="M667,765L921,770L814,733Z" fill="#2c5194" stroke="#2c5194"/><path d="M667,765L814,733L767,728Z" fill="#2f5798" stroke="#2f5798"/><path d="M814,733L921,770L892,734Z" fill="#294894" stroke="#294894"/><path d="M892,734L921,770L968,759Z" fill="#274291" stroke="#274291"/><path d="M921,770L1467,749L1374,752Z" fill="#210f78" stroke="#210f78"/><path d="M921,770L1374,752L1092,761Z" fill="#232381" stroke="#232381"/><path d="M921,770L1092,761L968,759Z" fill="#25388b" stroke="#25388b"/><path d="M968,759L1092,761L1048,729Z" fill="#24318a" stroke="#24318a"/><path d="M1092,761L1374,752L1153,756Z" fill="#22167c" stroke="#22167c"/><path d="M1153,756L1374,752L1242,749Z" fill="#210e79" stroke="#210e79"/><path d="M1242,749L1374,752L1272,732Z" fill="#210878" stroke="#210878"/><path d="M1374,752L1467,749L1394,746Z" fill="#1f006e" stroke="#1f006e"/></g></svg>