<svg width="1418" height="723" xmlns="http://www.w3.org/2000/svg"><g><path d="M-129,-93L-105,418L-87,224Z" fill="#eff4fe" stroke="#eff4fe"/><path d="M-129,-93L-87,224L-88,72Z" fill="#fdfbfe" stroke="#fdfbfe"/><path d="M-129,-93L-88,72L69,-95Z" fill="#fcfafc" stroke="#fcfafc"/><path d="M-129,-93L69,-95L241,-118Z" fill="#f4f3f9" stroke="#f4f3f9"/><path d="M69,-95L-88,72L121,45Z" fill="#f6f5fa" stroke="#f6f5fa"/><path d="M69,-95L121,45L241,-118Z" fill="#eeeef6" stroke="#eeeef6"/><path d="M241,-118L121,45L282,19Z" fill="#e9eaf3" stroke="#e9eaf3"/><path d="M241,-118L282,19L325,-26Z" fill="#e4e6f2" stroke="#e4e6f2"/><path d="M241,-118L325,-26L519,-127Z" fill="#dde3f0" stroke="#dde3f0"/><path d="M325,-26L282,19L414,110Z" fill="#dee3f0" stroke="#dee3f0"/><path d="M325,-26L414,110L477,57Z" fill="#d7e0ef" stroke="#d7e0ef"/><path d="M325,-26L477,57L519,-127Z" fill="#d6e0ee" stroke="#d6e0ee"/><path d="M519,-127L477,57L709,-92Z" fill="#c9daeb" stroke="#c9daeb"/><path d="M519,-127L709,-92L948,-126Z" fill="#b7d3e7" stroke="#b7d3e7"/><path d="M709,-92L477,57L696,93Z" fill="#c2d7e9" stroke="#c2d7e9"/><path d="M709,-92L696,93L851,-75Z" fill="#b3d2e6" stroke="#b3d2e6"/><path d="M709,-92L851,-75L948,-126Z" fill="#a6cce3" stroke="#a6cce3"/><path d="M851,-75L696,93L836,127Z" fill="#abcee4" stroke="#abcee4"/><path d="M851,-75L836,127L1031,28Z" fill="#9ac8e0" stroke="#9ac8e0"/><path d="M851,-75L1031,28L948,-126Z" fill="#96c6df" stroke="#96c6df"/><path d="M948,-126L1031,28L1145,-38Z" fill="#8dbcd5" stroke="#8dbcd5"/><path d="M948,-126L1145,-38L1376,-82Z" fill="#84afc9" stroke="#84afc9"/><path d="M1145,-38L1031,28L1069,89Z" fill="#89b7d1" stroke="#89b7d1"/><path d="M1145,-38L1069,89L1260,66Z" fill="#83aec9" stroke="#83aec9"/><path d="M1145,-38L1260,66L1292,-21Z" fill="#80a7c1" stroke="#80a7c1"/><path d="M1145,-38L1292,-21L1376,-82Z" fill="#80a3bd" stroke="#80a3bd"/><path d="M1292,-21L1260,66L1460,40Z" fill="#7f9cb6" stroke="#7f9cb6"/><path d="M1292,-21L1460,40L1376,-82Z" fill="#8098b2" stroke="#8098b2"/><path d="M1376,-82L1460,40L1517,-58Z" fill="#8090aa" stroke="#8090aa"/><path d="M1517,-58L1460,40L1567,75Z" fill="#7f89a4" stroke="#7f89a4"/><path d="M-88,72L-87,224L20,186Z" fill="#f0f3fc" stroke="#f0f3fc"/><path d="M-88,72L20,186L121,45Z" fill="#f4f3fa" stroke="#f4f3fa"/><path d="M121,45L20,186L282,226Z" fill="#e4e8f6" stroke="#e4e8f6"/><path d="M121,45L282,226L282,19Z" fill="#e5e6f3" stroke="#e5e6f3"/><path d="M282,19L282,226L327,196Z" fill="#d9e0f1" stroke="#d9e0f1"/><path d="M282,19L327,196L414,110Z" fill="#dbe1f0" stroke="#dbe1f0"/><path d="M414,110L327,196L514,217Z" fill="#c9d8ef" stroke="#c9d8ef"/><path d="M414,110L514,217L477,57Z" fill="#cedbed" stroke="#cedbed"/><path d="M477,57L514,217L696,93Z" fill="#c5d7eb" stroke="#c5d7eb"/><path d="M696,93L514,217L695,219Z" fill="#b3cfe9" stroke="#b3cfe9"/><path d="M696,93L695,219L781,227Z" fill="#a7cae7" stroke="#a7cae7"/><path d="M696,93L781,227L836,127Z" fill="#a7cae5" stroke="#a7cae5"/><path d="M836,127L781,227L984,257Z" fill="#8cbfe2" stroke="#8cbfe2"/><path d="M836,127L984,257L1069,89Z" fill="#89bddd" stroke="#89bddd"/><path d="M836,127L1069,89L1031,28Z" fill="#90c0db" stroke="#90c0db"/><path d="M1069,89L984,257L1185,214Z" fill="#79aed1" stroke="#79aed1"/><path d="M1069,89L1185,214L1260,66Z" fill="#7fabc7" stroke="#7fabc7"/><path d="M1260,66L1185,214L1329,280Z" fill="#6f9bbe" stroke="#6f9bbe"/><path d="M1260,66L1329,280L1367,265Z" fill="#6b93b8" stroke="#6b93b8"/><path d="M1260,66L1367,265L1460,40Z" fill="#7c96b4" stroke="#7c96b4"/><path d="M1460,40L1367,265L1531,256Z" fill="#6e87aa" stroke="#6e87aa"/><path d="M1460,40L1531,256L1567,75Z" fill="#7c86a3" stroke="#7c86a3"/><path d="M1567,75L1531,256L1546,353Z" fill="#6678a0" stroke="#6678a0"/><path d="M1567,75L1546,353L1572,856Z" fill="#2d6095" stroke="#2d6095"/><path d="M-87,224L-105,418L70,346Z" fill="#c9e1f9" stroke="#c9e1f9"/><path d="M-87,224L70,346L20,186Z" fill="#d9e7fa" stroke="#d9e7fa"/><path d="M20,186L70,346L282,226Z" fill="#d0dff6" stroke="#d0dff6"/><path d="M282,226L70,346L181,410Z" fill="#bad4f2" stroke="#bad4f2"/><path d="M282,226L181,410L321,342Z" fill="#b4d0ef" stroke="#b4d0ef"/><path d="M282,226L321,342L327,196Z" fill="#c1d5f1" stroke="#c1d5f1"/><path d="M327,196L321,342L514,217Z" fill="#bbd2ef" stroke="#bbd2ef"/><path d="M514,217L321,342L537,395Z" fill="#a5c8eb" stroke="#a5c8eb"/><path d="M514,217L537,395L660,378Z" fill="#96c2e8" stroke="#96c2e8"/><path d="M514,217L660,378L695,219Z" fill="#9fc6e8" stroke="#9fc6e8"/><path d="M695,219L660,378L781,227Z" fill="#94c2e6" stroke="#94c2e6"/><path d="M781,227L660,378L851,328Z" fill="#83bbe3" stroke="#83bbe3"/><path d="M781,227L851,328L984,257Z" fill="#7db8e0" stroke="#7db8e0"/><path d="M984,257L851,328L930,422Z" fill="#65afdd" stroke="#65afdd"/><path d="M984,257L930,422L1118,362Z" fill="#59a5d4" stroke="#59a5d4"/><path d="M984,257L1118,362L1185,214Z" fill="#63a3ce" stroke="#63a3ce"/><path d="M1185,214L1118,362L1233,410Z" fill="#4f96c4" stroke="#4f96c4"/><path d="M1185,214L1233,410L1329,280Z" fill="#5491bd" stroke="#5491bd"/><path d="M1329,280L1233,410L1477,431Z" fill="#417fb0" stroke="#417fb0"/><path d="M1329,280L1477,431L1367,265Z" fill="#4e7fae" stroke="#4e7fae"/><path d="M1367,265L1477,431L1546,353Z" fill="#4875a6" stroke="#4875a6"/><path d="M1367,265L1546,353L1531,256Z" fill="#5779a6" stroke="#5779a6"/><path d="M-105,418L-100,476L70,346Z" fill="#aed7f4" stroke="#aed7f4"/><path d="M70,346L-100,476L127,533Z" fill="#9bcdee" stroke="#9bcdee"/><path d="M70,346L127,533L181,410Z" fill="#9ccbed" stroke="#9ccbed"/><path d="M181,410L127,533L272,490Z" fill="#86bfe7" stroke="#86bfe7"/><path d="M181,410L272,490L321,342Z" fill="#98c5ea" stroke="#98c5ea"/><path d="M321,342L272,490L502,504Z" fill="#83bce5" stroke="#83bce5"/><path d="M321,342L502,504L537,395Z" fill="#87bde5" stroke="#87bde5"/><path d="M537,395L502,504L660,378Z" fill="#77b6e1" stroke="#77b6e1"/><path d="M660,378L502,504L703,550Z" fill="#5eacdc" stroke="#5eacdc"/><path d="M660,378L703,550L861,525Z" fill="#4fa6d8" stroke="#4fa6d8"/><path d="M660,378L861,525L851,328Z" fill="#61addc" stroke="#61addc"/><path d="M851,328L861,525L930,422Z" fill="#4ea6d8" stroke="#4ea6d8"/><path d="M930,422L861,525L935,527Z" fill="#3499d0" stroke="#3499d0"/><path d="M930,422L935,527L1118,362Z" fill="#3b9bcf" stroke="#3b9bcf"/><path d="M1118,362L935,527L1165,551Z" fill="#258dc4" stroke="#258dc4"/><path d="M1118,362L1165,551L1233,410Z" fill="#2c88bd" stroke="#2c88bd"/><path d="M1233,410L1165,551L1294,579Z" fill="#1874ac" stroke="#1874ac"/><path d="M1233,410L1294,579L1432,556Z" fill="#186aa2" stroke="#186aa2"/><path d="M1233,410L1432,556L1477,431Z" fill="#206ea5" stroke="#206ea5"/><path d="M1477,431L1432,556L1526,515Z" fill="#195d95" stroke="#195d95"/><path d="M1477,431L1526,515L1546,353Z" fill="#2b649a" stroke="#2b649a"/><path d="M1546,353L1526,515L1572,856Z" fill="#14437c" stroke="#14437c"/><path d="M-100,476L-72,781L-34,657Z" fill="#8da8c9" stroke="#8da8c9"/><path d="M-100,476L-34,657L127,533Z" fill="#8db8db" stroke="#8db8db"/><path d="M127,533L-34,657L124,638Z" fill="#85a7cb" stroke="#85a7cb"/><path d="M127,533L124,638L272,490Z" fill="#81aed5" stroke="#81aed5"/><path d="M272,490L124,638L224,729Z" fill="#7b9cc4" stroke="#7b9cc4"/><path d="M272,490L224,729L395,654Z" fill="#7396c0" stroke="#7396c0"/><path d="M272,490L395,654L402,578Z" fill="#71a0cb" stroke="#71a0cb"/><path d="M272,490L402,578L502,504Z" fill="#71abd7" stroke="#71abd7"/><path d="M402,578L395,654L503,701Z" fill="#658bb9" stroke="#658bb9"/><path d="M402,578L503,701L502,504Z" fill="#6696c4" stroke="#6696c4"/><path d="M502,504L503,701L697,644Z" fill="#5a8dbc" stroke="#5a8dbc"/><path d="M502,504L697,644L703,550Z" fill="#5696c7" stroke="#5696c7"/><path d="M703,550L697,644L860,621Z" fill="#4587ba" stroke="#4587ba"/><path d="M703,550L860,621L861,525Z" fill="#3f8ec1" stroke="#3f8ec1"/><path d="M861,525L860,621L935,527Z" fill="#348ac0" stroke="#348ac0"/><path d="M935,527L860,621L972,685Z" fill="#2a7bb2" stroke="#2a7bb2"/><path d="M935,527L972,685L1136,664Z" fill="#206fa7" stroke="#206fa7"/><path d="M935,527L1136,664L1165,551Z" fill="#1e73ab" stroke="#1e73ab"/><path d="M1165,551L1136,664L1294,579Z" fill="#13629a" stroke="#13629a"/><path d="M1294,579L1136,664L1285,683Z" fill="#0f538b" stroke="#0f538b"/><path d="M1294,579L1285,683L1422,707Z" fill="#0e457e" stroke="#0e457e"/><path d="M1294,579L1422,707L1432,556Z" fill="#114a83" stroke="#114a83"/><path d="M1432,556L1422,707L1521,727Z" fill="#0e366f" stroke="#0e366f"/><path d="M1432,556L1521,727L1526,515Z" fill="#12437b" stroke="#12437b"/><path d="M1526,515L1521,727L1572,856Z" fill="#0b255e" stroke="#0b255e"/><path d="M-34,657L-72,781L124,795Z" fill="#8089ad" stroke="#8089ad"/><path d="M-34,657L124,795L124,638Z" fill="#7f91b6" stroke="#7f91b6"/><path d="M124,638L124,795L206,765Z" fill="#7783aa" stroke="#7783aa"/><path d="M124,638L206,765L224,729Z" fill="#7686ae" stroke="#7686ae"/><path d="M224,729L206,765L419,814Z" fill="#6b739d" stroke="#6b739d"/><path d="M224,729L419,814L395,654Z" fill="#6879a5" stroke="#6879a5"/><path d="M395,654L419,814L503,701Z" fill="#6078a5" stroke="#6078a5"/><path d="M503,701L419,814L567,849Z" fill="#566594" stroke="#566594"/><path d="M503,701L567,849L629,827Z" fill="#4e6191" stroke="#4e6191"/><path d="M503,701L629,827L697,644Z" fill="#4e70a1" stroke="#4e70a1"/><path d="M697,644L629,827L877,801Z" fill="#3d6295" stroke="#3d6295"/><path d="M697,644L877,801L860,621Z" fill="#366ea3" stroke="#366ea3"/><path d="M860,621L877,801L972,685Z" fill="#27659c" stroke="#27659c"/><path d="M972,685L877,801L979,811Z" fill="#1d538b" stroke="#1d538b"/><path d="M972,685L979,811L1136,664Z" fill="#18558e" stroke="#18558e"/><path d="M1136,664L979,811L1169,803Z" fill="#10457d" stroke="#10457d"/><path d="M1136,664L1169,803L1285,683Z" fill="#0b457d" stroke="#0b457d"/><path d="M1285,683L1169,803L1316,824Z" fill="#07316a" stroke="#07316a"/><path d="M1285,683L1316,824L1422,707Z" fill="#093069" stroke="#093069"/><path d="M1422,707L1316,824L1450,848Z" fill="#051d56" stroke="#051d56"/><path d="M1422,707L1450,848L1521,727Z" fill="#071d57" stroke="#071d57"/><path d="M1521,727L1450,848L1572,856Z" fill="#040c45" stroke="#040c45"/><path d="M-72,781L567,849L124,795Z" fill="#6e6d96" stroke="#6e6d96"/><path d="M124,795L567,849L419,814Z" fill="#5f638f" stroke="#5f638f"/><path d="M124,795L419,814L206,765Z" fill="#6c6f99" stroke="#6c6f99"/><path d="M567,849L1572,856L1450,848Z" fill="#022c5c" stroke="#022c5c"/><path d="M567,849L1450,848L979,811Z" fill="#134175" stroke="#134175"/><path d="M567,849L979,811L877,801Z" fill="#2e4f83" stroke="#2e4f83"/><path d="M567,849L877,801L629,827Z" fill="#3f5686" stroke="#3f5686"/><path d="M979,811L1450,848L1316,824Z" fill="#03265d" stroke="#03265d"/><path d="M979,811L1316,824L1169,803Z" fill="#08316a" stroke="#08316a"/></g></svg>